<?xml version="1.0" standalone="no"?>
<!DOCTYPE svg PUBLIC "-//W3C//DTD SVG 20010904//EN"
 "http://www.w3.org/TR/2001/REC-SVG-20010904/DTD/svg10.dtd">
<svg version="1.0" xmlns="http://www.w3.org/2000/svg"
 width="732.000000pt" height="732.000000pt" viewBox="0 0 732.000000 732.000000"
 preserveAspectRatio="xMidYMid meet">
<metadata>
Created by potrace 1.16, written by Peter Selinger 2001-2019
</metadata>
<g transform="translate(0.000000,732.000000) scale(0.100000,-0.100000)"
fill="#000000" stroke="none">
<path d="M480 6420 l0 -420 420 0 420 0 0 420 0 420 -420 0 -420 0 0 -420z
m720 0 l0 -300 -300 0 -300 0 0 300 0 300 300 0 300 0 0 -300z"/>
<path d="M720 6420 l0 -180 180 0 180 0 0 180 0 180 -180 0 -180 0 0 -180z"/>
<path d="M1440 6660 l0 -180 60 0 60 0 0 -60 0 -60 60 0 60 0 0 -240 0 -240
-60 0 -60 0 0 180 0 180 -60 0 -60 0 0 -240 0 -240 -60 0 -60 0 0 60 0 60 -60
0 -60 0 0 -60 0 -60 60 0 60 0 0 -60 0 -60 -60 0 -60 0 0 -60 0 -60 60 0 60 0
0 60 0 60 60 0 60 0 0 -60 0 -60 60 0 60 0 0 -120 0 -120 -60 0 -60 0 0 -60 0
-60 -120 0 -120 0 0 -60 0 -60 -60 0 -60 0 0 120 0 120 120 0 120 0 0 60 0 60
-120 0 -120 0 0 120 0 120 -240 0 -240 0 0 -60 0 -60 60 0 60 0 0 -60 0 -60
60 0 60 0 0 60 0 60 60 0 60 0 0 -120 0 -120 -60 0 -60 0 0 -60 0 -60 -60 0
-60 0 0 60 0 60 -60 0 -60 0 0 60 0 60 -60 0 -60 0 0 -120 0 -120 120 0 120 0
0 -60 0 -60 -60 0 -60 0 0 -120 0 -120 -60 0 -60 0 0 -60 0 -60 60 0 60 0 0
-120 0 -120 -60 0 -60 0 0 -60 0 -60 120 0 120 0 0 -60 0 -60 -60 0 -60 0 0
-120 0 -120 60 0 60 0 0 -60 0 -60 -120 0 -120 0 0 -240 0 -240 240 0 240 0 0
-180 0 -180 -120 0 -120 0 0 60 0 60 60 0 60 0 0 60 0 60 -60 0 -60 0 0 -60 0
-60 -60 0 -60 0 0 60 0 60 -60 0 -60 0 0 -60 0 -60 60 0 60 0 0 -120 0 -120
120 0 120 0 0 -120 0 -120 60 0 60 0 0 -120 0 -120 -60 0 -60 0 0 60 0 60 -60
0 -60 0 0 60 0 60 -120 0 -120 0 0 -60 0 -60 60 0 60 0 0 -60 0 -60 -60 0 -60
0 0 -120 0 -120 120 0 120 0 0 60 0 60 -60 0 -60 0 0 60 0 60 120 0 120 0 0
-180 0 -180 60 0 60 0 0 -120 0 -120 -60 0 -60 0 0 60 0 60 -60 0 -60 0 0 -60
0 -60 -60 0 -60 0 0 60 0 60 -60 0 -60 0 0 -120 0 -120 60 0 60 0 0 -60 0 -60
120 0 120 0 0 -60 0 -60 60 0 60 0 0 60 0 60 -60 0 -60 0 0 60 0 60 240 0 240
0 0 60 0 60 -60 0 -60 0 0 60 0 60 180 0 180 0 0 -60 0 -60 -60 0 -60 0 0
-120 0 -120 60 0 60 0 0 -60 0 -60 -60 0 -60 0 0 -60 0 -60 60 0 60 0 0 -120
0 -120 -60 0 -60 0 0 -180 0 -180 60 0 60 0 0 60 0 60 60 0 60 0 0 60 0 60
-60 0 -60 0 0 60 0 60 180 0 180 0 0 -60 0 -60 -60 0 -60 0 0 -120 0 -120 -60
0 -60 0 0 -60 0 -60 -60 0 -60 0 0 -60 0 -60 120 0 120 0 0 60 0 60 120 0 120
0 0 -60 0 -60 60 0 60 0 0 60 0 60 -60 0 -60 0 0 180 0 180 60 0 60 0 0 -60 0
-60 60 0 60 0 0 60 0 60 -60 0 -60 0 0 60 0 60 120 0 120 0 0 -60 0 -60 60 0
60 0 0 -240 0 -240 240 0 240 0 0 60 0 60 60 0 60 0 0 60 0 60 120 0 120 0 0
120 0 120 180 0 180 0 0 -60 0 -60 -120 0 -120 0 0 -120 0 -120 -120 0 -120 0
0 -60 0 -60 120 0 120 0 0 60 0 60 120 0 120 0 0 -60 0 -60 60 0 60 0 0 60 0
60 60 0 60 0 0 120 0 120 60 0 60 0 0 -180 0 -180 60 0 60 0 0 60 0 60 180 0
180 0 0 -60 0 -60 120 0 120 0 0 60 0 60 120 0 120 0 0 -60 0 -60 60 0 60 0 0
60 0 60 120 0 120 0 0 -60 0 -60 60 0 60 0 0 180 0 180 60 0 60 0 0 -60 0 -60
60 0 60 0 0 -60 0 -60 -60 0 -60 0 0 -60 0 -60 120 0 120 0 0 120 0 120 120 0
120 0 0 60 0 60 60 0 60 0 0 -60 0 -60 120 0 120 0 0 120 0 120 60 0 60 0 0
60 0 60 60 0 60 0 0 -60 0 -60 60 0 60 0 0 120 0 120 -120 0 -120 0 0 -60 0
-60 -60 0 -60 0 0 120 0 120 180 0 180 0 0 180 0 180 -60 0 -60 0 0 -120 0
-120 -60 0 -60 0 0 60 0 60 -60 0 -60 0 0 180 0 180 60 0 60 0 0 -60 0 -60
120 0 120 0 0 60 0 60 -60 0 -60 0 0 60 0 60 60 0 60 0 0 60 0 60 -60 0 -60 0
0 -60 0 -60 -120 0 -120 0 0 60 0 60 60 0 60 0 0 60 0 60 120 0 120 0 0 120 0
120 -60 0 -60 0 0 -60 0 -60 -60 0 -60 0 0 60 0 60 -60 0 -60 0 0 -60 0 -60
-120 0 -120 0 0 120 0 120 120 0 120 0 0 60 0 60 -60 0 -60 0 0 60 0 60 240 0
240 0 0 60 0 60 -180 0 -180 0 0 60 0 60 -120 0 -120 0 0 60 0 60 60 0 60 0 0
60 0 60 60 0 60 0 0 -60 0 -60 180 0 180 0 0 120 0 120 -180 0 -180 0 0 120 0
120 -60 0 -60 0 0 120 0 120 60 0 60 0 0 -60 0 -60 60 0 60 0 0 -60 0 -60 120
0 120 0 0 60 0 60 -60 0 -60 0 0 60 0 60 60 0 60 0 0 60 0 60 -60 0 -60 0 0
-60 0 -60 -120 0 -120 0 0 60 0 60 60 0 60 0 0 60 0 60 120 0 120 0 0 120 0
120 -180 0 -180 0 0 60 0 60 60 0 60 0 0 60 0 60 120 0 120 0 0 180 0 180
-120 0 -120 0 0 60 0 60 120 0 120 0 0 180 0 180 -60 0 -60 0 0 60 0 60 60 0
60 0 0 120 0 120 -180 0 -180 0 0 -60 0 -60 -120 0 -120 0 0 60 0 60 -240 0
-240 0 0 60 0 60 60 0 60 0 0 60 0 60 -60 0 -60 0 0 -60 0 -60 -60 0 -60 0 0
240 0 240 60 0 60 0 0 -60 0 -60 60 0 60 0 0 60 0 60 -60 0 -60 0 0 120 0 120
-60 0 -60 0 0 60 0 60 -60 0 -60 0 0 -120 0 -120 60 0 60 0 0 -60 0 -60 -120
0 -120 0 0 60 0 60 -60 0 -60 0 0 -60 0 -60 60 0 60 0 0 -120 0 -120 60 0 60
0 0 -120 0 -120 -60 0 -60 0 0 60 0 60 -60 0 -60 0 0 60 0 60 -120 0 -120 0 0
60 0 60 60 0 60 0 0 60 0 60 -60 0 -60 0 0 60 0 60 60 0 60 0 0 60 0 60 60 0
60 0 0 60 0 60 -60 0 -60 0 0 -60 0 -60 -60 0 -60 0 0 60 0 60 -180 0 -180 0
0 -60 0 -60 -60 0 -60 0 0 60 0 60 -120 0 -120 0 0 -60 0 -60 120 0 120 0 0
-60 0 -60 -120 0 -120 0 0 -60 0 -60 -60 0 -60 0 0 120 0 120 -60 0 -60 0 0
60 0 60 -120 0 -120 0 0 -120 0 -120 60 0 60 0 0 -60 0 -60 60 0 60 0 0 -60 0
-60 -120 0 -120 0 0 60 0 60 -60 0 -60 0 0 60 0 60 -120 0 -120 0 0 60 0 60
-120 0 -120 0 0 -60 0 -60 -60 0 -60 0 0 -60 0 -60 120 0 120 0 0 60 0 60 60
0 60 0 0 -60 0 -60 60 0 60 0 0 -60 0 -60 -120 0 -120 0 0 -60 0 -60 -60 0
-60 0 0 60 0 60 -60 0 -60 0 0 -60 0 -60 -60 0 -60 0 0 120 0 120 -60 0 -60 0
0 -120 0 -120 -60 0 -60 0 0 60 0 60 -60 0 -60 0 0 180 0 180 60 0 60 0 0 -60
0 -60 120 0 120 0 0 60 0 60 60 0 60 0 0 60 0 60 -60 0 -60 0 0 -60 0 -60 -60
0 -60 0 0 60 0 60 -120 0 -120 0 0 -60 0 -60 -60 0 -60 0 0 -60 0 -60 -60 0
-60 0 0 120 0 120 -180 0 -180 0 0 -120 0 -120 -60 0 -60 0 0 120 0 120 -240
0 -240 0 0 -180z m360 0 l0 -60 60 0 60 0 0 -60 0 -60 60 0 60 0 0 60 0 60 60
0 60 0 0 60 0 60 60 0 60 0 0 -120 0 -120 60 0 60 0 0 -60 0 -60 120 0 120 0
0 -60 0 -60 -120 0 -120 0 0 60 0 60 -60 0 -60 0 0 -60 0 -60 -120 0 -120 0 0
60 0 60 -60 0 -60 0 0 -180 0 -180 60 0 60 0 0 60 0 60 60 0 60 0 0 -60 0 -60
-60 0 -60 0 0 -60 0 -60 60 0 60 0 0 -60 0 -60 60 0 60 0 0 -120 0 -120 60 0
60 0 0 -120 0 -120 120 0 120 0 0 60 0 60 60 0 60 0 0 -60 0 -60 -60 0 -60 0
0 -60 0 -60 -120 0 -120 0 0 60 0 60 -60 0 -60 0 0 -300 0 -300 -60 0 -60 0 0
-120 0 -120 -60 0 -60 0 0 120 0 120 -120 0 -120 0 0 -120 0 -120 60 0 60 0 0
-60 0 -60 60 0 60 0 0 -120 0 -120 120 0 120 0 0 -60 0 -60 60 0 60 0 0 -60 0
-60 60 0 60 0 0 60 0 60 60 0 60 0 0 60 c0 33 4 60 10 60 6 0 10 47 10 120 0
73 -4 120 -10 120 -6 0 -10 -27 -10 -60 l0 -60 -60 0 -60 0 0 -60 0 -60 -60 0
-60 0 0 60 0 60 -120 0 -120 0 0 60 0 60 60 0 60 0 0 120 0 120 60 0 60 0 0
-60 0 -60 60 0 60 0 0 60 0 60 60 0 60 0 0 60 0 60 -60 0 -60 0 0 60 0 60 -60
0 -60 0 0 60 0 60 60 0 60 0 0 60 0 60 240 0 240 0 0 60 0 60 -60 0 -60 0 0
120 0 120 60 0 60 0 0 60 0 60 60 0 60 0 0 120 0 120 60 0 60 0 0 60 0 60 -60
0 -60 0 0 60 0 60 -60 0 -60 0 0 -60 0 -60 -60 0 -60 0 0 60 0 60 -60 0 -60 0
0 -180 0 -180 60 0 60 0 0 -60 0 -60 -120 0 -120 0 0 120 0 120 -60 0 -60 0 0
-60 0 -60 -60 0 -60 0 0 60 0 60 60 0 60 0 0 60 0 60 -60 0 -60 0 0 60 0 60
-60 0 -60 0 0 60 0 60 60 0 60 0 0 -60 0 -60 60 0 60 0 0 60 0 60 60 0 60 0 0
-60 0 -60 60 0 60 0 0 60 0 60 60 0 60 0 0 60 0 60 60 0 60 0 0 -60 0 -60 60
0 60 0 0 -60 0 -60 60 0 60 0 0 60 0 60 60 0 60 0 0 -240 0 -240 120 0 120 0
0 60 0 60 120 0 120 0 0 -60 0 -60 60 0 60 0 0 60 0 60 60 0 60 0 0 -60 0 -60
-60 0 -60 0 0 -180 0 -180 60 0 60 0 0 120 0 120 60 0 60 0 0 120 0 120 60 0
60 0 0 60 0 60 -180 0 -180 0 0 120 0 120 60 0 60 0 0 -60 0 -60 60 0 60 0 0
120 0 120 180 0 180 0 0 60 0 60 -60 0 -60 0 0 60 0 60 120 0 120 0 0 60 0 60
60 0 60 0 0 -60 0 -60 120 0 120 0 0 -60 0 -60 -60 0 -60 0 0 -120 0 -120 60
0 60 0 0 -60 0 -60 -60 0 -60 0 0 -60 0 -60 -120 0 -120 0 0 -60 0 -60 -60 0
-60 0 0 60 0 60 -60 0 -60 0 0 -120 0 -120 60 0 60 0 0 -60 0 -60 -180 0 -180
0 0 -180 0 -180 -60 0 -60 0 0 -120 0 -120 60 0 60 0 0 -60 0 -60 60 0 60 0 0
-60 0 -60 -60 0 -60 0 0 60 0 60 -60 0 -60 0 0 -60 0 -60 -60 0 -60 0 0 60 0
60 60 0 60 0 0 60 0 60 -240 0 -240 0 0 -60 0 -60 120 0 120 0 0 -70 0 -70
333 0 c366 0 379 -2 439 -66 60 -65 61 -72 61 -491 l-1 -383 64 0 64 0 0 60 0
60 60 0 60 0 0 -60 0 -60 60 0 60 0 0 60 0 60 60 0 60 0 0 60 0 60 -120 0
-120 0 0 60 0 60 60 0 60 0 0 60 0 60 -60 0 -60 0 0 60 0 60 60 0 60 0 0 60 0
60 -60 0 -60 0 0 60 0 60 -60 0 -60 0 0 60 0 60 -120 0 -120 0 0 60 0 60 -60
0 -60 0 0 120 0 120 -60 0 -60 0 0 120 0 120 60 0 60 0 0 60 0 60 120 0 120 0
0 60 0 60 60 0 60 0 0 120 0 120 60 0 60 0 0 -60 0 -60 60 0 60 0 0 60 0 60
60 0 60 0 0 180 0 180 60 0 60 0 0 -120 0 -120 60 0 60 0 0 -60 0 -60 60 0 60
0 0 120 0 120 60 0 60 0 0 -120 0 -120 240 0 240 0 0 -60 0 -60 -240 0 -240 0
0 -60 0 -60 240 0 240 0 0 -120 0 -120 120 0 120 0 0 -60 0 -60 -120 0 -120 0
0 -60 0 -60 120 0 120 0 0 -60 0 -60 60 0 60 0 0 60 0 60 60 0 60 0 0 -60 0
-60 60 0 60 0 0 -60 0 -60 -60 0 -60 0 0 60 0 60 -60 0 -60 0 0 -60 0 -60 -60
0 -60 0 0 60 0 60 -120 0 -120 0 0 -120 0 -120 -60 0 -60 0 0 -60 0 -60 180 0
180 0 0 60 0 60 60 0 60 0 0 -60 0 -60 -60 0 -60 0 0 -60 0 -60 60 0 60 0 0
-60 0 -60 60 0 60 0 0 -60 0 -60 -60 0 -60 0 0 60 0 60 -60 0 -60 0 0 -60 0
-60 -60 0 -60 0 0 -60 0 -60 60 0 60 0 0 -60 0 -60 -120 0 -120 0 0 120 0 120
-60 0 -60 0 0 -120 0 -120 -120 0 -120 0 0 60 0 60 -60 0 -60 0 0 60 0 60 60
0 60 0 0 60 0 60 -60 0 -60 0 0 60 0 60 -60 0 -60 0 0 60 0 60 -60 0 -60 0 0
60 0 60 120 0 120 0 0 -120 0 -120 60 0 60 0 0 180 0 180 120 0 120 0 0 60 0
60 -180 0 -180 0 0 60 0 60 -60 0 -60 0 0 60 0 60 60 0 60 0 0 60 0 60 60 0
60 0 0 60 0 60 -120 0 -120 0 0 120 0 120 -60 0 -60 0 0 60 0 60 -60 0 -60 0
0 -120 0 -120 60 0 60 0 0 -60 0 -60 -60 0 -60 0 0 -60 0 -60 -60 0 -60 0 0
-60 0 -60 60 0 60 0 0 -60 0 -60 -60 0 -60 0 0 -60 0 -60 120 0 120 0 0 -60 0
-60 -120 0 -120 0 0 -60 0 -60 60 0 60 0 0 -60 0 -60 -60 0 -60 0 0 -60 0 -60
120 0 120 0 0 -60 0 -60 -60 0 -60 0 0 -60 0 -60 60 0 60 0 0 -60 0 -60 60 0
60 0 0 -60 0 -60 60 0 60 0 0 -60 0 -60 -60 0 -60 0 0 60 0 60 -60 0 -60 0 0
-120 0 -120 120 0 120 0 0 -60 0 -60 60 0 60 0 0 -60 0 -60 -60 0 -60 0 0 -60
0 -60 180 0 180 0 0 -60 0 -60 60 0 60 0 0 -60 0 -60 60 0 60 0 0 -60 0 -60
60 0 60 0 0 -60 0 -60 -180 0 -180 0 0 -60 0 -60 60 0 60 0 0 -60 0 -60 -120
0 -120 0 0 -60 0 -60 120 0 120 0 0 -120 0 -120 60 0 60 0 0 -60 0 -60 -180 0
-180 0 0 60 0 60 60 0 60 0 0 60 0 60 -60 0 -60 0 0 60 0 60 -60 0 -60 0 0
-120 0 -120 -60 0 -60 0 0 -120 0 -120 60 0 60 0 0 -180 0 -180 -120 0 -120 0
0 -60 0 -60 -60 0 -60 0 0 -180 0 -180 -60 0 -60 0 0 60 0 60 -120 0 -120 0 0
120 0 120 60 0 60 0 0 120 0 120 -60 0 -60 0 0 -60 0 -60 -60 0 -60 0 0 -60 0
-60 -120 0 -120 0 0 -120 0 -120 120 0 120 0 0 -60 0 -60 120 0 120 0 0 -60 0
-60 120 0 120 0 0 -60 0 -60 60 0 60 0 0 -60 0 -60 -240 0 -240 0 0 60 0 60
60 0 60 0 0 60 0 60 -240 0 -240 0 0 120 0 120 -60 0 -60 0 0 60 0 60 -120 0
-120 0 0 -60 0 -60 -60 0 -60 0 0 -60 0 -60 -60 0 -60 0 0 120 0 120 -60 0
-60 0 0 60 0 60 -180 0 -180 0 0 60 0 60 -60 0 -60 0 0 -60 0 -60 -60 0 -60 0
0 -60 0 -60 -60 0 -60 0 0 -60 0 -60 60 0 60 0 0 -120 0 -120 -60 0 -60 0 0
-60 0 -60 -60 0 -60 0 0 -120 0 -120 -60 0 -60 0 0 60 0 60 -120 0 -120 0 0
-60 0 -60 -60 0 -60 0 0 60 0 60 60 0 60 0 0 60 0 60 -120 0 -120 0 0 60 0 60
-60 0 -60 0 0 60 0 60 -120 0 -120 0 0 -60 0 -60 -120 0 -120 0 0 60 0 60
-120 0 -120 0 0 60 0 60 60 0 60 0 0 120 0 120 -120 0 -120 0 0 120 0 120 60
0 60 0 0 60 0 60 60 0 60 0 0 60 0 60 -300 0 -300 0 0 -60 0 -60 -60 0 -60 0
0 60 0 60 -60 0 -60 0 0 60 0 60 60 0 60 0 0 60 0 60 -60 0 -60 0 0 60 0 60
60 0 60 0 0 -60 0 -60 60 0 60 0 0 60 0 60 60 0 60 0 0 60 0 60 -120 0 -120 0
0 60 0 60 -60 0 -60 0 0 60 0 60 120 0 120 0 0 60 0 60 60 0 60 0 0 60 0 60
-60 0 -60 0 0 60 0 60 -60 0 -60 0 0 120 0 120 240 0 240 0 0 -60 0 -60 60 0
60 0 0 60 0 60 120 0 120 0 0 120 0 120 -120 0 -120 0 0 -60 0 -60 -60 0 -60
0 0 120 0 120 180 0 180 0 0 60 0 60 -60 0 -60 0 0 120 0 120 -60 0 -60 0 0
-120 0 -120 -60 0 -60 0 0 60 0 60 -60 0 -60 0 0 60 0 60 -60 0 -60 0 0 -60 0
-60 -180 0 -180 0 0 60 0 60 60 0 60 0 0 180 0 180 -60 0 -60 0 0 -120 0 -120
-60 0 -60 0 0 240 0 240 60 0 60 0 0 -60 0 -60 60 0 60 0 0 60 0 60 60 0 60 0
0 60 0 60 -60 0 -60 0 0 60 0 60 60 0 60 0 0 60 0 60 120 0 120 0 0 60 0 60
60 0 60 0 0 60 0 60 60 0 60 0 0 -60 0 -60 -60 0 -60 0 0 -60 0 -60 120 0 120
0 0 -60 0 -60 -60 0 -60 0 0 -60 0 -60 -60 0 -60 0 0 -60 0 -60 120 0 120 0 0
60 0 60 60 0 60 0 0 60 0 60 60 0 60 0 0 60 0 60 60 0 60 0 0 120 0 120 -60 0
-60 0 0 60 0 60 -60 0 -60 0 0 -60 0 -60 -60 0 -60 0 0 120 0 120 -60 0 -60 0
0 60 0 60 -120 0 -120 0 0 60 0 60 120 0 120 0 0 -60 0 -60 60 0 60 0 0 120 0
120 60 0 60 0 0 60 0 60 -60 0 -60 0 0 180 0 180 -60 0 -60 0 0 60 0 60 -60 0
-60 0 0 120 0 120 120 0 120 0 0 -60z m3240 0 l0 -60 -60 0 -60 0 0 60 0 60
60 0 60 0 0 -60z m-1200 -600 l0 -180 -180 0 -180 0 0 180 0 180 180 0 180 0
0 -180z m2520 -540 l0 -120 -60 0 -60 0 0 120 0 120 60 0 60 0 0 -120z m240
-60 l0 -60 60 0 60 0 0 -60 0 -60 -60 0 -60 0 0 60 0 60 -60 0 -60 0 0 60 0
60 60 0 60 0 0 -60z m-5640 -420 l0 -120 -120 0 -120 0 0 60 0 60 60 0 60 0 0
60 0 60 60 0 60 0 0 -120z m3840 -660 l0 -60 -60 0 -60 0 0 60 0 60 60 0 60 0
0 -60z m0 -240 l0 -60 -60 0 -60 0 0 60 0 60 60 0 60 0 0 -60z m-3840 -420 l0
-120 -60 0 -60 0 0 -60 0 -60 -60 0 -60 0 0 60 0 60 60 0 60 0 0 60 0 60 -60
0 -60 0 0 60 0 60 120 0 120 0 0 -120z m480 -60 l0 -180 -180 0 -180 0 0 180
0 180 180 0 180 0 0 -180z m4800 0 l0 -180 -180 0 -180 0 0 180 0 180 180 0
180 0 0 -180z m-5160 -720 l0 -60 -60 0 -60 0 0 60 0 60 60 0 60 0 0 -60z
m5400 -720 l0 -60 -60 0 -60 0 0 60 0 60 60 0 60 0 0 -60z m0 -240 l0 -60
-180 0 -180 0 0 -60 0 -60 120 0 120 0 0 -60 0 -60 -60 0 -60 0 0 -60 0 -60
-60 0 -60 0 0 60 0 60 -60 0 -60 0 0 -60 0 -60 -60 0 -60 0 0 240 0 240 300 0
300 0 0 -60z m-5640 -240 l0 -60 -60 0 -60 0 0 60 0 60 60 0 60 0 0 -60z
m4920 -480 l0 -300 60 0 60 0 0 -60 0 -60 -120 0 -120 0 0 120 0 120 -60 0
-60 0 0 120 0 120 60 0 60 0 0 120 0 120 60 0 60 0 0 -300z m-1920 0 l0 -180
-180 0 -180 0 0 180 0 180 180 0 180 0 0 -180z m2400 0 l0 -180 -180 0 -180 0
0 180 0 180 180 0 180 0 0 -180z m-1680 -300 l0 -120 -180 0 -180 0 0 120 0
120 180 0 180 0 0 -120z m1920 60 l0 -60 -60 0 -60 0 0 -60 0 -60 -60 0 -60 0
0 60 0 60 60 0 60 0 0 60 0 60 60 0 60 0 0 -60z m-2520 -120 l0 -60 -60 0 -60
0 0 60 0 60 60 0 60 0 0 -60z m2160 0 l0 -60 -60 0 -60 0 0 60 0 60 60 0 60 0
0 -60z m-1320 -240 l0 -60 -120 0 -120 0 0 60 0 60 120 0 120 0 0 -60z"/>
<path d="M2040 6420 l0 -60 60 0 60 0 0 60 0 60 -60 0 -60 0 0 -60z"/>
<path d="M4680 6420 l0 -60 60 0 60 0 0 60 0 60 -60 0 -60 0 0 -60z"/>
<path d="M4680 6180 l0 -60 -60 0 -60 0 0 -60 0 -60 60 0 60 0 0 60 0 60 60 0
60 0 0 -60 0 -60 60 0 60 0 0 60 0 60 -60 0 -60 0 0 60 0 60 -60 0 -60 0 0
-60z"/>
<path d="M2880 6060 l0 -60 60 0 60 0 0 60 0 60 -60 0 -60 0 0 -60z"/>
<path d="M4320 6000 l0 -120 60 0 60 0 0 120 0 120 -60 0 -60 0 0 -120z"/>
<path d="M2520 5940 l0 -60 60 0 60 0 0 60 0 60 -60 0 -60 0 0 -60z"/>
<path d="M5520 5700 l0 -60 60 0 60 0 0 60 0 60 -60 0 -60 0 0 -60z"/>
<path d="M2040 5520 l0 -120 60 0 60 0 0 -60 0 -60 60 0 60 0 0 120 0 120 -60
0 -60 0 0 60 0 60 -60 0 -60 0 0 -120z"/>
<path d="M3240 5520 l0 -120 120 0 120 0 0 -60 0 -60 -120 0 -120 0 0 -120 0
-120 -120 0 -120 0 0 -120 0 -120 -120 0 -120 0 0 60 0 60 -60 0 -60 0 0 -120
0 -120 120 0 c73 0 120 -4 120 -10 0 -6 27 -10 60 -10 l60 0 0 70 0 70 60 0
60 0 0 -60 0 -60 60 0 c33 0 60 -4 60 -10 0 -6 27 -10 60 -10 33 0 60 4 60 10
0 6 47 10 120 10 l120 0 0 60 0 60 -120 0 -120 0 0 -60 0 -60 -60 0 -60 0 0
60 0 60 -60 0 -60 0 0 60 0 60 180 0 180 0 0 60 0 60 60 0 60 0 0 60 0 60 60
0 60 0 0 60 0 60 60 0 60 0 0 -120 0 -120 60 0 60 0 0 120 0 120 -60 0 -60 0
0 180 0 180 -120 0 -120 0 0 -60 0 -60 -120 0 -120 0 0 60 0 60 -60 0 -60 0 0
-120z m480 -180 l0 -60 -60 0 -60 0 0 -60 0 -60 -60 0 -60 0 0 60 0 60 60 0
60 0 0 60 0 60 60 0 60 0 0 -60z"/>
<path d="M5040 5580 l0 -60 60 0 60 0 0 -60 0 -60 60 0 60 0 0 60 0 60 -60 0
-60 0 0 60 0 60 -60 0 -60 0 0 -60z"/>
<path d="M4680 5340 l0 -60 -60 0 -60 0 0 -180 0 -180 60 0 60 0 0 -60 0 -60
60 0 60 0 0 -60 0 -60 60 0 60 0 0 -60 0 -60 120 0 120 0 0 60 0 60 -60 0 -60
0 0 180 0 180 60 0 60 0 0 60 0 60 -60 0 -60 0 0 120 0 120 -180 0 -180 0 0
-60z m120 -240 l0 -60 60 0 60 0 0 60 0 60 60 0 60 0 0 -60 0 -60 -60 0 -60 0
0 -60 0 -60 -120 0 -120 0 0 120 0 120 60 0 60 0 0 -60z"/>
<path d="M5880 5220 l0 -180 60 0 60 0 0 180 0 180 -60 0 -60 0 0 -180z"/>
<path d="M3000 5220 l0 -60 60 0 60 0 0 60 0 60 -60 0 -60 0 0 -60z"/>
<path d="M5640 5100 l0 -60 60 0 60 0 0 60 0 60 -60 0 -60 0 0 -60z"/>
<path d="M1200 4860 l0 -60 60 0 60 0 0 -60 0 -60 -60 0 -60 0 0 -60 0 -60
-60 0 -60 0 0 -60 0 -60 60 0 60 0 0 -60 0 -60 60 0 60 0 0 60 0 60 -60 0 -60
0 0 60 0 60 60 0 60 0 0 60 0 60 60 0 60 0 0 60 0 60 60 0 60 0 0 60 0 60
-180 0 -180 0 0 -60z"/>
<path d="M2040 4740 l0 -60 60 0 60 0 0 60 0 60 -60 0 -60 0 0 -60z"/>
<path d="M1560 4500 l0 -60 -60 0 -60 0 0 -60 0 -60 60 0 60 0 0 -60 0 -60
-60 0 -60 0 0 -60 0 -60 120 0 120 0 0 120 0 120 60 0 60 0 0 -60 0 -60 60 0
60 0 0 60 0 60 -60 0 -60 0 0 60 0 60 -60 0 -60 0 0 60 0 60 -60 0 -60 0 0
-60z"/>
<path d="M5880 4500 l0 -60 -60 0 -60 0 0 -60 0 -60 60 0 60 0 0 60 0 60 60 0
60 0 0 60 0 60 -60 0 -60 0 0 -60z"/>
<path d="M6120 4380 l0 -60 120 0 120 0 0 60 0 60 -120 0 -120 0 0 -60z"/>
<path d="M2400 4260 l0 -60 60 0 60 0 0 60 0 60 -60 0 -60 0 0 -60z"/>
<path d="M1200 4140 l0 -60 60 0 60 0 0 60 0 60 -60 0 -60 0 0 -60z"/>
<path d="M5160 4080 l0 -120 120 0 120 0 0 60 0 60 -60 0 -60 0 0 60 0 60 -60
0 -60 0 0 -120z"/>
<path d="M1920 3960 l0 -120 60 0 60 0 0 120 0 120 -60 0 -60 0 0 -120z"/>
<path d="M2160 3900 l0 -60 60 0 60 0 0 -60 0 -60 -180 0 -180 0 0 -60 0 -60
60 0 60 0 0 -60 0 -60 120 0 120 0 0 -60 0 -60 120 0 120 0 0 -180 0 -180 60
0 60 0 0 60 c0 33 4 60 10 60 6 0 10 27 10 60 0 33 -4 60 -10 60 -6 0 -10 27
-10 60 0 33 4 60 10 60 6 0 10 67 10 180 0 113 -4 180 -10 180 -6 0 -10 -47
-10 -120 l0 -120 -180 0 -180 0 0 120 0 120 60 0 60 0 0 -60 0 -60 60 0 60 0
0 60 0 60 -60 0 -60 0 0 60 0 60 -60 0 -60 0 0 60 0 60 -60 0 -60 0 0 -60z"/>
<path d="M4800 3660 l0 -60 60 0 60 0 0 -60 0 -60 -125 0 -125 0 0 -60 0 -60
65 0 65 0 0 -120 0 -120 60 0 60 0 0 -60 0 -60 -120 0 -120 0 0 -60 0 -60 120
0 120 0 0 -60 0 -60 -134 0 -133 0 -47 -46 c-25 -26 -46 -52 -46 -59 0 -10
-45 -12 -207 -10 -115 2 -250 1 -300 -2 l-93 -6 0 -58 0 -59 60 0 60 0 0 60 0
60 60 0 60 0 0 -120 0 -120 120 0 120 0 0 60 0 60 60 0 60 0 0 -120 0 -120 60
0 60 0 0 -180 0 -180 -120 0 -120 0 0 -60 0 -60 -60 0 -60 0 0 120 0 120 120
0 120 0 0 60 0 60 -60 0 -60 0 0 60 0 60 -60 0 -60 0 0 -60 0 -60 -60 0 -60 0
0 -180 0 -180 -60 0 -60 0 0 -60 0 -60 -60 0 -60 0 0 -60 0 -60 60 0 60 0 0
-60 0 -60 60 0 60 0 0 60 0 60 240 0 240 0 0 60 0 60 60 0 60 0 0 120 0 120
60 0 60 0 0 -60 0 -60 60 0 60 0 0 60 0 60 120 0 120 0 0 -120 0 -120 120 0
120 0 0 60 0 60 60 0 60 0 0 60 0 60 -60 0 -60 0 0 120 0 120 -60 0 -60 0 0
60 0 60 120 0 120 0 0 60 0 60 -60 0 -60 0 0 120 0 120 -180 0 -180 0 0 -60 0
-60 120 0 120 0 0 -120 0 -120 -60 0 -60 0 0 -60 0 -60 -60 0 -60 0 0 60 0 60
-60 0 -60 0 0 360 0 360 60 0 60 0 0 60 0 60 60 0 60 0 0 -60 0 -60 60 0 60 0
0 60 0 60 -60 0 -60 0 0 60 0 60 120 0 120 0 0 -60 0 -60 60 0 60 0 0 -60 0
-60 60 0 60 0 0 -120 0 -120 60 0 60 0 0 60 0 60 60 0 60 0 0 60 0 60 60 0 60
0 0 60 0 60 -120 0 -120 0 0 60 0 60 -180 0 -180 0 0 60 0 60 -120 0 -120 0 0
60 0 60 120 0 120 0 0 60 0 60 -60 0 -60 0 0 60 0 60 -60 0 -60 0 0 -60 0 -60
-60 0 -60 0 0 60 0 60 -60 0 -60 0 0 -60 0 -60 -60 0 -60 0 0 60 0 60 -60 0
-60 0 0 -60z m360 -240 l0 -180 -60 0 -60 0 0 -60 0 -60 -60 0 -60 0 0 60 0
60 60 0 60 0 0 60 0 60 -60 0 -60 0 0 60 0 60 60 0 60 0 0 60 0 60 60 0 60 0
0 -180z m720 -360 l0 -60 -60 0 -60 0 0 60 0 60 60 0 60 0 0 -60z m-960 -480
l0 -60 -180 0 -180 0 0 60 0 60 180 0 180 0 0 -60z m-120 -240 l0 -60 -60 0
-60 0 0 60 0 60 60 0 60 0 0 -60z m120 -240 l0 -60 60 0 60 0 0 60 0 60 60 0
60 0 0 -60 0 -60 -60 0 -60 0 0 -60 0 -60 -60 0 -60 0 0 60 0 60 -60 0 -60 0
0 60 0 60 60 0 60 0 0 -60z m480 -120 l0 -60 -60 0 -60 0 0 60 0 60 60 0 60 0
0 -60z m-1080 -240 l0 -60 -60 0 -60 0 0 -60 0 -60 -60 0 -60 0 0 60 0 60 60
0 60 0 0 60 0 60 60 0 60 0 0 -60z m360 0 l0 -60 -120 0 -120 0 0 60 0 60 120
0 120 0 0 -60z"/>
<path d="M1920 3300 l0 -60 -60 0 -60 0 0 -60 0 -60 -120 0 -120 0 0 -60 0
-60 -60 0 -60 0 0 60 0 60 -60 0 -60 0 0 60 0 60 -60 0 -60 0 0 -60 0 -60 60
0 60 0 0 -60 0 -60 60 0 60 0 0 -60 0 -60 -60 0 -60 0 0 -60 0 -60 -60 0 -60
0 0 -60 0 -60 60 0 60 0 0 -60 0 -60 180 0 180 0 0 60 0 60 -60 0 -60 0 0 60
0 60 -60 0 -60 0 0 60 0 60 120 0 120 0 0 -60 0 -60 120 0 120 0 0 60 0 60 60
0 60 0 0 -60 0 -60 60 0 60 0 0 120 0 120 60 0 60 0 0 -60 0 -60 60 0 60 0 0
120 0 120 -120 0 -120 0 0 60 0 60 -60 0 -60 0 0 60 0 60 -60 0 -60 0 0 -60z
m120 -120 l0 -60 60 0 60 0 0 -60 0 -60 -60 0 -60 0 0 60 0 60 -60 0 -60 0 0
-60 0 -60 -60 0 -60 0 0 60 0 60 60 0 60 0 0 60 0 60 60 0 60 0 0 -60z"/>
<path d="M4673 3180 c0 -36 2 -50 4 -32 2 17 2 47 0 65 -2 17 -4 3 -4 -33z"/>
<path d="M2520 2820 l0 -60 -120 0 -120 0 0 -60 0 -60 60 0 60 0 0 -120 0
-120 -180 0 -180 0 0 -60 0 -60 -60 0 -60 0 0 60 0 60 -120 0 -120 0 0 -60 0
-60 -60 0 -60 0 0 60 0 60 -60 0 -60 0 0 -120 0 -120 180 0 180 0 0 60 0 60
60 0 60 0 0 -60 0 -60 60 0 60 0 0 -60 0 -60 120 0 120 0 0 60 0 60 60 0 60 0
0 -180 0 -180 120 0 120 0 0 -60 0 -60 -120 0 -120 0 0 -60 0 -60 120 0 120 0
0 60 0 60 60 0 60 0 0 60 0 60 -60 0 -60 0 0 60 0 60 -60 0 -60 0 0 120 0 120
60 0 60 0 0 -60 0 -60 120 0 120 0 0 -60 0 -60 120 0 120 0 0 -60 0 -60 -120
0 -120 0 0 -120 0 -120 -60 0 -60 0 0 -60 0 -60 -300 0 -300 0 0 60 0 60 60 0
60 0 0 60 0 60 -180 0 -180 0 0 -120 0 -120 120 0 120 0 0 -60 0 -60 -120 0
-120 0 0 -60 0 -60 120 0 120 0 0 60 0 60 300 0 300 0 0 60 0 60 60 0 60 0 0
-60 0 -60 60 0 60 0 0 120 0 120 60 0 60 0 0 -60 0 -60 60 0 60 0 0 120 0 120
60 0 60 0 0 60 0 60 60 0 60 0 0 60 0 60 -60 0 -60 0 0 120 0 120 60 0 60 0 0
-60 0 -60 60 0 60 0 0 -60 0 -60 60 0 60 0 0 -60 0 -60 -60 0 -60 0 0 -60 0
-60 60 0 60 0 0 60 0 60 60 0 60 0 0 60 0 60 -60 0 -60 0 0 60 0 60 60 0 60 0
0 60 0 60 60 0 60 0 0 -60 0 -60 60 0 60 0 0 180 0 180 -120 0 -120 0 0 -60 0
-60 -240 0 -240 0 0 60 0 60 120 0 120 0 0 120 0 120 60 0 60 0 0 -60 0 -60
60 0 60 0 0 65 0 65 -88 0 c-49 0 -130 -3 -180 -6 l-92 -7 0 -58 0 -59 -60 0
-60 0 0 60 0 60 -120 0 -120 0 0 -120 0 -120 60 0 60 0 0 -60 0 -60 60 0 60 0
0 -60 0 -60 -180 0 -180 0 0 180 0 180 -60 0 -60 0 0 -180 0 -180 -120 0 -120
0 0 60 0 60 -120 0 -120 0 0 60 0 60 120 0 120 0 0 120 0 120 60 0 c51 0 60 3
60 18 -1 24 -77 102 -100 102 -18 0 -20 7 -20 60 l0 60 -60 0 -60 0 0 -60z
m840 -360 l0 -60 -60 0 -60 0 0 60 0 60 60 0 60 0 0 -60z m-1080 -240 l0 -60
-60 0 -60 0 0 60 0 60 60 0 60 0 0 -60z m1080 -360 l0 -60 -60 0 -60 0 0 60 0
60 60 0 60 0 0 -60z"/>
<path d="M5520 2820 l0 -60 60 0 60 0 0 60 0 60 -60 0 -60 0 0 -60z"/>
<path d="M1800 2580 l0 -60 120 0 120 0 0 60 0 60 -120 0 -120 0 0 -60z"/>
<path d="M5640 2580 l0 -60 60 0 60 0 0 60 0 60 -60 0 -60 0 0 -60z"/>
<path d="M1200 2220 l0 -60 60 0 60 0 0 60 0 60 -60 0 -60 0 0 -60z"/>
<path d="M5160 1500 l0 -60 60 0 60 0 0 60 0 60 -60 0 -60 0 0 -60z"/>
<path d="M3120 1140 l0 -60 60 0 60 0 0 60 0 60 -60 0 -60 0 0 -60z"/>
<path d="M2760 1020 l0 -60 60 0 60 0 0 60 0 60 -60 0 -60 0 0 -60z"/>
<path d="M3600 6060 l0 -60 60 0 60 0 0 60 0 60 -60 0 -60 0 0 -60z"/>
<path d="M1200 3660 l0 -60 60 0 60 0 0 60 0 60 -60 0 -60 0 0 -60z"/>
<path d="M6000 3660 l0 -60 60 0 60 0 0 60 0 60 -60 0 -60 0 0 -60z"/>
<path d="M3600 1260 l0 -60 60 0 60 0 0 60 0 60 -60 0 -60 0 0 -60z"/>
<path d="M6000 1260 l0 -60 60 0 60 0 0 60 0 60 -60 0 -60 0 0 -60z"/>
<path d="M6000 6420 l0 -420 420 0 420 0 0 420 0 420 -420 0 -420 0 0 -420z
m720 0 l0 -300 -300 0 -300 0 0 300 0 300 300 0 300 0 0 -300z"/>
<path d="M6240 6420 l0 -180 180 0 180 0 0 180 0 180 -180 0 -180 0 0 -180z"/>
<path d="M720 5820 l0 -60 180 0 180 0 0 60 0 60 -180 0 -180 0 0 -60z"/>
<path d="M1200 1500 l0 -60 60 0 60 0 0 60 0 60 -60 0 -60 0 0 -60z"/>
<path d="M480 900 l0 -420 420 0 420 0 0 420 0 420 -420 0 -420 0 0 -420z
m720 0 l0 -300 -300 0 -300 0 0 300 0 300 300 0 300 0 0 -300z"/>
<path d="M720 900 l0 -180 180 0 180 0 0 180 0 180 -180 0 -180 0 0 -180z"/>
<path d="M6600 660 l0 -60 -60 0 -60 0 0 -60 0 -60 60 0 60 0 0 60 0 60 60 0
60 0 0 60 0 60 -60 0 -60 0 0 -60z"/>
<path d="M2280 540 l0 -60 60 0 60 0 0 60 0 60 -60 0 -60 0 0 -60z"/>
<path d="M6000 540 l0 -60 120 0 120 0 0 60 0 60 -120 0 -120 0 0 -60z"/>
</g>
</svg>
