<svg width="1158" height="329" viewBox="0 0 1158 329" fill="none" xmlns="http://www.w3.org/2000/svg">
<g clip-path="url(#clip0_151_41)">
<path d="M515.1 98.1001C539.6 98.1001 562.8 113.1 567.7 145.5H458.5C463.1 117.1 484.4 98.1001 515.1 98.1001ZM564.299 193.5C555.999 206.5 539.799 216.5 517.799 216.5C487.399 216.5 464.2 199.8 458.6 170.4H595.6C596.3 166.2 596.6 161.9 596.6 157.6C596.6 111.8 564.6 71.3 515.2 71.3C464.2 71.3 429.5 108.9 429.5 157.3C429.5 206.3 464.5 243.3 517.1 243.3C549.8 243.3 574.6 228.6 589 206.4L564.299 193.5Z" fill="#231F20"/>
<path d="M416 0.299805H387.6V239H416V0.299805Z" fill="#231F20"/>
<path d="M754.8 138.6V239H726.4V140.3C726.4 113.5 711 98.4 685.9 98.4C659.7 98.4 638.5 113.8 638.5 152.3V238.9H610V75.4H638.4V98.9C650.5 79.6 668.5 71.1 691.4 71.1C729.6 71.3 754.8 96.8 754.8 138.6Z" fill="#231F20"/>
<path d="M911.7 157.3C911.7 123.9 886.5 98.8 853.5 98.8C820.8 98.8 795.6 124 795.6 157.3C795.6 190.6 820.8 215.8 853.5 215.8C886.5 215.8 911.7 190.6 911.7 157.3ZM940.1 0.299805V239H911.7V210.9C898.6 230.8 877.7 243.3 849.9 243.3C804.5 243.3 767.2 205.7 767.2 157.3C767.2 108.9 804.5 71.3 849.9 71.3C877.7 71.3 898.6 83.7 911.7 103.7V0.399704H940.1V0.299805Z" fill="#231F20"/>
<path d="M991.4 0.299805H963V239H991.4V0.299805Z" fill="#231F20"/>
<path d="M336.899 157.3C336.899 123.9 311.7 98.8 278.7 98.8C246 98.8 220.799 124 220.799 157.3C220.799 190.6 246 215.8 278.7 215.8C311.7 215.8 336.899 190.6 336.899 157.3ZM365.299 75.5V239H336.899V210.9C323.799 230.8 302.9 243.3 275.1 243.3C229.7 243.3 192.399 205.7 192.399 157.3C192.399 108.9 229.7 71.3 275.1 71.3C302.9 71.3 323.799 83.7 336.899 103.7V75.6001H365.299V75.5Z" fill="#231F20"/>
<path d="M150.2 207.6C135.8 212.9 120.099 214.4 104.799 211.8C81.4989 207.9 61.0989 195.1 47.3989 175.8C33.6989 156.5 28.2999 133.1 32.1999 109.8C36.0999 86.5 48.8999 66.1 68.1999 52.4C87.4999 38.6996 110.9 33.2998 134.2 37.2998C149.5 39.8998 163.8 46.3997 175.7 56.2C180.7 60.3 185.2 65 189.2 70.1L213.799 52.1C208.299 44.8998 202 38.2997 195.1 32.6997C179.1 19.4997 159.799 10.6997 139.299 7.1997C107.999 1.8997 76.3999 9.09971 50.4999 27.4997C24.5999 45.8997 7.39992 73.3 2.09992 104.7C-8.80007 169.4 34.8999 230.9 99.5999 241.9C106.1 243 112.8 243.6 119.5 243.6C133.7 243.6 147.5 241.1 160.7 236.2C171.9 232.1 182.5 226.1 192.1 218.8L175.7 192.9C168.1 199.1 159.4 204.2 150.2 207.6Z" fill="#231F20"/>
<path d="M1128.8 75.5V168.3C1128.8 198.3 1111.3 217.3 1084.7 217.3C1058.1 217.3 1038.8 198.3 1038.8 168.3V75.5H1010V165.5C1010 212.7 1039.4 243.3 1084.7 243.3C1123.9 243.3 1130 218.5 1130 217.9V251.3C1130 284.4 1115.6 303 1085.6 303C1063 303 1044.4 286.3 1041.6 264.8L1015.9 273.8C1023.3 305.4 1051.5 329 1085.6 329C1132.1 329 1157.6 298.4 1157.6 251.2V75.4H1128.8V75.5Z" fill="#231F20"/>
</g>
<defs>
<clipPath id="clip0_151_41">
<rect width="1158" height="329" fill="white"/>
</clipPath>
</defs>
</svg>
