<?xml version="1.0" standalone="no"?>
<!DOCTYPE svg PUBLIC "-//W3C//DTD SVG 20010904//EN"
 "http://www.w3.org/TR/2001/REC-SVG-20010904/DTD/svg10.dtd">
<svg version="1.0" xmlns="http://www.w3.org/2000/svg"
 width="3904.000000pt" height="1088.000000pt" viewBox="0 0 3904.000000 1088.000000"
 preserveAspectRatio="xMidYMid meet">
<metadata>
Created by potrace 1.16, written by Peter Selinger 2001-2019
</metadata>
<g transform="translate(0.000000,1088.000000) scale(0.100000,-0.100000)"
fill="#000000" stroke="none">
<path d="M0 5440 l0 -5440 19520 0 19520 0 0 5440 0 5440 -19520 0 -19520 0 0
-5440z m8968 3803 l2 -663 -2597 -2 -2598 -3 -64 -23 c-126 -46 -221 -126
-265 -225 -43 -97 -46 -109 -52 -210 -11 -179 30 -322 124 -428 50 -56 179
-123 266 -138 40 -8 667 -11 1931 -11 1107 0 1924 -4 1998 -10 425 -32 751
-151 1037 -378 65 -52 90 -78 161 -167 102 -127 152 -210 212 -350 86 -204
128 -389 147 -645 42 -606 -119 -1108 -473 -1468 -233 -237 -597 -418 -949
-471 -270 -41 -349 -42 -3103 -39 l-2650 3 -3 658 -2 657 2677 0 c2914 0 2751
-3 2869 55 109 53 189 158 227 295 56 200 2 437 -125 555 -50 48 -149 100
-222 118 -27 7 -729 13 -2046 17 l-2005 5 -115 23 c-63 12 -135 29 -160 36
-25 8 -79 24 -120 36 -91 27 -227 87 -336 150 -302 174 -508 435 -629 795 -62
187 -88 339 -100 580 -6 133 14 434 36 525 77 327 152 502 301 700 99 133 201
237 308 315 41 30 80 58 85 62 50 37 189 106 290 145 44 16 88 34 98 39 9 5
45 16 80 25 34 8 78 19 97 24 53 13 131 30 165 35 17 3 57 10 90 17 45 9 713
13 2670 17 1436 3 2639 6 2675 6 l65 0 3 -662z m6942 7 c3 -358 4 -655 2 -660
-3 -7 -966 -10 -2853 -10 l-2849 0 0 658 c0 362 2 661 4 663 2 2 1284 3 2848
1 l2843 -2 5 -650z m2435 558 c49 -51 131 -140 180 -197 50 -58 117 -134 151
-170 34 -36 104 -116 157 -177 52 -61 131 -149 174 -195 43 -46 89 -97 102
-114 12 -16 48 -57 79 -91 32 -33 102 -111 157 -174 55 -62 156 -176 225 -253
69 -76 180 -203 248 -281 68 -77 156 -177 196 -221 40 -44 108 -120 152 -169
43 -50 113 -126 154 -171 41 -45 111 -123 155 -175 44 -52 116 -133 160 -180
44 -47 115 -127 157 -177 43 -49 115 -131 160 -180 46 -49 162 -179 258 -289
96 -109 204 -230 240 -269 113 -123 209 -231 232 -261 l23 -29 5 1935 5 1935
680 -3 c374 -2 682 -6 685 -9 7 -7 11 -5834 4 -5861 l-6 -22 -678 0 -679 0
-158 173 c-193 209 -507 558 -548 609 -17 20 -77 89 -135 153 -58 64 -117 132
-132 151 -14 19 -69 81 -120 137 -52 56 -130 143 -173 192 -44 50 -123 137
-176 195 -53 58 -132 146 -175 196 -43 51 -133 151 -199 224 -66 73 -145 161
-175 196 -30 34 -100 112 -155 171 -55 60 -152 167 -215 239 -63 71 -146 163
-185 204 -83 90 -322 358 -496 556 -218 249 -329 373 -339 379 -7 4 -10 -645
-10 -1884 l0 -1891 -685 0 -685 0 0 2948 0 2947 647 -2 647 -2 91 -93z m7213
88 c6 -4 58 -60 114 -124 56 -64 121 -137 144 -162 123 -135 323 -362 502
-569 46 -53 126 -141 176 -196 51 -55 128 -140 171 -190 43 -49 118 -133 166
-185 48 -52 124 -138 170 -192 46 -53 122 -138 168 -190 46 -51 145 -162 220
-247 138 -156 182 -206 327 -366 98 -110 281 -316 514 -580 96 -109 200 -226
230 -259 30 -34 163 -182 295 -331 l240 -269 5 1933 5 1934 680 -2 680 -1 7
-1448 c4 -796 7 -2120 5 -2942 l-2 -1495 -682 -3 -681 -2 -128 142 c-70 79
-153 170 -183 204 -31 33 -99 109 -151 168 -52 60 -126 143 -165 185 -38 42
-146 162 -240 266 -93 104 -258 286 -365 404 -107 119 -210 234 -229 256 -19
22 -91 103 -161 180 -70 77 -163 181 -206 231 -125 143 -359 407 -474 534 -58
64 -145 163 -195 220 -110 126 -230 261 -440 496 -88 98 -178 199 -200 225
-96 111 -245 267 -249 261 -2 -4 -2 -846 0 -1872 2 -1026 1 -1873 -2 -1883 -5
-16 -44 -17 -687 -15 l-682 3 -3 2935 c-1 1614 0 2940 2 2945 4 12 1285 13
1304 1z m9360 -13 c7 -10 42 -79 79 -153 36 -74 69 -143 74 -152 5 -10 43 -87
85 -170 42 -84 81 -162 87 -173 14 -26 379 -749 423 -840 19 -38 47 -92 61
-120 81 -158 901 -1790 925 -1840 15 -33 35 -73 44 -90 9 -16 43 -84 76 -150
33 -66 64 -129 70 -140 7 -11 96 -189 200 -395 103 -206 205 -409 227 -450 21
-41 129 -255 239 -475 110 -220 210 -418 221 -440 52 -102 131 -268 131 -276
0 -5 -306 -8 -747 -7 l-748 3 -355 712 c-195 391 -427 857 -514 1035 -87 177
-304 616 -482 973 -177 358 -394 795 -480 972 -87 177 -161 320 -165 317 -8
-4 -43 -75 -155 -312 -52 -108 -209 -425 -232 -467 -6 -11 -50 -101 -98 -200
-87 -181 -189 -387 -204 -415 -5 -8 -44 -87 -88 -175 -43 -88 -83 -169 -90
-180 -6 -11 -66 -132 -133 -270 -272 -559 -913 -1847 -971 -1952 l-23 -43
-747 0 c-412 0 -748 2 -748 5 0 7 140 288 150 300 4 6 252 496 550 1090 299
594 651 1294 783 1555 271 536 1417 2818 1454 2895 l24 50 532 -2 c500 -2 532
-3 545 -20z m-21320 -2322 l1892 -1 0 -560 0 -560 -1927 0 c-1061 0 -1938 -3
-1950 -6 l-23 -6 0 -549 0 -549 2165 0 2165 0 0 -660 0 -660 -2852 2 -2853 3
-3 1769 c-2 1409 0 1771 10 1778 7 4 344 6 748 4 404 -2 1587 -5 2628 -5z
m1667 -4806 c169 -35 316 -95 446 -181 80 -53 219 -192 272 -272 85 -128 149
-302 169 -462 13 -105 4 -296 -17 -370 -9 -30 -21 -74 -26 -98 -17 -69 -95
-218 -158 -301 -156 -204 -354 -328 -631 -393 -139 -32 -430 -32 -575 0 -55
12 -109 26 -120 31 -11 5 -46 19 -78 32 -67 25 -201 104 -267 158 -101 81
-230 243 -276 347 -14 33 -30 68 -34 79 -47 108 -75 295 -66 450 20 373 240
705 579 877 80 40 245 93 337 108 41 6 82 13 90 15 36 9 282 -5 355 -20z
m15112 -1 c202 -35 420 -143 561 -278 218 -209 325 -463 325 -771 0 -170 -32
-314 -103 -470 -98 -215 -341 -430 -575 -510 -27 -9 -59 -21 -70 -25 -121 -50
-487 -62 -660 -22 -265 62 -447 170 -607 362 -84 101 -157 231 -184 329 -8 31
-19 65 -24 76 -32 73 -40 337 -14 462 35 170 109 332 210 457 263 325 684 469
1141 390z m-24131 -114 c73 -163 82 -183 109 -245 15 -33 41 -91 60 -130 40
-85 75 -162 150 -325 31 -69 65 -143 75 -165 10 -22 31 -67 46 -100 15 -33 53
-115 85 -183 33 -67 59 -125 59 -128 0 -5 23 -56 90 -199 38 -81 67 -144 114
-247 14 -31 26 -61 26 -67 0 -5 4 -11 8 -13 7 -3 72 -133 72 -144 0 -2 -119
-4 -264 -4 l-263 0 -18 48 c-10 26 -30 74 -45 107 -15 33 -37 86 -49 118 -26
72 -60 140 -75 149 -6 4 -226 8 -489 8 l-477 0 -30 -62 c-37 -82 -90 -205 -90
-212 0 -3 -13 -35 -30 -71 -16 -36 -30 -70 -30 -75 0 -6 -6 -10 -12 -10 -84
-4 -491 0 -495 3 -2 3 14 45 37 94 23 48 46 97 51 108 21 48 143 325 165 373
13 29 24 55 24 57 0 2 25 57 56 122 31 65 64 138 74 163 10 25 71 160 135 300
65 140 140 305 167 365 27 61 60 133 73 160 13 28 35 79 50 115 15 36 31 70
35 75 4 6 13 27 20 48 22 69 13 67 292 64 l252 -2 42 -95z m2324 -548 c0 -593
2 -642 19 -710 52 -199 180 -299 397 -310 245 -12 396 87 462 303 14 42 16
149 19 703 l4 652 244 0 245 0 0 -602 c0 -636 -4 -714 -46 -876 -47 -181 -153
-339 -295 -438 -300 -212 -874 -220 -1176 -16 -96 64 -121 87 -179 162 -96
125 -125 189 -165 365 -22 97 -23 119 -27 749 -2 424 0 651 6 655 6 3 118 5
251 3 l241 -3 0 -637z m4228 640 c22 -2 22 -2 22 -197 l0 -195 -332 -2 -333
-3 -1 -817 c0 -450 -3 -820 -5 -823 -5 -4 -394 -10 -461 -6 l-28 1 0 825 0
825 -330 0 -330 0 0 185 c0 102 -1 188 -2 193 -2 4 47 9 107 12 106 5 1647 7
1693 2z m9679 -114 c29 -62 73 -158 99 -213 26 -55 67 -145 91 -200 24 -55 64
-141 89 -191 24 -50 44 -94 44 -98 0 -4 34 -77 75 -163 41 -85 75 -157 75
-160 0 -2 11 -28 24 -56 13 -29 31 -68 39 -87 9 -19 31 -69 50 -110 19 -41 47
-102 62 -135 15 -33 52 -111 81 -173 30 -62 54 -115 54 -118 0 -7 58 -133 80
-175 11 -20 20 -39 20 -43 0 -3 -117 -6 -260 -6 -239 0 -261 1 -267 18 -3 9
-16 40 -28 67 -12 28 -50 116 -85 198 l-64 147 -430 0 c-237 -1 -456 -3 -487
-7 l-56 -6 -66 -151 c-37 -83 -75 -174 -85 -201 -9 -28 -20 -54 -24 -60 -7
-12 -493 -14 -504 -2 -5 4 -1 22 8 40 33 65 138 296 198 437 34 80 66 150 70
155 4 6 19 37 33 70 13 33 47 110 75 170 27 61 71 157 96 215 59 132 69 154
150 327 36 78 66 144 66 147 0 4 93 211 189 421 l28 60 254 -2 254 -2 52 -113z
m3530 108 c2 -1 4 -88 5 -192 l3 -189 -333 -3 -333 -2 3 -825 3 -825 -100 0
c-55 0 -132 -3 -172 -7 -39 -3 -106 -2 -147 2 l-76 7 0 824 0 824 -332 0 -333
0 2 192 3 193 627 5 c551 5 1173 3 1180 -4z m6964 5 c4 -1 56 -60 115 -133 60
-72 165 -197 234 -278 69 -81 172 -205 230 -275 58 -71 134 -163 170 -205 36
-42 99 -118 140 -169 41 -52 90 -110 108 -130 l33 -36 -3 612 c-2 337 0 614 4
615 4 2 114 2 243 0 l235 -3 0 -1019 c0 -561 -3 -1021 -7 -1022 -5 0 -97 -2
-206 -3 l-197 -2 -53 62 c-28 34 -70 84 -92 110 -22 27 -52 62 -67 79 -15 17
-64 76 -110 131 -46 55 -148 178 -228 274 -80 95 -158 191 -175 211 -190 237
-301 370 -308 370 -1 0 -2 -278 -2 -617 l0 -618 -180 2 c-99 0 -208 2 -242 2
l-63 1 0 1020 0 1020 193 2 c105 2 199 2 207 1 8 -1 18 -2 21 -2z m-15060 -43
c13 -24 28 -51 34 -60 38 -63 74 -122 110 -178 23 -36 97 -155 165 -265 67
-110 139 -227 160 -260 20 -33 82 -134 138 -225 55 -91 109 -176 119 -189 l19
-23 188 313 c242 403 241 401 334 554 43 72 112 185 152 253 l73 122 216 -2
216 -3 0 -1015 0 -1015 -110 -5 c-60 -3 -164 -3 -230 0 l-120 5 0 597 c0 329
-3 598 -7 598 -3 0 -66 -100 -138 -222 -73 -123 -156 -261 -185 -308 -89 -147
-207 -343 -233 -390 -46 -82 -42 -80 -172 -80 l-116 0 -21 37 c-12 21 -31 56
-43 78 -12 22 -40 66 -61 98 -45 65 -138 218 -274 447 -133 225 -189 313 -200
317 -7 2 -9 -197 -7 -587 l4 -590 -104 -2 c-264 -4 -350 -3 -354 3 -2 4 -5
465 -7 1023 l-2 1016 216 0 215 0 25 -42z m9799 -978 l0 -1020 -97 -1 c-156
-3 -384 0 -391 5 -4 2 -6 461 -4 1020 l2 1016 245 0 245 0 0 -1020z m-24068
135 l-1 -210 -775 -3 -776 -2 0 215 0 215 777 -2 777 -3 -2 -210z m34013 193
c3 -13 4 -110 3 -216 l-3 -192 -865 0 -865 0 -3 215 -2 215 865 0 865 0 5 -22z"/>
<path d="M14970 2353 c-88 -8 -161 -27 -236 -63 -67 -32 -95 -54 -157 -120
-79 -83 -120 -154 -154 -266 -21 -72 -24 -294 -4 -364 89 -310 335 -486 656
-467 92 6 179 27 231 56 10 5 36 18 57 27 20 9 69 46 108 82 60 55 77 80 119
166 57 120 70 174 70 304 0 172 -49 318 -142 428 -127 151 -341 235 -548 217z"/>
<path d="M30039 2350 c-321 -39 -533 -297 -531 -645 0 -85 5 -126 22 -180 59
-184 149 -303 292 -380 97 -52 191 -75 312 -75 244 0 438 109 554 312 59 104
75 169 76 313 1 145 -12 215 -59 313 -114 241 -379 377 -666 342z"/>
<path d="M5898 2158 c-44 -111 -124 -302 -207 -492 -34 -77 -61 -146 -61 -153
0 -10 58 -13 298 -13 300 0 347 4 338 24 -2 6 -35 79 -71 161 -37 83 -92 209
-122 280 -102 239 -120 279 -130 282 -5 2 -26 -38 -45 -89z"/>
<path d="M22156 2226 c-9 -21 -16 -41 -16 -44 0 -2 -9 -23 -19 -46 -33 -71
-79 -179 -101 -235 -12 -30 -29 -73 -39 -95 -11 -23 -37 -84 -59 -136 -22 -52
-47 -108 -56 -124 -8 -16 -13 -33 -10 -38 9 -14 632 -10 640 4 4 6 2 14 -4 16
-7 2 -12 8 -12 13 0 5 -18 49 -41 97 -36 76 -128 294 -206 487 -13 33 -32 78
-42 100 l-18 40 -17 -39z"/>
</g>
</svg>
