<?xml version="1.0" standalone="no"?>
<!DOCTYPE svg PUBLIC "-//W3C//DTD SVG 20010904//EN"
 "http://www.w3.org/TR/2001/REC-SVG-20010904/DTD/svg10.dtd">
<svg version="1.0" xmlns="http://www.w3.org/2000/svg"
 width="3904.000000pt" height="1088.000000pt" viewBox="0 0 3904.000000 1088.000000"
 preserveAspectRatio="xMidYMid meet">
<metadata>
Created by potrace 1.16, written by Peter Selinger 2001-2019
</metadata>
<g transform="translate(0.000000,1088.000000) scale(0.100000,-0.100000)"
fill="#000000" stroke="none">
<path d="M6225 9899 c-1957 -4 -2625 -8 -2670 -17 -33 -7 -73 -14 -90 -17 -34
-5 -112 -22 -165 -35 -19 -5 -63 -16 -97 -24 -35 -9 -71 -20 -80 -25 -10 -5
-54 -23 -98 -39 -101 -39 -240 -108 -290 -145 -5 -4 -44 -32 -85 -62 -107 -78
-209 -182 -308 -315 -149 -198 -224 -373 -301 -700 -22 -91 -42 -392 -36 -525
12 -241 38 -393 100 -580 100 -300 257 -526 484 -699 124 -95 336 -203 481
-246 41 -12 95 -28 120 -36 25 -7 97 -24 160 -36 l115 -23 2005 -5 c1317 -4
2019 -10 2046 -17 73 -18 172 -70 222 -118 127 -118 181 -355 125 -555 -38
-137 -118 -242 -227 -295 -118 -58 45 -55 -2869 -55 l-2677 0 2 -657 3 -658
2650 -3 c1829 -2 2700 0 2810 8 328 22 529 68 765 176 410 186 696 498 849
924 129 361 143 867 35 1285 -33 127 -123 339 -183 430 -50 77 -159 216 -200
255 -81 80 -217 172 -361 246 -219 113 -444 171 -747 194 -74 6 -891 10 -1998
10 -1264 0 -1891 3 -1931 11 -87 15 -216 82 -266 138 -94 106 -135 249 -124
428 6 101 9 113 52 210 44 99 139 179 265 225 l64 23 2598 3 2597 2 -2 663 -3
662 -65 0 c-36 0 -1239 -3 -2675 -6z"/>
<path d="M10214 9901 c-2 -2 -4 -301 -4 -663 l0 -658 2849 0 c1887 0 2850 3
2853 10 2 5 1 302 -2 660 l-5 650 -2843 2 c-1564 2 -2846 1 -2848 -1z"/>
<path d="M16960 6958 l0 -2948 685 0 685 0 0 1891 c0 1239 3 1888 10 1884 10
-6 121 -130 339 -379 174 -198 413 -466 496 -556 39 -41 122 -133 185 -204 63
-72 160 -179 215 -239 55 -59 125 -137 155 -171 30 -35 109 -123 175 -196 66
-73 156 -173 199 -224 43 -50 122 -138 175 -196 53 -58 132 -145 176 -195 43
-49 121 -136 173 -192 51 -56 106 -118 120 -137 15 -19 74 -87 132 -151 58
-64 118 -133 135 -153 41 -51 355 -400 548 -609 l158 -173 679 0 678 0 6 22
c7 27 3 5854 -4 5861 -3 3 -311 7 -685 9 l-680 3 -5 -1935 -5 -1935 -23 29
c-23 30 -119 138 -232 261 -36 39 -144 160 -240 269 -96 110 -212 240 -258
289 -45 49 -117 131 -160 180 -42 50 -113 130 -157 177 -44 47 -116 128 -160
180 -44 52 -114 130 -155 175 -41 45 -111 121 -154 171 -44 49 -112 125 -152
169 -40 44 -128 144 -196 221 -68 78 -179 205 -248 281 -69 77 -170 191 -225
253 -55 63 -125 141 -157 174 -31 34 -67 75 -79 91 -13 17 -59 68 -102 114
-43 46 -122 134 -174 195 -53 61 -123 141 -157 177 -34 36 -101 112 -151 170
-49 57 -131 146 -180 197 l-91 93 -647 2 -647 2 0 -2947z"/>
<path d="M24254 9895 c-2 -5 -3 -1331 -2 -2945 l3 -2935 682 -3 c643 -2 682
-1 687 15 3 10 4 857 2 1883 -2 1026 -2 1868 0 1872 4 6 153 -150 249 -261 22
-26 112 -127 200 -225 210 -235 330 -370 440 -496 50 -57 137 -156 195 -220
115 -127 349 -391 474 -534 43 -50 136 -154 206 -231 70 -77 142 -158 161
-180 19 -22 122 -137 229 -256 107 -118 272 -300 365 -404 94 -104 202 -224
240 -266 39 -42 113 -125 165 -185 52 -59 120 -135 151 -168 30 -34 113 -125
183 -204 l128 -142 681 2 682 3 2 1495 c2 822 -1 2146 -5 2942 l-7 1448 -680
1 -680 2 -5 -1934 -5 -1933 -240 269 c-132 149 -265 297 -295 331 -30 33 -134
150 -230 259 -233 264 -416 470 -514 580 -145 160 -189 210 -327 366 -75 85
-174 196 -220 247 -46 52 -122 137 -168 190 -46 54 -122 140 -170 192 -48 52
-123 136 -166 185 -43 50 -120 135 -171 190 -50 55 -130 143 -176 196 -179
207 -379 434 -502 569 -23 25 -88 98 -144 162 -56 64 -108 120 -114 124 -19
12 -1300 11 -1304 -1z"/>
<path d="M33817 9855 c-37 -77 -1183 -2359 -1454 -2895 -132 -261 -484 -961
-783 -1555 -298 -594 -546 -1084 -550 -1090 -10 -12 -150 -293 -150 -300 0 -3
336 -5 748 -5 l747 0 23 43 c58 105 699 1393 971 1952 67 138 127 259 133 270
7 11 47 92 90 180 44 88 83 167 88 175 15 28 117 234 204 415 48 99 92 189 98
200 23 42 180 359 232 467 112 237 147 308 155 312 4 3 78 -140 165 -317 86
-177 303 -614 480 -972 178 -357 395 -796 482 -973 87 -178 319 -644 514
-1035 l355 -712 748 -3 c441 -1 747 2 747 7 0 8 -79 174 -131 276 -11 22 -111
220 -221 440 -110 220 -218 434 -239 475 -22 41 -124 244 -227 450 -104 206
-193 384 -200 395 -6 11 -37 74 -70 140 -33 66 -67 134 -76 150 -9 17 -29 57
-44 90 -24 50 -844 1682 -925 1840 -14 28 -42 82 -61 120 -44 91 -409 814
-423 840 -6 11 -45 89 -87 173 -42 83 -80 160 -85 170 -5 9 -38 78 -74 152
-37 74 -72 143 -79 153 -13 17 -45 18 -545 20 l-532 2 -24 -50z"/>
<path d="M10222 7562 c-10 -7 -12 -369 -10 -1778 l3 -1769 2853 -3 2852 -2 0
660 0 660 -2165 0 -2165 0 0 549 0 549 23 6 c12 3 889 6 1950 6 l1927 0 0 560
0 560 -1892 1 c-1041 0 -2224 3 -2628 5 -404 2 -741 0 -748 -4z"/>
<path d="M14910 2775 c-8 -2 -49 -9 -90 -15 -92 -15 -257 -68 -337 -108 -204
-104 -372 -273 -481 -487 -105 -205 -130 -510 -62 -748 12 -40 25 -81 30 -92
4 -11 20 -46 34 -79 46 -104 175 -266 276 -347 66 -54 200 -133 267 -158 32
-13 67 -27 78 -32 11 -5 65 -19 120 -31 145 -32 436 -32 575 0 277 65 475 189
631 393 63 83 141 232 158 301 5 24 17 68 26 98 21 74 30 265 17 370 -20 160
-84 334 -169 462 -53 80 -192 219 -272 272 -130 86 -277 146 -446 181 -73 15
-319 29 -355 20z m285 -441 c180 -45 323 -160 401 -321 45 -92 64 -183 64
-305 0 -130 -13 -184 -70 -304 -42 -86 -59 -111 -119 -166 -39 -36 -88 -73
-108 -82 -21 -9 -47 -22 -57 -27 -94 -53 -278 -72 -414 -45 -196 40 -354 168
-434 351 -44 101 -52 143 -52 280 -1 202 44 320 171 455 62 66 90 88 157 120
139 66 308 83 461 44z"/>
<path d="M30010 2771 c-320 -34 -585 -174 -774 -407 -101 -125 -175 -287 -210
-457 -26 -125 -18 -389 14 -462 5 -11 16 -45 24 -76 27 -98 100 -228 184 -329
160 -192 342 -300 607 -362 173 -40 539 -28 660 22 11 4 43 16 70 25 234 80
477 295 575 510 71 156 103 300 103 470 0 483 -280 861 -756 1019 -118 39
-355 61 -497 47z m292 -437 c180 -45 326 -163 403 -326 47 -98 60 -168 59
-313 -1 -144 -17 -209 -76 -313 -61 -106 -145 -189 -243 -239 -105 -54 -188
-73 -311 -73 -251 1 -447 116 -552 325 -55 111 -74 189 -74 310 -2 348 210
606 531 645 80 10 186 3 263 -16z"/>
<path d="M5686 2725 c-8 -8 -20 -32 -26 -52 -7 -21 -16 -42 -20 -48 -4 -5 -20
-39 -35 -75 -15 -36 -37 -87 -50 -115 -13 -27 -46 -99 -73 -160 -27 -60 -102
-225 -167 -365 -64 -140 -125 -275 -135 -300 -10 -25 -43 -98 -74 -163 -31
-65 -56 -120 -56 -122 0 -2 -11 -28 -24 -57 -22 -48 -144 -325 -165 -373 -5
-11 -28 -60 -51 -108 -23 -49 -39 -91 -37 -94 4 -3 411 -7 495 -3 6 0 12 4 12
10 0 5 14 39 30 75 17 36 30 68 30 71 0 7 53 130 90 212 l30 62 477 0 c263 0
483 -4 489 -8 15 -9 49 -77 75 -149 12 -32 34 -85 49 -118 15 -33 35 -81 45
-107 l18 -48 263 0 c145 0 264 2 264 4 0 11 -65 141 -72 144 -4 2 -8 8 -8 13
0 6 -12 36 -26 67 -47 103 -76 166 -114 247 -67 143 -90 194 -90 199 0 3 -26
61 -59 128 -32 68 -70 150 -85 183 -15 33 -36 78 -46 100 -10 22 -44 96 -75
165 -75 163 -110 240 -150 325 -19 39 -45 97 -60 130 -27 62 -36 82 -109 245
l-42 95 -252 2 c-210 2 -253 0 -266 -12z m299 -556 c18 -40 58 -132 88 -204
30 -71 85 -197 122 -280 36 -82 69 -155 71 -161 9 -20 -38 -24 -338 -24 -240
0 -298 3 -298 13 0 7 27 76 61 153 83 190 163 381 207 492 19 51 40 91 45 89
6 -2 25 -37 42 -78z"/>
<path d="M8078 2729 c-6 -4 -8 -231 -6 -655 4 -630 5 -652 27 -749 40 -176 69
-240 165 -365 58 -75 83 -98 179 -162 266 -179 767 -198 1080 -42 194 97 333
274 391 496 42 162 46 240 46 876 l0 602 -245 0 -244 0 -4 -652 c-3 -554 -5
-661 -19 -703 -66 -216 -217 -315 -462 -303 -217 11 -345 111 -397 310 -17 68
-19 117 -19 710 l0 637 -241 3 c-133 2 -245 0 -251 -3z"/>
<path d="M11105 2730 c-60 -3 -109 -8 -107 -12 1 -5 2 -91 2 -193 l0 -185 330
0 330 0 0 -825 0 -825 28 -1 c67 -4 456 2 461 6 2 3 5 373 5 823 l1 817 333 3
332 2 0 195 c0 195 0 195 -22 197 -46 5 -1587 3 -1693 -2z"/>
<path d="M21889 2675 c-96 -210 -189 -417 -189 -421 0 -3 -30 -69 -66 -147
-81 -173 -91 -195 -150 -327 -25 -58 -69 -154 -96 -215 -28 -60 -62 -137 -75
-170 -14 -33 -29 -64 -33 -70 -4 -5 -36 -75 -70 -155 -60 -141 -165 -372 -198
-437 -9 -18 -13 -36 -8 -40 11 -12 497 -10 504 2 4 6 15 32 24 60 10 27 48
118 85 201 l66 151 56 6 c31 4 250 6 487 7 l430 0 64 -147 c35 -82 73 -170 85
-198 12 -27 25 -58 28 -67 6 -17 28 -18 267 -18 143 0 260 3 260 6 0 4 -9 23
-20 43 -22 42 -80 168 -80 175 0 3 -24 56 -54 118 -29 62 -66 140 -81 173 -15
33 -43 94 -62 135 -19 41 -41 91 -50 110 -8 19 -26 58 -39 87 -13 28 -24 54
-24 56 0 3 -34 75 -75 160 -41 86 -75 159 -75 163 0 4 -20 48 -44 98 -25 50
-65 136 -89 191 -24 55 -65 145 -91 200 -26 55 -70 151 -99 213 l-52 113 -254
2 -254 2 -28 -60z m344 -550 c78 -193 170 -411 206 -487 23 -48 41 -92 41 -97
0 -5 5 -11 12 -13 6 -2 8 -10 4 -16 -8 -14 -631 -18 -640 -4 -3 5 2 22 10 38
9 16 34 72 56 124 22 52 48 113 59 136 10 22 27 65 39 95 22 56 68 164 101
235 10 23 19 44 19 46 0 3 7 23 16 44 l17 39 18 -40 c10 -22 29 -67 42 -100z"/>
<path d="M24827 2730 l-627 -5 -3 -193 -2 -192 333 0 332 0 0 -824 0 -824 76
-7 c41 -4 108 -5 147 -2 40 4 117 7 172 7 l100 0 -3 825 -3 825 333 2 333 3
-3 189 c-1 104 -3 191 -5 192 -7 7 -629 9 -1180 4z"/>
<path d="M32743 2732 l-193 -2 0 -1020 0 -1020 63 -1 c34 0 143 -2 242 -2
l180 -2 0 618 c0 339 1 617 2 617 7 0 118 -133 308 -370 17 -20 95 -116 175
-211 80 -96 182 -219 228 -274 46 -55 95 -114 110 -131 15 -17 45 -52 67 -79
22 -26 64 -76 92 -110 l53 -62 197 2 c109 1 201 3 206 3 4 1 7 461 7 1022 l0
1019 -235 3 c-129 2 -239 2 -243 0 -4 -1 -6 -278 -4 -615 l3 -612 -33 36 c-18
20 -67 78 -108 130 -41 51 -104 127 -140 169 -36 42 -112 134 -170 205 -58 70
-161 194 -230 275 -69 81 -174 206 -234 278 -59 73 -111 132 -115 133 -3 0
-13 1 -21 2 -8 1 -102 1 -207 -1z"/>
<path d="M17457 1714 c2 -558 5 -1019 7 -1023 4 -6 90 -7 354 -3 l104 2 -4
590 c-2 390 0 589 7 587 11 -4 67 -92 200 -317 136 -229 229 -382 274 -447 21
-32 49 -76 61 -98 12 -22 31 -57 43 -78 l21 -37 116 0 c130 0 126 -2 172 80
26 47 144 243 233 390 29 47 112 185 185 308 72 122 135 222 138 222 4 0 7
-269 7 -598 l0 -597 120 -5 c66 -3 170 -3 230 0 l110 5 0 1015 0 1015 -216 3
-216 2 -73 -122 c-40 -68 -109 -181 -152 -253 -93 -153 -92 -151 -334 -554
l-188 -313 -19 23 c-10 13 -64 98 -119 189 -56 91 -118 192 -138 225 -21 33
-93 150 -160 260 -68 110 -142 229 -165 265 -36 56 -72 115 -110 178 -6 9 -21
36 -34 60 l-25 42 -215 0 -216 0 2 -1016z"/>
<path d="M27218 1714 c-2 -559 0 -1018 4 -1020 7 -5 235 -8 391 -5 l97 1 0
1020 0 1020 -245 0 -245 0 -2 -1016z"/>
<path d="M2090 1845 l0 -215 776 2 775 3 1 210 2 210 -777 3 -777 2 0 -215z"/>
<path d="M35922 1845 l3 -215 865 0 865 0 3 192 c1 106 0 203 -3 216 l-5 22
-865 0 -865 0 2 -215z"/>
</g>
</svg>
