<?xml version="1.0" encoding="UTF-8"?>
<svg id="b" data-name="Lockup" xmlns="http://www.w3.org/2000/svg" viewBox="0 0 66 66">
  <polygon points="49.69 7.48 49.69 50.21 6.66 50.21 27.17 59.79 59.34 59.79 59.34 27.85 49.69 7.48"/>
  <path d="M6.66,7.48v41.7h42V7.48H6.66ZM27.76,39.57c-5.95,0-9.74-2.75-9.74-8.04h5.69c.1,1.93,1.18,3.5,4.09,3.5,2.29,0,3.69-.92,3.69-2.58,0-1.34-.88-1.96-2.84-2.35l-3.27-.65c-3.5-.65-6.73-2.22-6.73-6.54,0-4.58,3.76-6.83,9.06-6.83s9.02,2.35,9.02,7.29h-5.69c.1-1.99-1.54-2.75-3.47-2.75-2.35,0-3.17,1.18-3.17,2.29,0,.88.52,1.8,2.29,2.16l2.94.59c5.75,1.14,7.68,3.33,7.68,6.77,0,5.1-4.35,7.16-9.55,7.16Z"/>
</svg>