<?xml version="1.0" encoding="UTF-8"?>
<svg id="b" data-name="Lockup" xmlns="http://www.w3.org/2000/svg" viewBox="19.29 0 249.64 90.57">
  <g>
    <path d="M79.05,35.58h2.37c.16,2.62,1.98,4.7,6.14,4.7,3.84,0,5.73-1.79,5.73-4.42s-1.92-3.68-4.61-4.22l-2.94-.61c-3.97-.8-6.02-2.72-6.02-5.82,0-3.55,2.62-5.92,7.65-5.92s7.68,2.37,7.68,5.86h-2.34c-.13-2.18-1.76-3.84-5.38-3.84s-5.18,1.7-5.18,3.9c0,1.92,1.18,3.29,4.26,3.94l2.88.58c3.94.77,6.43,2.43,6.43,6.11,0,4.06-3.04,6.46-8.19,6.46-5.6,0-8.48-2.85-8.48-6.72Z"/>
    <path d="M97.39,33.72c0-6.05,3.46-8.7,7.71-8.7s7.36,2.72,7.36,8.19c0,.54-.03.86-.1,1.18h-12.77c.19,4.06,2.18,6.08,5.7,6.08,2.02,0,4-.67,4.86-3.07h2.08c-1.12,3.68-3.94,4.9-6.98,4.9-4.64,0-7.87-2.78-7.87-8.58ZM110.29,32.6c-.06-3.74-2.05-5.76-5.21-5.76s-5.22,1.86-5.44,5.76h10.66Z"/>
    <path d="M121.97,26.97c-3.14,0-5.09,1.95-5.09,5.21v9.79h-2.27v-16.64h2.27v3.14c.35-1.12,2.05-3.46,5.82-3.46,3.26,0,6.02,1.76,6.02,6.72v10.24h-2.27v-9.79c0-3.26-1.34-5.21-4.48-5.21Z"/>
    <path d="M139.02,26.97c-3.14,0-5.09,1.95-5.09,5.21v9.79h-2.27v-16.64h2.27v3.14c.35-1.12,2.05-3.46,5.82-3.46,3.26,0,6.02,1.76,6.02,6.72v10.24h-2.27v-9.79c0-3.26-1.34-5.21-4.48-5.21Z"/>
    <path d="M147.92,37.78c0-2.85,1.89-4.32,5.25-4.74l4.32-.48c1.79-.22,2.34-.61,2.34-1.12v-.8c0-2.88-1.47-3.84-4.35-3.84s-4.38.99-4.38,3.2v.38h-2.18v-.54c0-3.33,2.37-4.83,6.62-4.83s6.56,1.66,6.56,5.66v11.3h-2.18v-2.94h-.1c-.45.9-2.37,3.26-6.46,3.26-3.17,0-5.44-1.44-5.44-4.51ZM159.82,36.12v-2.66c-.13.38-.74.7-2.5.9l-3.62.45c-2.66.32-3.52,1.31-3.52,2.85,0,2.05,1.57,2.82,3.68,2.82,4.06,0,5.95-2.72,5.95-4.35Z"/>
    <path d="M86.16,48.88h6.98l7.97,22.4h-5.66l-1.28-3.81h-9.06l-1.28,3.81h-5.63l7.97-22.4ZM92.85,63.5l-3.04-9.18h-.32l-3.07,9.18h6.43Z"/>
    <path d="M109.58,67.28c1.7,0,3.1-.93,3.1-3.3v-9.34h5.25v16.64h-5.25v-3.52h-.19c-.32,1.63-1.92,3.84-5.18,3.84s-5.7-2.14-5.7-6.34v-10.62h5.25v9.34c0,2.37,1.09,3.3,2.72,3.3Z"/>
    <path d="M122.29,66v-7.3h-2.85v-4.06h2.85v-4.35h5.25v4.35h3.26v4.06h-3.26v6.56c0,1.15.32,2.08,2.02,2.08.35,0,.64,0,1.38-.06v3.87c-.8.22-1.76.35-2.75.35-3.58,0-5.89-1.63-5.89-5.5Z"/>
    <path d="M131.6,62.96c0-6.11,4.22-8.64,8.45-8.64s8.45,2.53,8.45,8.64-4.26,8.64-8.45,8.64-8.45-2.53-8.45-8.64ZM143.57,62.96c0-2.94-1.5-4.29-3.52-4.29s-3.55,1.34-3.55,4.29,1.5,4.29,3.55,4.29,3.52-1.34,3.52-4.29Z"/>
    <path d="M168.43,58.64c-1.41,0-2.62.93-2.62,3.29v9.34h-5.25v-9.34c0-2.37-.99-3.29-2.4-3.29s-2.62.93-2.62,3.29v9.34h-5.25v-16.64h5.25v3.52h.19c.26-1.63,2.02-3.84,4.77-3.84,2.3,0,4.22,1.28,4.99,3.81.29-1.63,2.18-3.81,5.15-3.81,3.17,0,5.47,2.14,5.47,6.34v10.62h-5.25v-9.34c0-2.37-1.02-3.29-2.43-3.29Z"/>
    <path d="M177.9,66.83c0-3.9,3.26-4.58,6.02-4.99l2.5-.38c1.47-.22,1.92-.42,1.92-1.47v-.03c0-1.54-1.06-1.89-2.18-1.89s-2.5.32-2.5,1.95v.35h-4.9v-.86c0-3.23,2.11-5.18,7.52-5.18s7.2,1.86,7.2,5.38v11.58h-5.02v-2.88h-.22c-.26.83-1.47,3.2-4.99,3.2-2.62,0-5.34-1.28-5.34-4.77ZM188.33,65.45v-1.57c-.29.35-1.12.45-1.6.54l-2.05.38c-1.15.26-1.54.86-1.54,1.54,0,.77.42,1.54,1.92,1.54,1.79,0,3.26-1.15,3.26-2.43Z"/>
    <path d="M197.33,66v-7.3h-2.85v-4.06h2.85v-4.35h5.25v4.35h3.26v4.06h-3.26v6.56c0,1.15.32,2.08,2.02,2.08.35,0,.64,0,1.38-.06v3.87c-.8.22-1.76.35-2.75.35-3.58,0-5.89-1.63-5.89-5.5Z"/>
    <path d="M207.37,50.22c0-1.63,1.34-2.82,2.85-2.82s2.82,1.18,2.82,2.82-1.34,2.82-2.82,2.82-2.85-1.22-2.85-2.82ZM207.6,54.64h5.25v16.64h-5.25v-16.64Z"/>
    <path d="M214.64,62.96c0-6.11,4.22-8.64,8.45-8.64s8.45,2.53,8.45,8.64-4.26,8.64-8.45,8.64-8.45-2.53-8.45-8.64ZM226.61,62.96c0-2.94-1.5-4.29-3.52-4.29s-3.55,1.34-3.55,4.29,1.5,4.29,3.55,4.29,3.52-1.34,3.52-4.29Z"/>
    <path d="M241.68,58.64c-1.7,0-3.1.93-3.1,3.29v9.34h-5.25v-16.64h5.25v3.52h.19c.32-1.63,1.92-3.84,5.18-3.84s5.7,2.14,5.7,6.34v10.62h-5.25v-9.34c0-2.37-1.09-3.29-2.72-3.29Z"/>
  </g>
  <polygon points="62.32 19.29 62.32 62.01 19.29 62.01 39.8 71.6 71.97 71.6 71.97 39.66 62.32 19.29"/>
  <path d="M19.29,19.29v41.7h42V19.29H19.29ZM40.39,51.38c-5.95,0-9.74-2.75-9.74-8.04h5.69c.1,1.93,1.18,3.5,4.09,3.5,2.29,0,3.69-.92,3.69-2.58,0-1.34-.88-1.96-2.84-2.35l-3.27-.65c-3.5-.65-6.73-2.22-6.73-6.54,0-4.58,3.76-6.83,9.06-6.83s9.02,2.35,9.02,7.29h-5.69c.1-1.99-1.54-2.75-3.47-2.75-2.35,0-3.17,1.18-3.17,2.29,0,.88.52,1.8,2.29,2.16l2.94.59c5.75,1.14,7.68,3.33,7.68,6.77,0,5.1-4.35,7.16-9.55,7.16Z"/>
</svg>
