<?xml version="1.0" encoding="UTF-8"?><svg id="Layer_1" xmlns="http://www.w3.org/2000/svg" viewBox="0 0 552 160"><path d="M552,0v160H0V0h552ZM28,99h77.5c.75,0,4.63-1.76,5.66-2.34,11.62-6.54,11.7-25.08,6.57-35.89-8.71-18.34-44.34-7.63-60.97-10.03-7.16-1.04-11.46-4.81-7.09-11.82l67.7-2.05c2.45-.84,3.87-13.89,3.63-16.88-20.34,1.53-41.45-2.18-61.55-1.04-8.62.49-14.88.85-21.79,6.21-16,12.42-9.91,37.33,9.07,42.59l52.57.43c5.67,3.31,4.99,12.95-1.76,13.86-15.57,2.1-36.62-1.09-53.09-.09-3.29.2-6.44,1.59-9.84.98l-6.62,16.06ZM135,19v19l81-.99c.23-6.03,1.59-11.92.99-18h-81.99ZM231,99h19c-.21-15.56-.11-31.01,1-46.51.61-8.49,2.05-1.02,3.29.22,3.87,3.89,9.76,7.93,13.72,11.77,6.14,5.95,30.48,32.35,36.54,33.46,4.65.86,10.01-1.21,14.44,1.06l1.01-79.5c-.17-1.4-1.28.5-1.5.5h-17.5v50s-53.03-50.52-53.03-50.52l-15.97.52-.99,79.01ZM405,69c-17.49-16.12-32.97-33.98-51.02-49.48l-18.99-.53v79.01s20.01,1,20.01,1l1-51,51,49.49,17.99,1.52V20h-21.01c-.37,1.08,1,2.19,1,2.5v46.5ZM432.5,99c5.62-.65,12.25.48,18,0,8.89-15.63,18.69-30.92,27.32-46.68,1.07-1.95,1.81-4.13,2.19-6.32,1.16-.9,5.09,9.34,5.82,10.67,7.53,13.65,16.21,26.7,22.33,41.17l21.84,1.16-41.1-78.39c-1.64-2.59-10.69-1.17-13.2-.41s-16.52,24.92-18.87,29.13c-6.97,12.48-12.6,25.89-19.66,38.34-1.28,2.26-8.33,10.97-7.16,12.32,1.13.38,2.07-.95,2.49-1ZM212,51h-74.5c-.33,0-1.52,1.32-2.5,1v47h81v-17h-62l.95-14.53,52.14-.92,1.92-1.29,2.99-14.26ZM469.01,91c6.37-6.06,10.46-14.31,11.98-22.99l-7.51,11.97-4.47,11.02ZM99,145.99l-13.64-28.89-3.38.36-14.98,28.52c9.98.92,6.16-.05,9.07-4.4,2.19-3.27,11.21.81,15.31-.65l1.75,4.93,5.86.12ZM164,124v19.5c0,.36,1.02,1.62,1.17,2.34l4.83.16v-22h10c.59-9.69-1.61-6.08-7.46-5.95-6.49.14-12.28-1.41-18.48,0l.89,6.53,9.05-.58ZM207.76,117.27c-10.14,1.52-14.22,11.36-11.32,20.78,3.33,10.82,26.04,11.02,29.11,1,.76-2.48.71-6.94.48-9.59-.89-10.46-8.64-13.63-18.27-12.19ZM251,146v-17l7.74,12.74c.13,1.28.49,1.51,1.78,1.29,2.83-.48,6.99-9.97,9.19-12.77.64-.81-.04-1.83,2.29-1.27v17h6v-29c-9.59.14-13.61,9.5-18.5,16.01.49-3.89-9.83-19.56-13.5-16.01l-1.01,29.01h6.01ZM313.83,117.18c-.87-.51-2.21-.33-3.12,0-3.74,1.35-12.16,23.21-14.71,27.81,8.03,2.67,7.02-3.96,9.66-4.83,4.37-1.43,15.5-1.31,14.44,5.73l6.89.1-13.17-28.81ZM363,117h-25l.94,6.56,9.06.44v20.5l5,1.5v-22h10.01s0-7,0-7ZM387,118l-4.99-1c.16,9.38-1.72,18.6-1.02,28h6.01v-27.01ZM417.73,117.23c-13.4,2.78-12.6,26.17-2.02,28.56,7.14,1.61,18.82.81,20.86-7.72,3.28-13.75-4.39-23.83-18.84-20.84ZM456,118.5v27.5l6-1.5v-16.5c7.79,2.76,12.15,23.21,22,16.5v-26.5c-9.4-3.42-7.38,5.5-7,12.5.1,1.89,1.18,3.58.99,5.5-6.24-3.63-12.21-18.46-19.93-18.61-1.21-.02-1.3.13-2.06,1.11ZM114,118v20.5c0,.94,3.91,5.24,5.05,5.95,3.25,2.04,9.4,2.21,13.01,1.1,1.21-.37,5.95-4.53,5.95-5.05v-22.5h-5.01s-.93,20.38-.93,20.38c-3.52,2.34-8.09,1.57-11.62-.33l-1.44-20.06h-5.01ZM51,133v-7c-.37-.5-1.29,1-1.5,1h-19.5l-.9,4.42,1.4,1.58h20.5ZM525.5,127c-7,.82-15.34-.6-22.5,0l1.5,6h23.5v-7c-1.13-.38-2.07.95-2.5,1Z"/><path d="M28,99l6.62-16.06c3.41.61,6.55-.78,9.84-.98,16.47-1,37.52,2.19,53.09.09,6.74-.91,7.43-10.54,1.76-13.86l-52.57-.43c-18.97-5.26-25.07-30.17-9.07-42.59,6.91-5.37,13.17-5.72,21.79-6.21,20.1-1.15,41.21,2.57,61.55,1.04.24,2.99-1.18,16.04-3.63,16.88l-67.7,2.05c-4.36,7-.07,10.78,7.09,11.82,16.62,2.4,52.26-8.31,60.97,10.03,5.13,10.8,5.06,29.35-6.57,35.89-1.03.58-4.91,2.34-5.66,2.34H28Z" style="fill:#fff;"/><path d="M405,69V22.5c0-.31-1.37-1.42-1-2.5h21v79.01s-17.99-1.52-17.99-1.52l-51-49.49-1,51-20.01-1V19s18.99.53,18.99.53c18.05,15.5,33.52,33.36,51.02,49.48Z" style="fill:#fff;"/><path d="M231,99l.99-79.01,15.97-.52,53.02,50.52V20h17.51c.23,0,1.33-1.9,1.5-.5l-1.01,79.5c-4.43-2.27-9.79-.2-14.44-1.06-6.05-1.12-30.4-27.52-36.54-33.46-3.97-3.84-9.85-7.88-13.72-11.77-1.24-1.25-2.68-8.72-3.29-.22-1.11,15.49-1.21,30.95-1,46.51h-19Z" style="fill:#fff;"/><path d="M432.5,99c-.42.05-1.36,1.38-2.49,1-1.16-1.36,5.88-10.07,7.16-12.32,7.06-12.45,12.68-25.86,19.66-38.34,2.35-4.21,16.28-28.34,18.87-29.13s11.56-2.18,13.2.41l41.1,78.39-21.84-1.16c-6.12-14.47-14.79-27.52-22.33-41.17-.73-1.32-4.66-11.57-5.82-10.67-.38,2.19-1.12,4.37-2.19,6.32-8.63,15.76-18.43,31.05-27.32,46.68-5.75.48-12.38-.65-18,0Z" style="fill:#fff;"/><path d="M212,51l-2.99,14.26-1.92,1.29-52.14.92-.95,14.53h62v17h-81v-47c.98.32,2.17-1,2.5-1h74.5Z" style="fill:#fff;"/><path d="M135,19h81.99c.6,6.08-.76,11.98-.99,18.01l-81,.99v-19Z" style="fill:#fff;"/><path d="M251,146h-6.01s1.01-29,1.01-29c3.66-3.55,13.98,12.13,13.5,16.01,4.89-6.51,8.91-15.87,18.5-16.01v29h-6v-17c-2.33-.56-1.65.45-2.29,1.27-2.2,2.8-6.36,12.29-9.19,12.77-1.29.22-1.65-.01-1.78-1.29l-7.74-12.74v17Z" style="fill:#fff;"/><path d="M417.73,117.23c14.45-3,22.12,7.09,18.84,20.84-2.04,8.53-13.72,9.33-20.86,7.72-10.58-2.39-11.39-25.78,2.02-28.56ZM428.86,124.14l-13.42.8.5,13.63,13.63-.5-.71-13.92Z" style="fill:#fff;"/><path d="M456,118.5c.76-.98.85-1.14,2.06-1.11,7.72.15,13.69,14.99,19.93,18.61.19-1.92-.89-3.61-.99-5.5-.38-7-2.4-15.92,7-12.5v26.5c-9.85,6.71-14.21-13.74-22-16.5v16.5l-6,1.5v-27.5Z" style="fill:#fff;"/><path d="M207.76,117.27c9.64-1.44,17.39,1.73,18.27,12.19.22,2.65.28,7.11-.48,9.59-3.06,10.02-25.78,9.82-29.11-1-2.9-9.42,1.17-19.27,11.32-20.78ZM206.71,123.22c-6.79,1.53-5.27,9.86-3.18,14.75,4.26,2.95,9.96,2.56,14.48.54l1.57-13.57c-3.69-1.76-8.87-2.62-12.87-1.72Z" style="fill:#fff;"/><path d="M99,145.99l-5.86-.12-1.75-4.93c-4.1,1.46-13.12-2.62-15.31.65-2.92,4.35.9,5.32-9.07,4.4l14.98-28.52,3.38-.36,13.64,28.89ZM89,135.99c.83-.75-4.93-11.07-5.98-9.99l-3.01,9.99h8.99Z" style="fill:#fff;"/><path d="M313.83,117.18l13.17,28.81-6.89-.1c1.05-7.04-10.08-7.16-14.44-5.73-2.64.87-1.64,7.5-9.66,4.83,2.55-4.6,10.97-26.47,14.71-27.81.91-.33,2.25-.5,3.12,0ZM316,135.99c.42-.37-2.79-10.01-4.5-9.97l-5.49,9.97h9.99Z" style="fill:#fff;"/><path d="M114,118h5.01s1.44,20.06,1.44,20.06c3.53,1.89,8.1,2.66,11.62.33l.93-20.39h5.01v22.5c0,.52-4.74,4.68-5.95,5.05-3.61,1.11-9.76.94-13.01-1.1-1.14-.71-5.05-5.01-5.05-5.95v-20.5Z" style="fill:#fff;"/><path d="M164,124l-9.05.58-.89-6.53c6.2-1.42,11.99.13,18.48,0,5.85-.13,8.05-3.74,7.46,5.96h-10s0,22,0,22l-4.83-.16c-.15-.72-1.17-1.98-1.17-2.34v-19.5Z" style="fill:#fff;"/><polygon points="363 117 363.01 124.01 353 124 353 146 348 144.5 348 124 338.94 123.56 338 117 363 117" style="fill:#fff;"/><path d="M387,118v27h-6.01c-.7-9.4,1.17-18.61,1.02-28l4.99,1Z" style="fill:#fff;"/><path d="M525.5,127c.43-.05,1.37-1.37,2.49-1v7s-23.49,0-23.49,0l-1.5-6c7.16-.6,15.5.82,22.5,0Z" style="fill:#fff;"/><path d="M51,133h-20.5l-1.4-1.58.9-4.42h19.5c.21,0,1.13-1.5,1.49-1v7Z" style="fill:#fff;"/><path d="M469.01,91l4.47-11.02,7.51-11.97c-1.52,8.68-5.61,16.93-11.98,22.99Z" style="fill:#fff;"/><polygon points="428.86 124.14 429.56 138.06 415.94 138.56 415.44 124.94 428.86 124.14"/><path d="M206.71,123.22c4-.9,9.18-.04,12.87,1.72l-1.57,13.57c-4.52,2.02-10.22,2.41-14.48-.54-2.09-4.89-3.61-13.22,3.18-14.75Z"/><path d="M89,135.99h-8.99s3.01-9.99,3.01-9.99c1.06-1.07,6.82,9.24,5.98,9.99Z"/><path d="M316,135.99h-9.99s5.49-9.97,5.49-9.97c1.7-.03,4.91,9.6,4.5,9.97Z"/><rect x="470.5" y="66.5" width="18" height="26" style="stroke:#000; stroke-miterlimit:10;"/><rect x="466.5" y="87.5" width="7" height="5" style="stroke:#000; stroke-miterlimit:10;"/><rect x="482.5" y="98.5" width="7" height="5" style="stroke:#000; stroke-miterlimit:10;"/></svg>