<?xml version="1.0" encoding="UTF-8"?>
<svg id="Layer_1" data-name="Layer 1" xmlns="http://www.w3.org/2000/svg" xmlns:xlink="http://www.w3.org/1999/xlink" viewBox="0 0 207.52 192.72"><metadata><c2pa:manifest xmlns:c2pa="http://c2pa.org/manifest">AAA0RGp1bWIAAAAeanVtZGMycGEAEQAQgAAAqgA4m3EDYzJwYQAAADQeanVtYgAAAEdqdW1kYzJtYQARABCAAACqADibcQN1cm46dXVpZDo3YTIwNDYxMS00YTdhLTQ3N2YtOTk5ZS1hYjdjNTY3ODhmNTQAAAABtGp1bWIAAAApanVtZGMyYXMAEQAQgAAAqgA4m3EDYzJwYS5hc3NlcnRpb25zAAAAANdqdW1iAAAAJmp1bWRjYm9yABEAEIAAAKoAOJtxA2MycGEuYWN0aW9ucwAAAACpY2JvcqFnYWN0aW9uc4GjZmFjdGlvbmtjMnBhLmVkaXRlZG1zb2Z0d2FyZUFnZW50bUFkb2JlIEZpcmVmbHlxZGlnaXRhbFNvdXJjZVR5cGV4U2h0dHA6Ly9jdi5pcHRjLm9yZy9uZXdzY29kZXMvZGlnaXRhbHNvdXJjZXR5cGUvY29tcG9zaXRlV2l0aFRyYWluZWRBbGdvcml0aG1pY01lZGlhAAAArGp1bWIAAAAoanVtZGNib3IAEQAQgAAAqgA4m3EDYzJwYS5oYXNoLmRhdGEAAAAAfGNib3KlamV4Y2x1c2lvbnOBomVzdGFydBj2Zmxlbmd0aBlFsGRuYW1lbmp1bWJmIG1hbmlmZXN0Y2FsZ2ZzaGEyNTZkaGFzaFggjf365Orpkd7Z2MSgI8e3rgrre4rPBXHktGv9hZYqWptjcGFkSQAAAAAAAAAAAAAAAgtqdW1iAAAAJGp1bWRjMmNsABEAEIAAAKoAOJtxA2MycGEuY2xhaW0AAAAB32Nib3KoaGRjOnRpdGxlb0dlbmVyYXRlZCBJbWFnZWlkYzpmb3JtYXRtaW1hZ2Uvc3ZnK3htbGppbnN0YW5jZUlEeCx4bXA6aWlkOmVhODY3MzNjLTBhNmUtNDVmYS04ZTQyLWU3ZTA4M2YyZmFiNW9jbGFpbV9nZW5lcmF0b3J4NkFkb2JlX0lsbHVzdHJhdG9yLzI5LjAgYWRvYmVfYzJwYS8wLjcuNiBjMnBhLXJzLzAuMjUuMnRjbGFpbV9nZW5lcmF0b3JfaW5mb4G/ZG5hbWVxQWRvYmUgSWxsdXN0cmF0b3JndmVyc2lvbmQyOS4w/2lzaWduYXR1cmV4GXNlbGYjanVtYmY9YzJwYS5zaWduYXR1cmVqYXNzZXJ0aW9uc4KiY3VybHgnc2VsZiNqdW1iZj1jMnBhLmFzc2VydGlvbnMvYzJwYS5hY3Rpb25zZGhhc2hYIEppwb3/qN5BMHi+JO3M+DE6wdFklTRWcaANawazN9SvomN1cmx4KXNlbGYjanVtYmY9YzJwYS5hc3NlcnRpb25zL2MycGEuaGFzaC5kYXRhZGhhc2hYIJoy4o/YfI5HXWLpZx8Ei8kjuD+hcG4SDZUCyMuW5j/0Y2FsZ2ZzaGEyNTYAADAQanVtYgAAAChqdW1kYzJjcwARABCAAACqADibcQNjMnBhLnNpZ25hdHVyZQAAAC/gY2JvctKEWQzvogE4JBghglkGPTCCBjkwggQhoAMCAQICEBWN/yesI9K4JUtOYzceHZ4wDQYJKoZIhvcNAQELBQAwdTELMAkGA1UEBhMCVVMxIzAhBgNVBAoTGkFkb2JlIFN5c3RlbXMgSW5jb3Jwb3JhdGVkMR0wGwYDVQQLExRBZG9iZSBUcnVzdCBTZXJ2aWNlczEiMCAGA1UEAxMZQWRvYmUgUHJvZHVjdCBTZXJ2aWNlcyBHMzAeFw0yNDEwMTUwMDAwMDBaFw0yNTEwMTUyMzU5NTlaMIGrMRMwEQYDVQQDDApBZG9iZSBDMlBBMSgwJgYDVQQLDB9Db250ZW50IEF1dGhlbnRpY2l0eSBJbml0aWF0aXZlMRMwEQYDVQQKDApBZG9iZSBJbmMuMREwDwYDVQQHDAhTYW4gSm9zZTETMBEGA1UECAwKQ2FsaWZvcm5pYTELMAkGA1UEBhMCVVMxIDAeBgkqhkiG9w0BCQEWEWNhaS1vcHNAYWRvYmUuY29tMIIBIjANBgkqhkiG9w0BAQEFAAOCAQ8AMIIBCgKCAQEAwxDBgdB9PXLpMXPw5oNgYkFWDPP1aSfth9TZPINOtOQlhp1v4h+hMxZWFjkZ3RJRuoSBrsSSYBaEfiDMKisi/sOxuFHKBV//l1rv3SrjrixANXIlqjGdIYydaMaFa/5ovFz/m4+SUz0ccYzqw+vSAzuRySGnpgm8Gmj+SEJcL/GIHzqU9bUy3NsizY2oY28yj32rbkOqeADSM51OqIJKloEBFFexzMunzpU+K2sLqheoR8FJMaR0fGXa/gqRzhkiBFhwUhLPS9s6+TCnz09UZMlXbdG/iFKj3UPFUDjqh0wtFgcz24DrUlaWeiltKHouymBHuirzvmOG0VtSPepxOQIDAQABo4IBjDCCAYgwDAYDVR0TAQH/BAIwADAOBgNVHQ8BAf8EBAMCB4AwHgYDVR0lBBcwFQYJKoZIhvcvAQEMBggrBgEFBQcDBDCBjgYDVR0gBIGGMIGDMIGABgkqhkiG9y8BAgMwczBxBggrBgEFBQcCAjBlDGNZb3UgYXJlIG5vdCBwZXJtaXR0ZWQgdG8gdXNlIHRoaXMgTGljZW5zZSBDZXJ0aWZpY2F0ZSBleGNlcHQgYXMgcGVybWl0dGVkIGJ5IHRoZSBsaWNlbnNlIGFncmVlbWVudC4wXQYDVR0fBFYwVDBSoFCgToZMaHR0cDovL3BraS1jcmwuc3ltYXV0aC5jb20vY2FfN2E1YzNhMGM3MzExNzQwNmFkZDE5MzEyYmMxYmMyM2YvTGF0ZXN0Q1JMLmNybDA3BggrBgEFBQcBAQQrMCkwJwYIKwYBBQUHMAGGG2h0dHA6Ly9wa2ktb2NzcC5zeW1hdXRoLmNvbTAfBgNVHSMEGDAWgBRXKXoyTcz+5DVOwB8kc85zU6vfajANBgkqhkiG9w0BAQsFAAOCAgEAqrl6FLQ+c9LYaf0igyTgErNL9XmmieiT3ohKFevJ3BN7kWkZD1znbVw3XnX5tgQaKq+AiSCldNxYEKqU+Rq9Lr26GGglBSA0s/Ds2kw+2LlnTmojAHCH3CvVRbhGHHrashmnfgwmF1TSkaWk7NxEhbt9wQoiEMkLSQeM4S4Cu+176FzEdy+zzkDkRWqeSOQO/qG2WRto/vIq30ECf6v6FtazJI1CWIqhBK5oJioSNbLsCVJhar3Uca9D11ujeZW4k2jPCsnzriTmFqVftd3k2SXUQg7wQcQcXfKBItWZt8ztn0IYoZzJa1x9l9dvXKAJvNsDoz4uDerS8z9rzLsEQvzL1yPbTp4+/6mTTAWsoaDtmkZgm3X+sffPX3XzMFmfzIHiYfUja5nKK2bs4P71tit/1U/FD2xdlpzZSupRqCMGz+UTeXI8IrN5ZR/+F8rSsmRAStjnggz/wDucwcDlJbY4/RKq3BrAi4LamLMIfwo/dbL55TDlIOd7HCfmSgabc1WO0Kji3LW/VZnP9VG8WiUG+WqtN1OQIAZmFUOWdXQGLag+I1OaZ1BXJDNsJiXcg2TGNBSEPo44Akfn9MzFGKyB5UurMN4NH0qlamhrhKiV0+b73Fjx330P/frxBmzx5NpAQhNKksx+F4z1S8Ay1o2TBIkkeAFbDzy8f/FxuytZBqUwggahMIIEiaADAgECAhAMqLZUe4nm0gaJdc2Lm4niMA0GCSqGSIb3DQEBCwUAMGwxCzAJBgNVBAYTAlVTMSMwIQYDVQQKExpBZG9iZSBTeXN0ZW1zIEluY29ycG9yYXRlZDEdMBsGA1UECxMUQWRvYmUgVHJ1c3QgU2VydmljZXMxGTAXBgNVBAMTEEFkb2JlIFJvb3QgQ0EgRzIwHhcNMTYxMTI5MDAwMDAwWhcNNDExMTI4MjM1OTU5WjB1MQswCQYDVQQGEwJVUzEjMCEGA1UEChMaQWRvYmUgU3lzdGVtcyBJbmNvcnBvcmF0ZWQxHTAbBgNVBAsTFEFkb2JlIFRydXN0IFNlcnZpY2VzMSIwIAYDVQQDExlBZG9iZSBQcm9kdWN0IFNlcnZpY2VzIEczMIICIjANBgkqhkiG9w0BAQEFAAOCAg8AMIICCgKCAgEAtx8uvb0Js1xIbP4Mg65sAepReCWkgD6Jp7GyiGTa9ol2gfn5HfOV/HiYjZiOz+TuHFU+DXNad86xEqgVeGVMlvIHGe/EHcKBxvEDXdlTXB5zIEkfl0/SGn7J6vTX8MNybfSi95eQDUOZ9fjCaq+PBFjS5ZfeNmzi/yR+MsA0jKKoWarSRCFFFBpUFQWfAgLyXOyxOnXQOQudjxNj6Wu0X0IB13+IH11WcKcWEWXM4j4jh6hLy29Cd3EoVG3oxcVenMF/EMgD2tXjx4NUbTNB1/g9+MR6Nw5Mhp5k/g3atNExAxhtugC+T3SDShSEJfs2quiiRUHtX3RhOcK1s1OJgT5s2s9xGy5/uxVpcAIaK2KiDJXW3xxN8nXPmk1NSVu/mxtfapr4TvSJbhrU7UA3qhQY9n4On2sbH1X1Tw+7LTek8KCA5ZDghOERPiIp/Jt893qov1bE5rJkagcVg0Wqjh89NhCaBA8VyRt3ovlGyCKdNV2UL3bn5vdFsTk7qqmp9makz1/SuVXYxIf6L6+8RXOatXWaPkmucuLE1TPOeP7S1N5JToFCs80l2D2EtxoQXGCR48K/cTUR5zV/fQ+hdIOzoo0nFn77Y8Ydd2k7/x9BE78pmoeMnw6VXYfXCuWEgj6p7jpbLoxQMoWMCVzlg72WVNhJFlSw4aD8fc6ezeECAwEAAaOCATQwggEwMBIGA1UdEwEB/wQIMAYBAf8CAQAwNQYDVR0fBC4wLDAqoCigJoYkaHR0cDovL2NybC5hZG9iZS5jb20vYWRvYmVyb290ZzIuY3JsMA4GA1UdDwEB/wQEAwIBBjAUBgNVHSUEDTALBgkqhkiG9y8BAQcwVwYDVR0gBFAwTjBMBgkqhkiG9y8BAgMwPzA9BggrBgEFBQcCARYxaHR0cHM6Ly93d3cuYWRvYmUuY29tL21pc2MvcGtpL3Byb2Rfc3ZjZV9jcHMuaHRtbDAkBgNVHREEHTAbpBkwFzEVMBMGA1UEAxMMU1lNQy00MDk2LTMzMB0GA1UdDgQWBBRXKXoyTcz+5DVOwB8kc85zU6vfajAfBgNVHSMEGDAWgBSmHOFtVCRMqI9Icr9uqYzV5Owx1DANBgkqhkiG9w0BAQsFAAOCAgEAcc7lB4ym3C3cyOA7ZV4AkoGV65UgJK+faThdyXzxuNqlTQBlOyXBGFyevlm33BsGO1mDJfozuyLyT2+7IVxWFvW5yYMV+5S1NeChMXIZnCzWNXnuiIQSdmPD82TEVCkneQpFET4NDwSxo8/ykfw6Hx8fhuKz0wjhjkWMXmK3dNZXIuYVcbynHLyJOzA+vWU3sH2T0jPtFp7FN39GZne4YG0aVMlnHhtHhxaXVCiv2RVoR4w1QtvKHQpzfPObR53Cl74iLStGVFKPwCLYRSpYRF7J6vVS/XxW4LzvN2b6VEKOcvJmN3LhpxFRl3YYzW+dwnwtbuHW6WJlmjffbLm1MxLFGlG95aCz31X8wzqYNsvb9+5AXcv8Ll69tLXmO1OtsY/3wILNUEp4VLZTE3wqm3n8hMnClZiiKyZCS7L4E0mClbx+BRSMH3eVo6jgve41/fK3FQM4QCNIkpGs7FjjLy+ptC+JyyWqcfvORrFV/GOgB5hD+G5ghJcIpeigD/lHsCRYsOa5sFdqREhwIWLmSWtNwfLZdJ3dkCc7yRpm3gal6qRfTkYpxTNxxKyvKbkaJDoxR9vtWrC3iNrQd9VvxC3TXtuzoHbqumeqgcAqefWF9u6snQ4Q9FkXzeuJArNuSvPIhgBjVtggH0w0vm/lmCQYiC/Y12GeCxfgYlL33buiZnNpZ1RzdKFpdHN0VG9rZW5zgaFjdmFsWQ45MIIONTADAgEAMIIOLAYJKoZIhvcNAQcCoIIOHTCCDhkCAQMxDzANBglghkgBZQMEAgEFADCBggYLKoZIhvcNAQkQAQSgcwRxMG8CAQEGCWCGSAGG/WwHATAxMA0GCWCGSAFlAwQCAQUABCDZd523PiYBkvvy58Y+7fEYuXA3XVhHAgS8ZD6n5sSTwAIQaNXvSN/qm1VP+Fa/+m8dlxgPMjAyNDExMjExOTA4MjhaAgkA5mkiSC2GgcOgggvAMIIFCjCCAvKgAwIBAgIQDAsvx3p4z7rtZVZUwZokAzANBgkqhkiG9w0BAQsFADBjMQswCQYDVQQGEwJVUzEXMBUGA1UEChMORGlnaUNlcnQsIEluYy4xOzA5BgNVBAMTMkRpZ2lDZXJ0IFRydXN0ZWQgRzQgUlNBNDA5NiBTSEEyNTYgVGltZVN0YW1waW5nIENBMB4XDTI0MTEyMDAwMDAwMFoXDTM2MDIxOTIzNTk1OVowWzELMAkGA1UEBhMCVVMxETAPBgNVBAoTCERpZ2lDZXJ0MTkwNwYDVQQDEzBFQ0MyNTZfU0hBMjU2X1RpbWVzdGFtcF9SZXNwb25kZXJfQWRvYmVfTk9WXzIwMjQwWTATBgcqhkjOPQIBBggqhkjOPQMBBwNCAATQ/B6F+IGYpiqQQLxOfqkUmeTmSRWZzxSCtwM82siW/SbXazktRyEWmwIVs+8PJjhV9C4fUJ23IGRxsfzJM8leo4IBizCCAYcwDgYDVR0PAQH/BAQDAgeAMAwGA1UdEwEB/wQCMAAwFgYDVR0lAQH/BAwwCgYIKwYBBQUHAwgwIAYDVR0gBBkwFzAIBgZngQwBBAIwCwYJYIZIAYb9bAcBMB8GA1UdIwQYMBaAFLoW2W1NhS9zKXaaL3WMaiCPnshvMB0GA1UdDgQWBBTs0RxvfOegTeQxP4cACNSt1H02uzBaBgNVHR8EUzBRME+gTaBLhklodHRwOi8vY3JsMy5kaWdpY2VydC5jb20vRGlnaUNlcnRUcnVzdGVkRzRSU0E0MDk2U0hBMjU2VGltZVN0YW1waW5nQ0EuY3JsMIGQBggrBgEFBQcBAQSBgzCBgDAkBggrBgEFBQcwAYYYaHR0cDovL29jc3AuZGlnaWNlcnQuY29tMFgGCCsGAQUFBzAChkxodHRwOi8vY2FjZXJ0cy5kaWdpY2VydC5jb20vRGlnaUNlcnRUcnVzdGVkRzRSU0E0MDk2U0hBMjU2VGltZVN0YW1waW5nQ0EuY3J0MA0GCSqGSIb3DQEBCwUAA4ICAQCi7MEg8nkvLauLI7cAj21DgnMErh0mntCt4c4tsW9yJQZdZv1n8E1dueayb6IiZ8mYambImrTeuVKwGqUSITZTiVhtFRP3zRD9DpFk+Ex4P010IStH/eD1lgK6bVfaY0gvzcIRQP3CwIzqBZAE81c5QINjPs81cvJLOFKd/cX7zOhoQvrziNDy15UNT5fuURe2fioANQsRNYOmVXAdg2TK7OktYD+EH/D8gWr7nHQhRJMuD54GNjiZnNPnYXz6F3j7Bu2aVlirvQGAAsrW27Lqhg9ksW5+aL+g9/lyqRoMrWLSy4KDQaztPB+PKskecO1R7dbJbw7UBFVl+GbGaUc4x6HvVLNNL5hHjiLrf9A4zxe52e9ZqpSU7kDu7dsRXvm+uLLMXjHFSx/j0stIcxnQHwOL4A5RRuUH1Xw1wz2CiGvIHNcoYrkqfkb6TsKJU7ntDqNKFKZ349sBErTdXwVoId4zS/cV/A5rO1Kw5aNO/zUTCtQkbcMg88XGWqImaYmIHhIvHaE1nRdPWCa0QhrxvioeP45p4/zqd/JrVbNsoEuEBSRIPB3+ViLaoFlimZRUePzwKYvyTrd6g72mVtF4Prbbvy1kqCUmsZDMFqn33DR0N8Qzqkzir3bufNyI5k95Rq3NXcbfNYDx9qZ8gjCu4NHtSxAdJKswzb9gi6jyFTCCBq4wggSWoAMCAQICEAc2N7ckVHzYR6z9KGYqXlswDQYJKoZIhvcNAQELBQAwYjELMAkGA1UEBhMCVVMxFTATBgNVBAoTDERpZ2lDZXJ0IEluYzEZMBcGA1UECxMQd3d3LmRpZ2ljZXJ0LmNvbTEhMB8GA1UEAxMYRGlnaUNlcnQgVHJ1c3RlZCBSb290IEc0MB4XDTIyMDMyMzAwMDAwMFoXDTM3MDMyMjIzNTk1OVowYzELMAkGA1UEBhMCVVMxFzAVBgNVBAoTDkRpZ2lDZXJ0LCBJbmMuMTswOQYDVQQDEzJEaWdpQ2VydCBUcnVzdGVkIEc0IFJTQTQwOTYgU0hBMjU2IFRpbWVTdGFtcGluZyBDQTCCAiIwDQYJKoZIhvcNAQEBBQADggIPADCCAgoCggIBAMaGNQZJs8E9cklRVcclA8TykTepl1Gh1tKD0Z5Mom2gsMyD+Vr2EaFEFUJfpIjzaPp985yJC3+dH54PMx9QEwsmc5Zt+FeoAn39Q7SE2hHxc7Gz7iuAhIoiGN/r2j3EF3+rGSs+QtxnjupRPfDWVtTnKC3r07G1decfBmWNlCnT2exp39mQh0YAe9tEQYncfGpXevA3eZ9drMvohGS0UvJ2R/dhgxndX7RUCyFobjchu0CsX7LeSn3O9TkSZ+8OpWNs5KbFHc02DVzV5huowWR0QKfAcsW6Th+xtVhNef7Xj3OTrCw54qVI1vCwMROpVymWJy71h6aPTnYVVSZwmCZ/oBpHIEPjQ2OAe3VuJyWQmDo4EbP29p7mO1vsgd4iFNmCKseSv6De4z6ic/rnH1pslPJSlRErWHRAKKtzQ87fSqEcazjFKfPKqpZzQmiftkaznTqj1QPgv/CiPMpC3BhIfxQ0z9JMq++bPf4OuGQq+nUoJEHtQr8FnGZJUlD0UfM2SU2LINIsVzV5K6jzRWC8I41Y99xh3pP+OcD5sjClTNfpmEpYPtMDiP6zj9NeS3YSUZPJjAw7W4oiqMEmCPkUEBIDfV8ju2TjY+Cm4T72wnSyPx4JduyrXUZ14mCjWAkBKAAOhFTuzuldyF4wEr1GnrXTdrnSDmuZDNIztM2xAgMBAAGjggFdMIIBWTASBgNVHRMBAf8ECDAGAQH/AgEAMB0GA1UdDgQWBBS6FtltTYUvcyl2mi91jGogj57IbzAfBgNVHSMEGDAWgBTs1+OC0nFdZEzfLmc/57qYrhwPTzAOBgNVHQ8BAf8EBAMCAYYwEwYDVR0lBAwwCgYIKwYBBQUHAwgwdwYIKwYBBQUHAQEEazBpMCQGCCsGAQUFBzABhhhodHRwOi8vb2NzcC5kaWdpY2VydC5jb20wQQYIKwYBBQUHMAKGNWh0dHA6Ly9jYWNlcnRzLmRpZ2ljZXJ0LmNvbS9EaWdpQ2VydFRydXN0ZWRSb290RzQuY3J0MEMGA1UdHwQ8MDowOKA2oDSGMmh0dHA6Ly9jcmwzLmRpZ2ljZXJ0LmNvbS9EaWdpQ2VydFRydXN0ZWRSb290RzQuY3JsMCAGA1UdIAQZMBcwCAYGZ4EMAQQCMAsGCWCGSAGG/WwHATANBgkqhkiG9w0BAQsFAAOCAgEAfVmOwJO2b5ipRCIBfmbW2CFC4bAYLhBNE88wU86/GPvHUF3iSyn7cIoNqilp/GnBzx0H6T5gyNgL5Vxb122H+oQgJTQxZ822EpZvxFBMYh0MCIKoFr2pVs8Vc40BIiXOlWk/R3f7cnQU1/+rT4osequFzUNf7WC2qk+RZp4snuCKrOX9jLxkJodskr2dfNBwCnzvqLx1T7pa96kQsl3p/yhUifDVinF2ZdrM8HKjI/rAJ4JErpknG6skHibBt94q6/aesXmZgaNWhqsKRcnfxI2g55j7+6adcq/Ex8HBanHZxhOACcS2n82HhyS7T6NJuXdmkfFynOlLAlKnN36TU6w7HQhJD5TNOXrd/yVjmScsPT9rp/Fmw0HNT7ZAmyEhQNC3EyTN3B14OuSereU0cZLXJmvkOHOrpgFPvT87eK1MrfvElXvtCl8zOYdBeHo46Zzh3SP9HSjTx/no8Zhf+yvYfvJGnXUsHicsJttvFXseGYs2uJPU5vIXmVnKcPA3v5gA3yAWTyf7YGcWoWa63VXAOimGsJigK+2VQbc61RWYMbRiCQ8KvYHZE/6/pNHzV9m8BPqC3jLfBInwAM1dwvnQI38AC+R2AibZ8GV2QqYphwlHK+Z/GqSFD/yYlvZVVCsfgPrA8g4r5db7qS9EFUrnEw4d2zc4GqEr9u3WfPwxggG4MIIBtAIBATB3MGMxCzAJBgNVBAYTAlVTMRcwFQYDVQQKEw5EaWdpQ2VydCwgSW5jLjE7MDkGA1UEAxMyRGlnaUNlcnQgVHJ1c3RlZCBHNCBSU0E0MDk2IFNIQTI1NiBUaW1lU3RhbXBpbmcgQ0ECEAwLL8d6eM+67WVWVMGaJAMwDQYJYIZIAWUDBAIBBQCggdEwGgYJKoZIhvcNAQkDMQ0GCyqGSIb3DQEJEAEEMBwGCSqGSIb3DQEJBTEPFw0yNDExMjExOTA4MjhaMCsGCyqGSIb3DQEJEAIMMRwwGjAYMBYEFPcTAlRkG5zO0lEtYsW/nymEjPz4MC8GCSqGSIb3DQEJBDEiBCB9kSDaR0iIl1YhwOJzmCOz4V29Fo96ebN2m3EAoqVnbzA3BgsqhkiG9w0BCRACLzEoMCYwJDAiBCC5eiZoHRjpuXxjPvhIOWRVdZeW2lBDRCyPjM3lJ+AAqTAKBggqhkjOPQQDAgRHMEUCIEG888oGUopzv6h876he4XE125E+dSAWdCXbS/IwvXHfAiEA78SE3X5xGo2PTj+PTGteSdSELo7mRJQYRqb3M7GXMZhjcGFkWROEAAAAAAAAAAAAAAAAAAAAAAAAAAAAAAAAAAAAAAAAAAAAAAAAAAAAAAAAAAAAAAAAAAAAAAAAAAAAAAAAAAAAAAAAAAAAAAAAAAAAAAAAAAAAAAAAAAAAAAAAAAAAAAAAAAAAAAAAAAAAAAAAAAAAAAAAAAAAAAAAAAAAAAAAAAAAAAAAAAAAAAAAAAAAAAAAAAAAAAAAAAAAAAAAAAAAAAAAAAAAAAAAAAAAAAAAAAAAAAAAAAAAAAAAAAAAAAAAAAAAAAAAAAAAAAAAAAAAAAAAAAAAAAAAAAAAAAAAAAAAAAAAAAAAAAAAAAAAAAAAAAAAAAAAAAAAAAAAAAAAAAAAAAAAAAAAAAAAAAAAAAAAAAAAAAAAAAAAAAAAAAAAAAAAAAAAAAAAAAAAAAAAAAAAAAAAAAAAAAAAAAAAAAAAAAAAAAAAAAAAAAAAAAAAAAAAAAAAAAAAAAAAAAAAAAAAAAAAAAAAAAAAAAAAAAAAAAAAAAAAAAAAAAAAAAAAAAAAAAAAAAAAAAAAAAAAAAAAAAAAAAAAAAAAAAAAAAAAAAAAAAAAAAAAAAAAAAAAAAAAAAAAAAAAAAAAAAAAAAAAAAAAAAAAAAAAAAAAAAAAAAAAAAAAAAAAAAAAAAAAAAAAAAAAAAAAAAAAAAAAAAAAAAAAAAAAAAAAAAAAAAAAAAAAAAAAAAAAAAAAAAAAAAAAAAAAAAAAAAAAAAAAAAAAAAAAAAAAAAAAAAAAAAAAAAAAAAAAAAAAAAAAAAAAAAAAAAAAAAAAAAAAAAAAAAAAAAAAAAAAAAAAAAAAAAAAAAAAAAAAAAAAAAAAAAAAAAAAAAAAAAAAAAAAAAAAAAAAAAAAAAAAAAAAAAAAAAAAAAAAAAAAAAAAAAAAAAAAAAAAAAAAAAAAAAAAAAAAAAAAAAAAAAAAAAAAAAAAAAAAAAAAAAAAAAAAAAAAAAAAAAAAAAAAAAAAAAAAAAAAAAAAAAAAAAAAAAAAAAAAAAAAAAAAAAAAAAAAAAAAAAAAAAAAAAAAAAAAAAAAAAAAAAAAAAAAAAAAAAAAAAAAAAAAAAAAAAAAAAAAAAAAAAAAAAAAAAAAAAAAAAAAAAAAAAAAAAAAAAAAAAAAAAAAAAAAAAAAAAAAAAAAAAAAAAAAAAAAAAAAAAAAAAAAAAAAAAAAAAAAAAAAAAAAAAAAAAAAAAAAAAAAAAAAAAAAAAAAAAAAAAAAAAAAAAAAAAAAAAAAAAAAAAAAAAAAAAAAAAAAAAAAAAAAAAAAAAAAAAAAAAAAAAAAAAAAAAAAAAAAAAAAAAAAAAAAAAAAAAAAAAAAAAAAAAAAAAAAAAAAAAAAAAAAAAAAAAAAAAAAAAAAAAAAAAAAAAAAAAAAAAAAAAAAAAAAAAAAAAAAAAAAAAAAAAAAAAAAAAAAAAAAAAAAAAAAAAAAAAAAAAAAAAAAAAAAAAAAAAAAAAAAAAAAAAAAAAAAAAAAAAAAAAAAAAAAAAAAAAAAAAAAAAAAAAAAAAAAAAAAAAAAAAAAAAAAAAAAAAAAAAAAAAAAAAAAAAAAAAAAAAAAAAAAAAAAAAAAAAAAAAAAAAAAAAAAAAAAAAAAAAAAAAAAAAAAAAAAAAAAAAAAAAAAAAAAAAAAAAAAAAAAAAAAAAAAAAAAAAAAAAAAAAAAAAAAAAAAAAAAAAAAAAAAAAAAAAAAAAAAAAAAAAAAAAAAAAAAAAAAAAAAAAAAAAAAAAAAAAAAAAAAAAAAAAAAAAAAAAAAAAAAAAAAAAAAAAAAAAAAAAAAAAAAAAAAAAAAAAAAAAAAAAAAAAAAAAAAAAAAAAAAAAAAAAAAAAAAAAAAAAAAAAAAAAAAAAAAAAAAAAAAAAAAAAAAAAAAAAAAAAAAAAAAAAAAAAAAAAAAAAAAAAAAAAAAAAAAAAAAAAAAAAAAAAAAAAAAAAAAAAAAAAAAAAAAAAAAAAAAAAAAAAAAAAAAAAAAAAAAAAAAAAAAAAAAAAAAAAAAAAAAAAAAAAAAAAAAAAAAAAAAAAAAAAAAAAAAAAAAAAAAAAAAAAAAAAAAAAAAAAAAAAAAAAAAAAAAAAAAAAAAAAAAAAAAAAAAAAAAAAAAAAAAAAAAAAAAAAAAAAAAAAAAAAAAAAAAAAAAAAAAAAAAAAAAAAAAAAAAAAAAAAAAAAAAAAAAAAAAAAAAAAAAAAAAAAAAAAAAAAAAAAAAAAAAAAAAAAAAAAAAAAAAAAAAAAAAAAAAAAAAAAAAAAAAAAAAAAAAAAAAAAAAAAAAAAAAAAAAAAAAAAAAAAAAAAAAAAAAAAAAAAAAAAAAAAAAAAAAAAAAAAAAAAAAAAAAAAAAAAAAAAAAAAAAAAAAAAAAAAAAAAAAAAAAAAAAAAAAAAAAAAAAAAAAAAAAAAAAAAAAAAAAAAAAAAAAAAAAAAAAAAAAAAAAAAAAAAAAAAAAAAAAAAAAAAAAAAAAAAAAAAAAAAAAAAAAAAAAAAAAAAAAAAAAAAAAAAAAAAAAAAAAAAAAAAAAAAAAAAAAAAAAAAAAAAAAAAAAAAAAAAAAAAAAAAAAAAAAAAAAAAAAAAAAAAAAAAAAAAAAAAAAAAAAAAAAAAAAAAAAAAAAAAAAAAAAAAAAAAAAAAAAAAAAAAAAAAAAAAAAAAAAAAAAAAAAAAAAAAAAAAAAAAAAAAAAAAAAAAAAAAAAAAAAAAAAAAAAAAAAAAAAAAAAAAAAAAAAAAAAAAAAAAAAAAAAAAAAAAAAAAAAAAAAAAAAAAAAAAAAAAAAAAAAAAAAAAAAAAAAAAAAAAAAAAAAAAAAAAAAAAAAAAAAAAAAAAAAAAAAAAAAAAAAAAAAAAAAAAAAAAAAAAAAAAAAAAAAAAAAAAAAAAAAAAAAAAAAAAAAAAAAAAAAAAAAAAAAAAAAAAAAAAAAAAAAAAAAAAAAAAAAAAAAAAAAAAAAAAAAAAAAAAAAAAAAAAAAAAAAAAAAAAAAAAAAAAAAAAAAAAAAAAAAAAAAAAAAAAAAAAAAAAAAAAAAAAAAAAAAAAAAAAAAAAAAAAAAAAAAAAAAAAAAAAAAAAAAAAAAAAAAAAAAAAAAAAAAAAAAAAAAAAAAAAAAAAAAAAAAAAAAAAAAAAAAAAAAAAAAAAAAAAAAAAAAAAAAAAAAAAAAAAAAAAAAAAAAAAAAAAAAAAAAAAAAAAAAAAAAAAAAAAAAAAAAAAAAAAAAAAAAAAAAAAAAAAAAAAAAAAAAAAAAAAAAAAAAAAAAAAAAAAAAAAAAAAAAAAAAAAAAAAAAAAAAAAAAAAAAAAAAAAAAAAAAAAAAAAAAAAAAAAAAAAAAAAAAAAAAAAAAAAAAAAAAAAAAAAAAAAAAAAAAAAAAAAAAAAAAAAAAAAAAAAAAAAAAAAAAAAAAAAAAAAAAAAAAAAAAAAAAAAAAAAAAAAAAAAAAAAAAAAAAAAAAAAAAAAAAAAAAAAAAAAAAAAAAAAAAAAAAAAAAAAAAAAAAAAAAAAAAAAAAAAAAAAAAAAAAAAAAAAAAAAAAAAAAAAAAAAAAAAAAAAAAAAAAAAAAAAAAAAAAAAAAAAAAAAAAAAAAAAAAAAAAAAAAAAAAAAAAAAAAAAAAAAAAAAAAAAAAAAAAAAAAAAAAAAAAAAAAAAAAAAAAAAAAAAAAAAAAAAAAAAAAAAAAAAAAAAAAAAAAAAAAAAAAAAAAAAAAAAAAAAAAAAAAAAAAAAAAAAAAAAAAAAAAAAAAAAAAAAAAAAAAAAAAAAAAAAAAAAAAAAAAAAAAAAAAAAAAAAAAAAAAAAAAAAAAAAAAAAAAAAAAAAAAAAAAAAAAAAAAAAAAAAAAAAAAAAAAAAAAAAAAAAAAAAAAAAAAAAAAAAAAAAAAAAAAAAAAAAAAAAAAAAAAAAAAAAAAAAAAAAAAAAAAAAAAAAAAAAAAAAAAAAAAAAAAAAAAAAAAAAAAAAAAAAAAAAAAAAAAAAAAAAAAAAAAAAAAAAAAAAAAAAAAAAAAAAAAAAAAAAAAAAAAAAAAAAAAAAAAAAAAAAAAAAAAAAAAAAAAAAAAAAAAAAAAAAAAAAAAAAAAAAAAAAAAAAAAAAAAAAAAAAAAAAAAAAAAAAAAAAAAAAAAAAAAAAAAAAAAAAAAAAAAAAAAAAAAAAAAAAAAAAAAAAAAAAAAAAAAAAAAAAAAAAAAAAAAAAAAAAAAAAAAAAAAAAAAAAAAAAAAAAAAAAAAAAAAAAAAAAAAAAAAAAAAAAAAAAAAAAAAAAAAAAAAAAAAAAAAAAAAAAAAAAAAAAAAAAAAAAAAAAAAAAAAAAAAAAAAAAAAAAAAAAAAAAAAAAAAAAAAAAAAAAAAAAAAAAAAAAAAAAAAAAAAAAAAAAAAAAAAAAAAAAAAAAAAAAAAAAAAAAAAAAAAAAAAAAAAAAAAAAAAAAAAAAAAAAAAAAAAAAAAAAAAAAAAAAAAAAAAAAAAAAAAAAAAAAAAAAAAAAAAAAAAAAAAAAAAAAAAAAAAAAAAAAAAAAAAAAAAAAAAAAAAAAAAAAAAAAAAAAAAAAAAAAAAAAAAAAAAAAAAAAAAAAAAAAAAAAAAAAAAAAAAAAAAAAAAAAAAAAAAAAAAAAAAAAAAAAAAAAAAAAAAAAAAAAAAAAAAAAAAAAAAAAAAAAAAAAAAAAAAAAAAAAAAAAAAAAAAAAAAAAAAAAAAAAAAAAAAAAAAAAAAAAAAAAAAAAAAAAAAAAAAAAAAAAAAAAAAAAAAAAAAAAAAAAAAAAAAAAAAAAAAAAAAAAAAAAAAAAAAAAAAAAAAAAAAAAAAAAAAAAAAAAAAAAAAAAAAAAAAAAAAAAAAAAAAAAAAAAAAAAAAAAAAAAAAAAAAAAAAAAAAAAAAAAAAAAAAAAAAAAAAAAAAAAAAAAAAAAAAAAAAAAAAAAAAAAAAAAAAAAAAAAAAAAAAAAAAAAAAAAAAAAAAAAAAAAAAAAAAAAAAAAAAAAAAAAAAAAAAAAAAAAAAAAAAAAAAAAAAAAAAAAAAAAAAAAAAAAAAAAAAAAAAAAAAAAAAAAAAAAAAAAAAAAAAAAAAAAAAAAAAAAAAAAAAAAAAAAAAAAAAAAAAAAAAAAAAAAAAAAAAAAAAAAAAAAAAAAAAAAAAAAAAAAAAAAAAAAAAAAAAAAAAAAAAAAAAAAAAAAAAAAAAAAAAAAAAAAAAAAAAAAAAAAAAAAAAAAAAAAAAAAAAAAAAAAAAAAAAAAAAAAAAAAAAAAAAAAAAAAAAAAAAAAAAAAAAAAAAAAAAAAAAAAAAAAAAAAAAAAAAAAAAAAAAAAAAAAAAAAAAAAAAAAAAAAAAAAAAAAAAAAAAAAAAAAAAAAAAAAAAAAAAAAAAAAAAAAAAAAAAAAAAAAAAAAAAAAAAAAAAAAAAAAAAAAAAAAAAAAAAAAAAAAAAAAAAAAAAAAAAAAAAAAAAAAAAAAAAAAAAAAAAAAAAAAAAAAAAAAAAAAAAAAAAAAAAAAAAAAAAAAAAAAAAAAAAAAAAAAAAAAAAAAAAAAAAAAAAAAAAAAAAAAAAAAAAAAAAAAAAAAAAAAAAAAAAAAAAAAAAAAAAAAAAAAAAAAAAAAAAAAAAAAAAAAAAAAAAAAAAAAAAAAAAAAAAAAAAAAAAAAAAAAAAAAAAAAAAAAAAAAAAAAAAAAAAAAAAAAAAAAAAAAAAAAAAAAAAAAAAAAAAAAAAAAAAAAAAAAAAAAAAAAAAAAAAAAAAAAAAAAAAAAAAAAAAAAAAAAAAAAAAAAAAAAAAAAAAAAAAAAAAAAAAAAAAAAAAAAAAAAAAAAAAAAAAAAAAAAAAAAAAAAAAAAAAAAAAAAAAAAAAAAAAAAAAAAAAAAAAAAAAAAAAAAAAAAAAAAAAAAAAAAAAAAAAAAAAAAAAAAAAAAAAAAAAAAAAAAAAAAAAAAAAAAAAAAAAAAAAAAAAAAAAAAAAAAAAAAAAAAAAAAAAAAAAAAAAAAAAAAAAAAAAAAAAAAAAAAAAAAAAAAAAAAAAAAAAAAAAAAAAAAAAAAAAAAAAAAAAAAAAAAAAAAAAAAAAAAAAAAAAAAAAAAAAAAAAAAAAAAAAAAAAAAAAAAAAAAAAAAAAAAAAAAAAAAAAAAAAAAAAAAAAAAAAAAAAAAAAAAAAAAAAAAAAAAAAAAAAAAAAAAAAAAAAAAAAAAAAAAAAAAAAAAAAAAAAAAAAAAAAAAAAAAAAAAAAAAAAAAAAAAAAAAAAAAAAAAAAAAAAAAAAAAAAAAAAAAAAAAAAAAAAAAAAAAAAAAAAAAAAAAAAAAAAAAAAAAAAAAAAAAAAAAAAAAAAAAAAAAAAAAAAAAAAAAAAAAAAAAAAAAAAAAAAAAAAAAAAAAAAAAAAAAAAAAAAAAAAAAAAAAAAAAAAAAAAAAAAAAAAAAAAAAAAAAAAAAAAAAAAAAAAAAAAAAAAAAAAAAAAAAAAAAAAAAAAAAAAAAAAAAAAAAAAAAAAAAAAAAAAAAAAAAAAAAAAAAAAAAAAAAAAAAAAAAAAAAAAAAAAAAAAAAAAAAAAAAAAAAAAAAAAAAAAAAAAAAAAAAAAAAAAAAAAAAAAAAAAAAAAAAAAAAAAAAAAAAAAAAAAAAAAAAAAAAAAAAAAAAAAAAAAAAAAAAAAAAAAAAAAAAAAAAAAAAAAAAAAAAAAAAAAAAAAAAAAAAAAAAAAAAAAAAAAAAAAAPZZAQCRTQGfnFgoakn+nCGtq4W3+Nq8bA9OMoLWWms0EOa9to6ciblG6fIhZ/zk5lUZuV7+iMGsDdEFY6KF3/HirEH2oVdWlhZWgzL3nspdx9pZXVssNri6XymxG/JMfYqyqmknzeBF/XYkHBBX6kkzuft7iNpsiFXyP07lELx6Q/ob3dhpvfPzosJjgBL17bkk1XVK5T3GjV57btiool3EIbiYQ+6jT8gHsBeY1Wal1hd9zr8S2n6UWTH46bbkp8//2wu8qNJ2zU8kupxysld4aK7X2of/us0TDVuG4i0dcGE1akoJ4AFTttJB1GhP1jsZ4+v2kyof8AmLRCE4UQT98zjV</c2pa:manifest></metadata>
  <defs>
    <linearGradient id="linear-gradient" x1="34.15" y1="23.49" x2="183.55" y2="92.28" gradientUnits="userSpaceOnUse">
      <stop offset="0" stop-color="#f67425"/>
      <stop offset=".48" stop-color="#fbac2f"/>
      <stop offset="1" stop-color="#f46e23"/>
    </linearGradient>
    <linearGradient id="linear-gradient-2" x1="114.47" y1="41.42" x2="151.73" y2="79.2" gradientUnits="userSpaceOnUse">
      <stop offset="0" stop-color="#fbb833"/>
      <stop offset="1" stop-color="#f57426"/>
    </linearGradient>
    <linearGradient id="linear-gradient-3" x1="99.44" y1="59.56" x2="57.06" y2="62.94" gradientUnits="userSpaceOnUse">
      <stop offset="0" stop-color="#f7862a"/>
      <stop offset="1" stop-color="#fbb432"/>
    </linearGradient>
    <linearGradient id="linear-gradient-4" x1="135.85" y1="110.6" x2="128.49" y2="151.35" gradientUnits="userSpaceOnUse">
      <stop offset="0" stop-color="#fba931"/>
      <stop offset="1" stop-color="#f67828"/>
    </linearGradient>
    <linearGradient id="linear-gradient-5" x1="149.68" y1="81.16" x2="55.86" y2="176" gradientUnits="userSpaceOnUse">
      <stop offset="0" stop-color="#14c4b5"/>
      <stop offset=".39" stop-color="#1ca3a0"/>
      <stop offset=".44" stop-color="#1ca09e"/>
      <stop offset="1" stop-color="#0b8891"/>
    </linearGradient>
    <linearGradient id="linear-gradient-6" x1="70.75" y1="108.66" x2="87.71" y2="151.94" gradientUnits="userSpaceOnUse">
      <stop offset="0" stop-color="#faa030"/>
      <stop offset="1" stop-color="#f46d24"/>
    </linearGradient>
  </defs>
  <g>
    <path d="M200.24,77.84l.45,3.5-26.56.27c.05-1.63-3.42-.38-4.22-.81-.59-.31-1.97-10.14-2.57-11.98-6.94-21.58-30.36-39.43-55.68-41.07-36.78-2.39-65.54,20.93-70.31,52.79l-29.57.27c-.27-1.67-.63-2.64,1.06-3.5,5.14-1.23,10.63-1.42,15.69-2.96l.45.27,4.68-14.14-14.49-11.31,8-12.52,18.71,5.66,11.62-9.83-6.34-16.43,14.18-8.21c.39-.07.68-.18,1.06-.27l11.77,13.2c4.84-1.99,10.18-2.5,15.24-3.77.04,0,.14.48.75.27,1.41-.59,2.85-14.6,4.07-16.02.88-1.02,3.16.3,3.92-.94,4.35-.33,8.64-.46,12.98.13l3.47,16.83,14.49,3.5,12.67-13.2c2.41.58,16.02,7.01,16.14,8.48s-7.22,15.1-6.94,16.16l10.71,9.83,18.11-5.92c1.47.08,8.83,12.07,9.51,14.14l-14.79,10.77,3.62,13.47c.55.73,15.8,2.42,18.11,3.37Z" style="fill: url(#linear-gradient);"/>
    <path d="M200.24,77.84c2.17.89,1.05,2.21,1.06,4.31h-35.31c-1.86-20.65-16.94-39.96-38.93-47.13-38.72-12.62-77.79,11.34-81.48,47.13H10.27c-.45-.16-.24-3.98-.15-4.17.38-.85,2.13-.53,2.72-.67-1.68.86-1.33,1.83-1.06,3.5l29.57-.27c4.77-31.86,33.53-55.17,70.31-52.79,25.32,1.64,48.74,19.49,55.68,41.07.59,1.84,1.98,11.67,2.57,11.98.8.43,4.28-.82,4.22.81l26.56-.27-.45-3.5Z" style="fill: #f06821;"/>
    <path d="M110.16,40.14c18.07,1.19,35.32,12.2,42.4,27.07.86,1.81,5.33,14.21,3.47,14.95h-13.88c-2.28-15.36-15.24-26.64-32.14-29.22l.15-12.79Z" style="fill: url(#linear-gradient-2);"/>
    <path d="M55.09,81.07c-.3-2.26,2.52-10.64,3.62-13.06,5.63-12.39,20.85-24.75,35.91-26.8.68-.09,6.15-.64,6.34-.4v8.08c-.25.56-7.21,1.82-8.6,2.29-10.06,3.41-19.54,11.08-23.69,20.06-1.48,3.21-1.93,6.88-3.47,9.83h-10.11Z" style="fill: url(#linear-gradient-3);"/>
    <path d="M55.09,81.07h10.11c1.54-2.95,1.99-6.62,3.47-9.83,4.15-8.98,13.63-16.65,23.69-20.06,1.39-.47,8.35-1.73,8.6-2.29v-8.08c-.18-.23-5.65.31-6.34.4,1.02-.49,6.84-1.49,7.24-.67v12.39c-16.77,2.33-30.07,13.69-32.14,28.95l-14.18.27c-.58-.33-.39-.62-.45-1.08Z" style="fill: #f06821;"/>
    <path d="M28.53,74.34l4.53-13.33-14.79-11.31,9.2-13.87,18.41,5.92,11.01-9.83-6.34-16.43c.26-.73,13.7-7.49,14.79-7.68l-14.18,8.21,6.34,16.43-11.62,9.83-18.71-5.66-8,12.52,14.49,11.31-4.68,14.14-.45-.27Z" style="fill: #f06821;"/>
    <path d="M102.16.28c-.76,1.24-3.04-.08-3.92.94-1.23,1.43-2.67,15.44-4.07,16.02-.62.21-.72-.28-.75-.27l3.32-16.02c.73-1.02,4.13-.57,5.43-.67Z" style="fill: #f06821;"/>
    <g>
      <path d="M109.55,142.87c18.38-1.54,34.69-16.06,35.61-32.59,3.44-.18,6.96.13,10.41,0,1.88.74-2.61,12.9-3.47,14.68-7.01,14.51-24.6,26.49-42.55,26.93.12-3-.16-6.03,0-9.02Z" style="fill: url(#linear-gradient-4);"/>
      <path d="M145.16,110.28c-.92,16.53-17.23,31.05-35.61,32.59.04-.75-.19-3.41.15-3.77,16.23-1.88,29.83-13.81,31.54-28.41.46-.7,3.04-.36,3.92-.4Z" style="fill: #f06821;"/>
      <g>
        <path d="M169.3,112.44l28.97-.4-.15,2.29-15.54,2.56c-2.78,4.03-2.35,9.69-5.43,13.73l.45.67c.13-.11.33-.36.45-.27,5.02,3.59,9.75,7.58,14.79,11.18l-9.35,14.14c.14-.69-.74-.68-1.21-.81-.29-.08-.57-.19-.91-.27-.71-.21-1.52-.55-2.41-.81-1.1-.37-2.22-.71-3.32-1.08-.3-.09-.61-.18-.91-.27-1.14-.38-2.15-.73-3.32-1.08-.3-.09-.61-.18-.91-.27-1.44-.43-2.85-1.31-4.38-1.62-.25.03-.12.53-.15.54-2.93,1.13-8.29,8.22-11.77,9.83l6.34,16.16c-.3.93-12.69,7.19-14.49,7.68-.9-.05-1.29-.67-1.81-1.21-3.69-3.88-7.04-8.09-10.71-11.98-.97-.22-.71.53-.75.54-4.96.76-9.74,3.32-14.94,3.5l-3.77,16.83c-.36.39-7.03.64-8.15.67l-8.75-.94c-.33-2.16-2.45-15.72-3.47-16.29-.32-.05-.8.08-1.06,0-4.99-1.51-10.56-2.09-15.54-3.77-.81.25-8.81,10.3-10.71,11.85-.66-.14-.77.57-1.36.54-1.49-.08-11.03-6.49-13.43-7.14l6.04-16.7-11.62-9.83c-.61-.44-1,0-1.06,0-3.71.33-11.51,3.95-15.99,4.85l-9.05-12.52,14.49-11.85c-2.34-4.19-3.01-9.15-5.73-13.06-4.89-1.66-11.88-1.26-16.9-2.69l-.15-3.77,29.57.54c4.82,47.16,68.8,70.11,108.03,36.63,12.14-10.36,17.17-21.58,20.07-36.09Z" style="fill: url(#linear-gradient-5);"/>
        <path d="M181.37,110.28c-4.49.22-7.27,1.47-11.92,1.08-.95.53-.14,1.02-.15,1.08-2.9,14.51-7.93,25.73-20.07,36.09-39.23,33.48-103.21,10.53-108.03-36.63l-29.57-.54.15,3.77c-3.31-.94-2-1.85-1.96-4.85h35.31c3.06,35.56,42.65,59.49,80.88,47.13,21.23-6.86,37.96-26.45,39.08-46.73.35-.7,14.36-.39,16.3-.4Z" style="fill: #09888f;"/>
        <path d="M28.97,155.26c-.69.14-1.44.69-2.26.54l-8.9-13.33,14.79-11.85-3.92-12.79c2.72,3.91,3.39,8.87,5.73,13.06l-14.49,11.85,9.05,12.52Z" style="fill: #066471;"/>
        <path d="M178.05,131.02c-.13-.09-.32.16-.45.27l-.45-.67c3.08-4.04,2.65-9.71,5.43-13.73l15.54-2.56.15-2.29-28.97.4c.01-.05-.8-.54.15-1.08,4.65.4,7.43-.86,11.92-1.08,6.59-.05,13.57-.22,19.92.13-.61.64-.17,4.13-.3,4.31-.7.93-16.28,2.56-18.56,3.1l-4.38,13.2Z" style="fill: #04b3ab;"/>
        <path d="M66.39,183.54c-.38.31-.67,1.09-1.36,1.08l-15.54-7.68,6.34-16.97-10.86-9.56c.05,0,.44-.44,1.06,0l11.62,9.83-6.04,16.7c2.4.65,11.94,7.05,13.43,7.14.59.03.7-.68,1.36-.54Z" style="fill: #066471;"/>
        <path d="M105.93,192.69c-1.36.04-9.74.09-10.26-.4l-3.02-16.83c.25.08.74-.05,1.06,0,1.02.57,3.14,14.14,3.47,16.29l8.75.94Z" style="fill: #066471;"/>
        <path d="M146.06,184.34c-.17.05-.8.78-1.36.54l-11.92-13.2s-.22-.76.75-.54c3.67,3.89,7.02,8.1,10.71,11.98.52.54.91,1.16,1.81,1.21Z" style="fill: #077781;"/>
        <path d="M170.51,151.76c-1.19-.37-3.24-.49-4.53-1.08.03-.01-.1-.51.15-.54,1.53.31,2.94,1.18,4.38,1.62Z" style="fill: #09888f;"/>
        <path d="M174.73,153.1c-1.03-.32-2.29-.77-3.32-1.08,1.17.35,2.18.7,3.32,1.08Z" style="fill: #09888f;"/>
        <path d="M178.96,154.45c-1.18-.34-2.31-.77-3.32-1.08,1.1.37,2.22.7,3.32,1.08Z" style="fill: #09888f;"/>
        <path d="M181.37,155.26c-1.41-.35-1.44-.48-2.41-.81.89.26,1.71.6,2.41.81Z" style="fill: #09888f;"/>
        <path d="M183.48,156.34c-.85.02-1.14-.78-1.21-.81.46.13,1.35.12,1.21.81Z" style="fill: #09888f;"/>
        <path d="M171.41,152.03c-.3-.09-.61-.18-.91-.27.29.09.61.18.91.27Z" style="fill: #09888f;"/>
        <path d="M175.64,153.37c-.28-.1-.59-.16-.91-.27.3.09.6.18.91.27Z" style="fill: #09888f;"/>
        <path d="M182.28,155.53c-.22-.08-.65-.19-.91-.27.34.08.61.19.91.27Z" style="fill: #09888f;"/>
      </g>
      <g>
        <path d="M55.08,110.28h13.88c2.82,15.22,15.26,26.67,32.44,28.95l-.15,12.79c-18.74-.94-36.58-12.81-43.3-28.41-.71-1.65-4.38-12.74-2.87-13.33Z" style="fill: url(#linear-gradient-6);"/>
        <path d="M65.64,110.82c.69.11,2.4-.21,2.87.13.4.3,1.93,7.24,2.72,8.89,4.09,8.53,13.11,15.38,22.78,18.45,3.39,1.07,7.9-.16,6.34,4.31-17.82-1.79-33.91-15.55-34.7-31.78Z" style="fill: #f06821;"/>
      </g>
    </g>
  </g>
  <g>
    <rect y="82.59" width="207.52" height="26.78" style="fill: none;"/>
    <path d="M11.29,91.8c0-2.04,1.27-4.39,4.27-4.39s4.27,2.23,4.27,4.39v.96h-1.63v-.96c0-1.25-.65-2.81-2.64-2.81s-2.64,1.58-2.64,2.81c0,1.97,1.44,2.62,2.5,3.17,2.57,1.34,4.42,1.99,4.42,5.23,0,2.09-1.03,4.34-4.27,4.34-3,0-4.27-2.23-4.27-4.39v-1.68h1.63v1.68c0,1.25.65,2.81,2.64,2.81,2.18,0,2.64-1.58,2.64-2.76,0-1.7-.84-2.52-2.64-3.34-1.85-.84-4.27-1.97-4.27-5.06Z" style="fill: #d84727;"/>
    <path d="M23.05,87.72h8.71v1.58h-7.08v5.88h6.34v1.58h-6.34v5.88h7.08v1.58h-8.71v-16.51Z" style="fill: #d84727;"/>
    <path d="M34.81,104.24v-16.51h1.58l5.33,12.36v-12.36h1.63v16.51h-1.58l-5.33-12.36v12.36h-1.63Z" style="fill: #d84727;"/>
    <path d="M46.57,104.24v-16.51h1.58l5.33,12.36v-12.36h1.63v16.51h-1.58l-5.33-12.36v12.36h-1.63Z" style="fill: #d84727;"/>
    <path d="M57.9,104.24l3.31-16.51h2.78l3.31,16.51h-1.7l-.74-3.77h-4.51l-.74,3.77h-1.7ZM64.54,98.88l-1.94-9.72-1.94,9.72h3.89Z" style="fill: #d84727;"/>
    <path d="M81.42,104.24l3.31-16.51h2.78l3.31,16.51h-1.7l-.74-3.77h-4.51l-.74,3.77h-1.7ZM88.06,98.88l-1.94-9.72-1.94,9.72h3.89Z" style="fill: #d84727;"/>
    <path d="M95.24,87.72v12.43c0,1.2.7,2.81,2.64,2.81s2.64-1.61,2.64-2.81v-12.43h1.63v12.43c0,2.11-1.27,4.39-4.27,4.39s-4.27-2.28-4.27-4.39v-12.43h1.63Z" style="fill: #d84727;"/>
    <path d="M105.22,87.72h8.83v1.58h-3.6v14.93h-1.63v-14.93h-3.6v-1.58Z" style="fill: #d84727;"/>
    <path d="M117.13,100.16v-8.35c0-2.11,1.27-4.39,4.27-4.39s4.27,2.28,4.27,4.39v8.35c0,2.11-1.27,4.39-4.27,4.39s-4.27-2.28-4.27-4.39ZM124.04,91.8c0-1.2-.7-2.81-2.64-2.81s-2.64,1.61-2.64,2.81v8.35c0,1.2.7,2.81,2.64,2.81s2.64-1.61,2.64-2.81v-8.35Z" style="fill: #d84727;"/>
    <path d="M130.42,87.72l2.74,7.15,2.74-7.15h1.63v16.51h-1.63v-12.05l-2.74,6.98-2.74-6.98v12.05h-1.63v-16.51h1.63Z" style="fill: #d84727;"/>
    <path d="M140.21,104.24l3.31-16.51h2.78l3.31,16.51h-1.7l-.74-3.77h-4.51l-.74,3.77h-1.7ZM146.86,98.88l-1.94-9.72-1.94,9.72h3.89Z" style="fill: #d84727;"/>
    <path d="M152.26,87.72h8.83v1.58h-3.6v14.93h-1.63v-14.93h-3.6v-1.58Z" style="fill: #d84727;"/>
    <path d="M172.76,87.72v1.58h-3.5v13.35h3.5v1.58h-8.64v-1.58h3.5v-13.35h-3.5v-1.58h8.64Z" style="fill: #d84727;"/>
    <path d="M175.92,100.16v-8.35c0-2.11,1.27-4.39,4.27-4.39s4.27,2.28,4.27,4.39v8.35c0,2.11-1.27,4.39-4.27,4.39s-4.27-2.28-4.27-4.39ZM182.84,91.8c0-1.2-.7-2.81-2.64-2.81s-2.64,1.61-2.64,2.81v8.35c0,1.2.7,2.81,2.64,2.81s2.64-1.61,2.64-2.81v-8.35Z" style="fill: #d84727;"/>
    <path d="M187.68,104.24v-16.51h1.58l5.33,12.36v-12.36h1.63v16.51h-1.58l-5.33-12.36v12.36h-1.63Z" style="fill: #d84727;"/>
  </g>
</svg>