<?xml version="1.0" encoding="UTF-8"?><svg xmlns="http://www.w3.org/2000/svg" xmlns:xlink="http://www.w3.org/1999/xlink" viewBox="0 0 321.73 106.81"><metadata><c2pa:manifest xmlns:c2pa="http://c2pa.org/manifest">AAA0RGp1bWIAAAAeanVtZGMycGEAEQAQgAAAqgA4m3EDYzJwYQAAADQeanVtYgAAAEdqdW1kYzJtYQARABCAAACqADibcQN1cm46dXVpZDowODUwYmVjMC00Njk3LTRiNDgtOGM2OS00YzNlYzRkMmQ0MDAAAAABtGp1bWIAAAApanVtZGMyYXMAEQAQgAAAqgA4m3EDYzJwYS5hc3NlcnRpb25zAAAAANdqdW1iAAAAJmp1bWRjYm9yABEAEIAAAKoAOJtxA2MycGEuYWN0aW9ucwAAAACpY2JvcqFnYWN0aW9uc4GjZmFjdGlvbmtjMnBhLmVkaXRlZG1zb2Z0d2FyZUFnZW50bUFkb2JlIEZpcmVmbHlxZGlnaXRhbFNvdXJjZVR5cGV4U2h0dHA6Ly9jdi5pcHRjLm9yZy9uZXdzY29kZXMvZGlnaXRhbHNvdXJjZXR5cGUvY29tcG9zaXRlV2l0aFRyYWluZWRBbGdvcml0aG1pY01lZGlhAAAArGp1bWIAAAAoanVtZGNib3IAEQAQgAAAqgA4m3EDYzJwYS5oYXNoLmRhdGEAAAAAfGNib3KlamV4Y2x1c2lvbnOBomVzdGFydBjUZmxlbmd0aBlFsGRuYW1lbmp1bWJmIG1hbmlmZXN0Y2FsZ2ZzaGEyNTZkaGFzaFggFHt8/zVB12fnCFweYf1oHk1rJ0T4xxYLDMmWBX3ZHtJjcGFkSQAAAAAAAAAAAAAAAgtqdW1iAAAAJGp1bWRjMmNsABEAEIAAAKoAOJtxA2MycGEuY2xhaW0AAAAB32Nib3KoaGRjOnRpdGxlb0dlbmVyYXRlZCBJbWFnZWlkYzpmb3JtYXRtaW1hZ2Uvc3ZnK3htbGppbnN0YW5jZUlEeCx4bXA6aWlkOjc0YzQyNzFiLWE0MDctNDM2MS04YjRhLTJjODdmNDdmOTk1ZG9jbGFpbV9nZW5lcmF0b3J4NkFkb2JlX0lsbHVzdHJhdG9yLzI5LjAgYWRvYmVfYzJwYS8wLjcuNiBjMnBhLXJzLzAuMjUuMnRjbGFpbV9nZW5lcmF0b3JfaW5mb4G/ZG5hbWVxQWRvYmUgSWxsdXN0cmF0b3JndmVyc2lvbmQyOS4w/2lzaWduYXR1cmV4GXNlbGYjanVtYmY9YzJwYS5zaWduYXR1cmVqYXNzZXJ0aW9uc4KiY3VybHgnc2VsZiNqdW1iZj1jMnBhLmFzc2VydGlvbnMvYzJwYS5hY3Rpb25zZGhhc2hYIEppwb3/qN5BMHi+JO3M+DE6wdFklTRWcaANawazN9SvomN1cmx4KXNlbGYjanVtYmY9YzJwYS5hc3NlcnRpb25zL2MycGEuaGFzaC5kYXRhZGhhc2hYIPIRXpSAI+SktVlvQiWf22ZRid0ZqcwD2Jk49uqVLXRGY2FsZ2ZzaGEyNTYAADAQanVtYgAAAChqdW1kYzJjcwARABCAAACqADibcQNjMnBhLnNpZ25hdHVyZQAAAC/gY2JvctKEWQzvogE4JBghglkGPTCCBjkwggQhoAMCAQICEBWN/yesI9K4JUtOYzceHZ4wDQYJKoZIhvcNAQELBQAwdTELMAkGA1UEBhMCVVMxIzAhBgNVBAoTGkFkb2JlIFN5c3RlbXMgSW5jb3Jwb3JhdGVkMR0wGwYDVQQLExRBZG9iZSBUcnVzdCBTZXJ2aWNlczEiMCAGA1UEAxMZQWRvYmUgUHJvZHVjdCBTZXJ2aWNlcyBHMzAeFw0yNDEwMTUwMDAwMDBaFw0yNTEwMTUyMzU5NTlaMIGrMRMwEQYDVQQDDApBZG9iZSBDMlBBMSgwJgYDVQQLDB9Db250ZW50IEF1dGhlbnRpY2l0eSBJbml0aWF0aXZlMRMwEQYDVQQKDApBZG9iZSBJbmMuMREwDwYDVQQHDAhTYW4gSm9zZTETMBEGA1UECAwKQ2FsaWZvcm5pYTELMAkGA1UEBhMCVVMxIDAeBgkqhkiG9w0BCQEWEWNhaS1vcHNAYWRvYmUuY29tMIIBIjANBgkqhkiG9w0BAQEFAAOCAQ8AMIIBCgKCAQEAwxDBgdB9PXLpMXPw5oNgYkFWDPP1aSfth9TZPINOtOQlhp1v4h+hMxZWFjkZ3RJRuoSBrsSSYBaEfiDMKisi/sOxuFHKBV//l1rv3SrjrixANXIlqjGdIYydaMaFa/5ovFz/m4+SUz0ccYzqw+vSAzuRySGnpgm8Gmj+SEJcL/GIHzqU9bUy3NsizY2oY28yj32rbkOqeADSM51OqIJKloEBFFexzMunzpU+K2sLqheoR8FJMaR0fGXa/gqRzhkiBFhwUhLPS9s6+TCnz09UZMlXbdG/iFKj3UPFUDjqh0wtFgcz24DrUlaWeiltKHouymBHuirzvmOG0VtSPepxOQIDAQABo4IBjDCCAYgwDAYDVR0TAQH/BAIwADAOBgNVHQ8BAf8EBAMCB4AwHgYDVR0lBBcwFQYJKoZIhvcvAQEMBggrBgEFBQcDBDCBjgYDVR0gBIGGMIGDMIGABgkqhkiG9y8BAgMwczBxBggrBgEFBQcCAjBlDGNZb3UgYXJlIG5vdCBwZXJtaXR0ZWQgdG8gdXNlIHRoaXMgTGljZW5zZSBDZXJ0aWZpY2F0ZSBleGNlcHQgYXMgcGVybWl0dGVkIGJ5IHRoZSBsaWNlbnNlIGFncmVlbWVudC4wXQYDVR0fBFYwVDBSoFCgToZMaHR0cDovL3BraS1jcmwuc3ltYXV0aC5jb20vY2FfN2E1YzNhMGM3MzExNzQwNmFkZDE5MzEyYmMxYmMyM2YvTGF0ZXN0Q1JMLmNybDA3BggrBgEFBQcBAQQrMCkwJwYIKwYBBQUHMAGGG2h0dHA6Ly9wa2ktb2NzcC5zeW1hdXRoLmNvbTAfBgNVHSMEGDAWgBRXKXoyTcz+5DVOwB8kc85zU6vfajANBgkqhkiG9w0BAQsFAAOCAgEAqrl6FLQ+c9LYaf0igyTgErNL9XmmieiT3ohKFevJ3BN7kWkZD1znbVw3XnX5tgQaKq+AiSCldNxYEKqU+Rq9Lr26GGglBSA0s/Ds2kw+2LlnTmojAHCH3CvVRbhGHHrashmnfgwmF1TSkaWk7NxEhbt9wQoiEMkLSQeM4S4Cu+176FzEdy+zzkDkRWqeSOQO/qG2WRto/vIq30ECf6v6FtazJI1CWIqhBK5oJioSNbLsCVJhar3Uca9D11ujeZW4k2jPCsnzriTmFqVftd3k2SXUQg7wQcQcXfKBItWZt8ztn0IYoZzJa1x9l9dvXKAJvNsDoz4uDerS8z9rzLsEQvzL1yPbTp4+/6mTTAWsoaDtmkZgm3X+sffPX3XzMFmfzIHiYfUja5nKK2bs4P71tit/1U/FD2xdlpzZSupRqCMGz+UTeXI8IrN5ZR/+F8rSsmRAStjnggz/wDucwcDlJbY4/RKq3BrAi4LamLMIfwo/dbL55TDlIOd7HCfmSgabc1WO0Kji3LW/VZnP9VG8WiUG+WqtN1OQIAZmFUOWdXQGLag+I1OaZ1BXJDNsJiXcg2TGNBSEPo44Akfn9MzFGKyB5UurMN4NH0qlamhrhKiV0+b73Fjx330P/frxBmzx5NpAQhNKksx+F4z1S8Ay1o2TBIkkeAFbDzy8f/FxuytZBqUwggahMIIEiaADAgECAhAMqLZUe4nm0gaJdc2Lm4niMA0GCSqGSIb3DQEBCwUAMGwxCzAJBgNVBAYTAlVTMSMwIQYDVQQKExpBZG9iZSBTeXN0ZW1zIEluY29ycG9yYXRlZDEdMBsGA1UECxMUQWRvYmUgVHJ1c3QgU2VydmljZXMxGTAXBgNVBAMTEEFkb2JlIFJvb3QgQ0EgRzIwHhcNMTYxMTI5MDAwMDAwWhcNNDExMTI4MjM1OTU5WjB1MQswCQYDVQQGEwJVUzEjMCEGA1UEChMaQWRvYmUgU3lzdGVtcyBJbmNvcnBvcmF0ZWQxHTAbBgNVBAsTFEFkb2JlIFRydXN0IFNlcnZpY2VzMSIwIAYDVQQDExlBZG9iZSBQcm9kdWN0IFNlcnZpY2VzIEczMIICIjANBgkqhkiG9w0BAQEFAAOCAg8AMIICCgKCAgEAtx8uvb0Js1xIbP4Mg65sAepReCWkgD6Jp7GyiGTa9ol2gfn5HfOV/HiYjZiOz+TuHFU+DXNad86xEqgVeGVMlvIHGe/EHcKBxvEDXdlTXB5zIEkfl0/SGn7J6vTX8MNybfSi95eQDUOZ9fjCaq+PBFjS5ZfeNmzi/yR+MsA0jKKoWarSRCFFFBpUFQWfAgLyXOyxOnXQOQudjxNj6Wu0X0IB13+IH11WcKcWEWXM4j4jh6hLy29Cd3EoVG3oxcVenMF/EMgD2tXjx4NUbTNB1/g9+MR6Nw5Mhp5k/g3atNExAxhtugC+T3SDShSEJfs2quiiRUHtX3RhOcK1s1OJgT5s2s9xGy5/uxVpcAIaK2KiDJXW3xxN8nXPmk1NSVu/mxtfapr4TvSJbhrU7UA3qhQY9n4On2sbH1X1Tw+7LTek8KCA5ZDghOERPiIp/Jt893qov1bE5rJkagcVg0Wqjh89NhCaBA8VyRt3ovlGyCKdNV2UL3bn5vdFsTk7qqmp9makz1/SuVXYxIf6L6+8RXOatXWaPkmucuLE1TPOeP7S1N5JToFCs80l2D2EtxoQXGCR48K/cTUR5zV/fQ+hdIOzoo0nFn77Y8Ydd2k7/x9BE78pmoeMnw6VXYfXCuWEgj6p7jpbLoxQMoWMCVzlg72WVNhJFlSw4aD8fc6ezeECAwEAAaOCATQwggEwMBIGA1UdEwEB/wQIMAYBAf8CAQAwNQYDVR0fBC4wLDAqoCigJoYkaHR0cDovL2NybC5hZG9iZS5jb20vYWRvYmVyb290ZzIuY3JsMA4GA1UdDwEB/wQEAwIBBjAUBgNVHSUEDTALBgkqhkiG9y8BAQcwVwYDVR0gBFAwTjBMBgkqhkiG9y8BAgMwPzA9BggrBgEFBQcCARYxaHR0cHM6Ly93d3cuYWRvYmUuY29tL21pc2MvcGtpL3Byb2Rfc3ZjZV9jcHMuaHRtbDAkBgNVHREEHTAbpBkwFzEVMBMGA1UEAxMMU1lNQy00MDk2LTMzMB0GA1UdDgQWBBRXKXoyTcz+5DVOwB8kc85zU6vfajAfBgNVHSMEGDAWgBSmHOFtVCRMqI9Icr9uqYzV5Owx1DANBgkqhkiG9w0BAQsFAAOCAgEAcc7lB4ym3C3cyOA7ZV4AkoGV65UgJK+faThdyXzxuNqlTQBlOyXBGFyevlm33BsGO1mDJfozuyLyT2+7IVxWFvW5yYMV+5S1NeChMXIZnCzWNXnuiIQSdmPD82TEVCkneQpFET4NDwSxo8/ykfw6Hx8fhuKz0wjhjkWMXmK3dNZXIuYVcbynHLyJOzA+vWU3sH2T0jPtFp7FN39GZne4YG0aVMlnHhtHhxaXVCiv2RVoR4w1QtvKHQpzfPObR53Cl74iLStGVFKPwCLYRSpYRF7J6vVS/XxW4LzvN2b6VEKOcvJmN3LhpxFRl3YYzW+dwnwtbuHW6WJlmjffbLm1MxLFGlG95aCz31X8wzqYNsvb9+5AXcv8Ll69tLXmO1OtsY/3wILNUEp4VLZTE3wqm3n8hMnClZiiKyZCS7L4E0mClbx+BRSMH3eVo6jgve41/fK3FQM4QCNIkpGs7FjjLy+ptC+JyyWqcfvORrFV/GOgB5hD+G5ghJcIpeigD/lHsCRYsOa5sFdqREhwIWLmSWtNwfLZdJ3dkCc7yRpm3gal6qRfTkYpxTNxxKyvKbkaJDoxR9vtWrC3iNrQd9VvxC3TXtuzoHbqumeqgcAqefWF9u6snQ4Q9FkXzeuJArNuSvPIhgBjVtggH0w0vm/lmCQYiC/Y12GeCxfgYlL33buiZnNpZ1RzdKFpdHN0VG9rZW5zgaFjdmFsWQ45MIIONTADAgEAMIIOLAYJKoZIhvcNAQcCoIIOHTCCDhkCAQMxDzANBglghkgBZQMEAgEFADCBggYLKoZIhvcNAQkQAQSgcwRxMG8CAQEGCWCGSAGG/WwHATAxMA0GCWCGSAFlAwQCAQUABCAC58PceW88hW+1uZVzQ9K3Y3lJ94lRpy6/yK1rug60wQIRALpEPeK/WJrZnsEs4ZGnvoIYDzIwMjQxMTI2MTg1OTM0WgIIXzNSj0eFGNKgggvAMIIFCjCCAvKgAwIBAgIQDAsvx3p4z7rtZVZUwZokAzANBgkqhkiG9w0BAQsFADBjMQswCQYDVQQGEwJVUzEXMBUGA1UEChMORGlnaUNlcnQsIEluYy4xOzA5BgNVBAMTMkRpZ2lDZXJ0IFRydXN0ZWQgRzQgUlNBNDA5NiBTSEEyNTYgVGltZVN0YW1waW5nIENBMB4XDTI0MTEyMDAwMDAwMFoXDTM2MDIxOTIzNTk1OVowWzELMAkGA1UEBhMCVVMxETAPBgNVBAoTCERpZ2lDZXJ0MTkwNwYDVQQDEzBFQ0MyNTZfU0hBMjU2X1RpbWVzdGFtcF9SZXNwb25kZXJfQWRvYmVfTk9WXzIwMjQwWTATBgcqhkjOPQIBBggqhkjOPQMBBwNCAATQ/B6F+IGYpiqQQLxOfqkUmeTmSRWZzxSCtwM82siW/SbXazktRyEWmwIVs+8PJjhV9C4fUJ23IGRxsfzJM8leo4IBizCCAYcwDgYDVR0PAQH/BAQDAgeAMAwGA1UdEwEB/wQCMAAwFgYDVR0lAQH/BAwwCgYIKwYBBQUHAwgwIAYDVR0gBBkwFzAIBgZngQwBBAIwCwYJYIZIAYb9bAcBMB8GA1UdIwQYMBaAFLoW2W1NhS9zKXaaL3WMaiCPnshvMB0GA1UdDgQWBBTs0RxvfOegTeQxP4cACNSt1H02uzBaBgNVHR8EUzBRME+gTaBLhklodHRwOi8vY3JsMy5kaWdpY2VydC5jb20vRGlnaUNlcnRUcnVzdGVkRzRSU0E0MDk2U0hBMjU2VGltZVN0YW1waW5nQ0EuY3JsMIGQBggrBgEFBQcBAQSBgzCBgDAkBggrBgEFBQcwAYYYaHR0cDovL29jc3AuZGlnaWNlcnQuY29tMFgGCCsGAQUFBzAChkxodHRwOi8vY2FjZXJ0cy5kaWdpY2VydC5jb20vRGlnaUNlcnRUcnVzdGVkRzRSU0E0MDk2U0hBMjU2VGltZVN0YW1waW5nQ0EuY3J0MA0GCSqGSIb3DQEBCwUAA4ICAQCi7MEg8nkvLauLI7cAj21DgnMErh0mntCt4c4tsW9yJQZdZv1n8E1dueayb6IiZ8mYambImrTeuVKwGqUSITZTiVhtFRP3zRD9DpFk+Ex4P010IStH/eD1lgK6bVfaY0gvzcIRQP3CwIzqBZAE81c5QINjPs81cvJLOFKd/cX7zOhoQvrziNDy15UNT5fuURe2fioANQsRNYOmVXAdg2TK7OktYD+EH/D8gWr7nHQhRJMuD54GNjiZnNPnYXz6F3j7Bu2aVlirvQGAAsrW27Lqhg9ksW5+aL+g9/lyqRoMrWLSy4KDQaztPB+PKskecO1R7dbJbw7UBFVl+GbGaUc4x6HvVLNNL5hHjiLrf9A4zxe52e9ZqpSU7kDu7dsRXvm+uLLMXjHFSx/j0stIcxnQHwOL4A5RRuUH1Xw1wz2CiGvIHNcoYrkqfkb6TsKJU7ntDqNKFKZ349sBErTdXwVoId4zS/cV/A5rO1Kw5aNO/zUTCtQkbcMg88XGWqImaYmIHhIvHaE1nRdPWCa0QhrxvioeP45p4/zqd/JrVbNsoEuEBSRIPB3+ViLaoFlimZRUePzwKYvyTrd6g72mVtF4Prbbvy1kqCUmsZDMFqn33DR0N8Qzqkzir3bufNyI5k95Rq3NXcbfNYDx9qZ8gjCu4NHtSxAdJKswzb9gi6jyFTCCBq4wggSWoAMCAQICEAc2N7ckVHzYR6z9KGYqXlswDQYJKoZIhvcNAQELBQAwYjELMAkGA1UEBhMCVVMxFTATBgNVBAoTDERpZ2lDZXJ0IEluYzEZMBcGA1UECxMQd3d3LmRpZ2ljZXJ0LmNvbTEhMB8GA1UEAxMYRGlnaUNlcnQgVHJ1c3RlZCBSb290IEc0MB4XDTIyMDMyMzAwMDAwMFoXDTM3MDMyMjIzNTk1OVowYzELMAkGA1UEBhMCVVMxFzAVBgNVBAoTDkRpZ2lDZXJ0LCBJbmMuMTswOQYDVQQDEzJEaWdpQ2VydCBUcnVzdGVkIEc0IFJTQTQwOTYgU0hBMjU2IFRpbWVTdGFtcGluZyBDQTCCAiIwDQYJKoZIhvcNAQEBBQADggIPADCCAgoCggIBAMaGNQZJs8E9cklRVcclA8TykTepl1Gh1tKD0Z5Mom2gsMyD+Vr2EaFEFUJfpIjzaPp985yJC3+dH54PMx9QEwsmc5Zt+FeoAn39Q7SE2hHxc7Gz7iuAhIoiGN/r2j3EF3+rGSs+QtxnjupRPfDWVtTnKC3r07G1decfBmWNlCnT2exp39mQh0YAe9tEQYncfGpXevA3eZ9drMvohGS0UvJ2R/dhgxndX7RUCyFobjchu0CsX7LeSn3O9TkSZ+8OpWNs5KbFHc02DVzV5huowWR0QKfAcsW6Th+xtVhNef7Xj3OTrCw54qVI1vCwMROpVymWJy71h6aPTnYVVSZwmCZ/oBpHIEPjQ2OAe3VuJyWQmDo4EbP29p7mO1vsgd4iFNmCKseSv6De4z6ic/rnH1pslPJSlRErWHRAKKtzQ87fSqEcazjFKfPKqpZzQmiftkaznTqj1QPgv/CiPMpC3BhIfxQ0z9JMq++bPf4OuGQq+nUoJEHtQr8FnGZJUlD0UfM2SU2LINIsVzV5K6jzRWC8I41Y99xh3pP+OcD5sjClTNfpmEpYPtMDiP6zj9NeS3YSUZPJjAw7W4oiqMEmCPkUEBIDfV8ju2TjY+Cm4T72wnSyPx4JduyrXUZ14mCjWAkBKAAOhFTuzuldyF4wEr1GnrXTdrnSDmuZDNIztM2xAgMBAAGjggFdMIIBWTASBgNVHRMBAf8ECDAGAQH/AgEAMB0GA1UdDgQWBBS6FtltTYUvcyl2mi91jGogj57IbzAfBgNVHSMEGDAWgBTs1+OC0nFdZEzfLmc/57qYrhwPTzAOBgNVHQ8BAf8EBAMCAYYwEwYDVR0lBAwwCgYIKwYBBQUHAwgwdwYIKwYBBQUHAQEEazBpMCQGCCsGAQUFBzABhhhodHRwOi8vb2NzcC5kaWdpY2VydC5jb20wQQYIKwYBBQUHMAKGNWh0dHA6Ly9jYWNlcnRzLmRpZ2ljZXJ0LmNvbS9EaWdpQ2VydFRydXN0ZWRSb290RzQuY3J0MEMGA1UdHwQ8MDowOKA2oDSGMmh0dHA6Ly9jcmwzLmRpZ2ljZXJ0LmNvbS9EaWdpQ2VydFRydXN0ZWRSb290RzQuY3JsMCAGA1UdIAQZMBcwCAYGZ4EMAQQCMAsGCWCGSAGG/WwHATANBgkqhkiG9w0BAQsFAAOCAgEAfVmOwJO2b5ipRCIBfmbW2CFC4bAYLhBNE88wU86/GPvHUF3iSyn7cIoNqilp/GnBzx0H6T5gyNgL5Vxb122H+oQgJTQxZ822EpZvxFBMYh0MCIKoFr2pVs8Vc40BIiXOlWk/R3f7cnQU1/+rT4osequFzUNf7WC2qk+RZp4snuCKrOX9jLxkJodskr2dfNBwCnzvqLx1T7pa96kQsl3p/yhUifDVinF2ZdrM8HKjI/rAJ4JErpknG6skHibBt94q6/aesXmZgaNWhqsKRcnfxI2g55j7+6adcq/Ex8HBanHZxhOACcS2n82HhyS7T6NJuXdmkfFynOlLAlKnN36TU6w7HQhJD5TNOXrd/yVjmScsPT9rp/Fmw0HNT7ZAmyEhQNC3EyTN3B14OuSereU0cZLXJmvkOHOrpgFPvT87eK1MrfvElXvtCl8zOYdBeHo46Zzh3SP9HSjTx/no8Zhf+yvYfvJGnXUsHicsJttvFXseGYs2uJPU5vIXmVnKcPA3v5gA3yAWTyf7YGcWoWa63VXAOimGsJigK+2VQbc61RWYMbRiCQ8KvYHZE/6/pNHzV9m8BPqC3jLfBInwAM1dwvnQI38AC+R2AibZ8GV2QqYphwlHK+Z/GqSFD/yYlvZVVCsfgPrA8g4r5db7qS9EFUrnEw4d2zc4GqEr9u3WfPwxggG4MIIBtAIBATB3MGMxCzAJBgNVBAYTAlVTMRcwFQYDVQQKEw5EaWdpQ2VydCwgSW5jLjE7MDkGA1UEAxMyRGlnaUNlcnQgVHJ1c3RlZCBHNCBSU0E0MDk2IFNIQTI1NiBUaW1lU3RhbXBpbmcgQ0ECEAwLL8d6eM+67WVWVMGaJAMwDQYJYIZIAWUDBAIBBQCggdEwGgYJKoZIhvcNAQkDMQ0GCyqGSIb3DQEJEAEEMBwGCSqGSIb3DQEJBTEPFw0yNDExMjYxODU5MzRaMCsGCyqGSIb3DQEJEAIMMRwwGjAYMBYEFPcTAlRkG5zO0lEtYsW/nymEjPz4MC8GCSqGSIb3DQEJBDEiBCAMKENNt7I9ksCnxYHOy5+2soQVAHaACkwzOEFcpV5DETA3BgsqhkiG9w0BCRACLzEoMCYwJDAiBCC5eiZoHRjpuXxjPvhIOWRVdZeW2lBDRCyPjM3lJ+AAqTAKBggqhkjOPQQDAgRHMEUCIQDu0JramAkt/tx+/Yo2mxL3gyJ4641Urc6jcGIouIy6dQIgUfw6XKZjzbWTB0ZOUHCY7jpcfElcE9e3/BO++39yEZRjcGFkWROEAAAAAAAAAAAAAAAAAAAAAAAAAAAAAAAAAAAAAAAAAAAAAAAAAAAAAAAAAAAAAAAAAAAAAAAAAAAAAAAAAAAAAAAAAAAAAAAAAAAAAAAAAAAAAAAAAAAAAAAAAAAAAAAAAAAAAAAAAAAAAAAAAAAAAAAAAAAAAAAAAAAAAAAAAAAAAAAAAAAAAAAAAAAAAAAAAAAAAAAAAAAAAAAAAAAAAAAAAAAAAAAAAAAAAAAAAAAAAAAAAAAAAAAAAAAAAAAAAAAAAAAAAAAAAAAAAAAAAAAAAAAAAAAAAAAAAAAAAAAAAAAAAAAAAAAAAAAAAAAAAAAAAAAAAAAAAAAAAAAAAAAAAAAAAAAAAAAAAAAAAAAAAAAAAAAAAAAAAAAAAAAAAAAAAAAAAAAAAAAAAAAAAAAAAAAAAAAAAAAAAAAAAAAAAAAAAAAAAAAAAAAAAAAAAAAAAAAAAAAAAAAAAAAAAAAAAAAAAAAAAAAAAAAAAAAAAAAAAAAAAAAAAAAAAAAAAAAAAAAAAAAAAAAAAAAAAAAAAAAAAAAAAAAAAAAAAAAAAAAAAAAAAAAAAAAAAAAAAAAAAAAAAAAAAAAAAAAAAAAAAAAAAAAAAAAAAAAAAAAAAAAAAAAAAAAAAAAAAAAAAAAAAAAAAAAAAAAAAAAAAAAAAAAAAAAAAAAAAAAAAAAAAAAAAAAAAAAAAAAAAAAAAAAAAAAAAAAAAAAAAAAAAAAAAAAAAAAAAAAAAAAAAAAAAAAAAAAAAAAAAAAAAAAAAAAAAAAAAAAAAAAAAAAAAAAAAAAAAAAAAAAAAAAAAAAAAAAAAAAAAAAAAAAAAAAAAAAAAAAAAAAAAAAAAAAAAAAAAAAAAAAAAAAAAAAAAAAAAAAAAAAAAAAAAAAAAAAAAAAAAAAAAAAAAAAAAAAAAAAAAAAAAAAAAAAAAAAAAAAAAAAAAAAAAAAAAAAAAAAAAAAAAAAAAAAAAAAAAAAAAAAAAAAAAAAAAAAAAAAAAAAAAAAAAAAAAAAAAAAAAAAAAAAAAAAAAAAAAAAAAAAAAAAAAAAAAAAAAAAAAAAAAAAAAAAAAAAAAAAAAAAAAAAAAAAAAAAAAAAAAAAAAAAAAAAAAAAAAAAAAAAAAAAAAAAAAAAAAAAAAAAAAAAAAAAAAAAAAAAAAAAAAAAAAAAAAAAAAAAAAAAAAAAAAAAAAAAAAAAAAAAAAAAAAAAAAAAAAAAAAAAAAAAAAAAAAAAAAAAAAAAAAAAAAAAAAAAAAAAAAAAAAAAAAAAAAAAAAAAAAAAAAAAAAAAAAAAAAAAAAAAAAAAAAAAAAAAAAAAAAAAAAAAAAAAAAAAAAAAAAAAAAAAAAAAAAAAAAAAAAAAAAAAAAAAAAAAAAAAAAAAAAAAAAAAAAAAAAAAAAAAAAAAAAAAAAAAAAAAAAAAAAAAAAAAAAAAAAAAAAAAAAAAAAAAAAAAAAAAAAAAAAAAAAAAAAAAAAAAAAAAAAAAAAAAAAAAAAAAAAAAAAAAAAAAAAAAAAAAAAAAAAAAAAAAAAAAAAAAAAAAAAAAAAAAAAAAAAAAAAAAAAAAAAAAAAAAAAAAAAAAAAAAAAAAAAAAAAAAAAAAAAAAAAAAAAAAAAAAAAAAAAAAAAAAAAAAAAAAAAAAAAAAAAAAAAAAAAAAAAAAAAAAAAAAAAAAAAAAAAAAAAAAAAAAAAAAAAAAAAAAAAAAAAAAAAAAAAAAAAAAAAAAAAAAAAAAAAAAAAAAAAAAAAAAAAAAAAAAAAAAAAAAAAAAAAAAAAAAAAAAAAAAAAAAAAAAAAAAAAAAAAAAAAAAAAAAAAAAAAAAAAAAAAAAAAAAAAAAAAAAAAAAAAAAAAAAAAAAAAAAAAAAAAAAAAAAAAAAAAAAAAAAAAAAAAAAAAAAAAAAAAAAAAAAAAAAAAAAAAAAAAAAAAAAAAAAAAAAAAAAAAAAAAAAAAAAAAAAAAAAAAAAAAAAAAAAAAAAAAAAAAAAAAAAAAAAAAAAAAAAAAAAAAAAAAAAAAAAAAAAAAAAAAAAAAAAAAAAAAAAAAAAAAAAAAAAAAAAAAAAAAAAAAAAAAAAAAAAAAAAAAAAAAAAAAAAAAAAAAAAAAAAAAAAAAAAAAAAAAAAAAAAAAAAAAAAAAAAAAAAAAAAAAAAAAAAAAAAAAAAAAAAAAAAAAAAAAAAAAAAAAAAAAAAAAAAAAAAAAAAAAAAAAAAAAAAAAAAAAAAAAAAAAAAAAAAAAAAAAAAAAAAAAAAAAAAAAAAAAAAAAAAAAAAAAAAAAAAAAAAAAAAAAAAAAAAAAAAAAAAAAAAAAAAAAAAAAAAAAAAAAAAAAAAAAAAAAAAAAAAAAAAAAAAAAAAAAAAAAAAAAAAAAAAAAAAAAAAAAAAAAAAAAAAAAAAAAAAAAAAAAAAAAAAAAAAAAAAAAAAAAAAAAAAAAAAAAAAAAAAAAAAAAAAAAAAAAAAAAAAAAAAAAAAAAAAAAAAAAAAAAAAAAAAAAAAAAAAAAAAAAAAAAAAAAAAAAAAAAAAAAAAAAAAAAAAAAAAAAAAAAAAAAAAAAAAAAAAAAAAAAAAAAAAAAAAAAAAAAAAAAAAAAAAAAAAAAAAAAAAAAAAAAAAAAAAAAAAAAAAAAAAAAAAAAAAAAAAAAAAAAAAAAAAAAAAAAAAAAAAAAAAAAAAAAAAAAAAAAAAAAAAAAAAAAAAAAAAAAAAAAAAAAAAAAAAAAAAAAAAAAAAAAAAAAAAAAAAAAAAAAAAAAAAAAAAAAAAAAAAAAAAAAAAAAAAAAAAAAAAAAAAAAAAAAAAAAAAAAAAAAAAAAAAAAAAAAAAAAAAAAAAAAAAAAAAAAAAAAAAAAAAAAAAAAAAAAAAAAAAAAAAAAAAAAAAAAAAAAAAAAAAAAAAAAAAAAAAAAAAAAAAAAAAAAAAAAAAAAAAAAAAAAAAAAAAAAAAAAAAAAAAAAAAAAAAAAAAAAAAAAAAAAAAAAAAAAAAAAAAAAAAAAAAAAAAAAAAAAAAAAAAAAAAAAAAAAAAAAAAAAAAAAAAAAAAAAAAAAAAAAAAAAAAAAAAAAAAAAAAAAAAAAAAAAAAAAAAAAAAAAAAAAAAAAAAAAAAAAAAAAAAAAAAAAAAAAAAAAAAAAAAAAAAAAAAAAAAAAAAAAAAAAAAAAAAAAAAAAAAAAAAAAAAAAAAAAAAAAAAAAAAAAAAAAAAAAAAAAAAAAAAAAAAAAAAAAAAAAAAAAAAAAAAAAAAAAAAAAAAAAAAAAAAAAAAAAAAAAAAAAAAAAAAAAAAAAAAAAAAAAAAAAAAAAAAAAAAAAAAAAAAAAAAAAAAAAAAAAAAAAAAAAAAAAAAAAAAAAAAAAAAAAAAAAAAAAAAAAAAAAAAAAAAAAAAAAAAAAAAAAAAAAAAAAAAAAAAAAAAAAAAAAAAAAAAAAAAAAAAAAAAAAAAAAAAAAAAAAAAAAAAAAAAAAAAAAAAAAAAAAAAAAAAAAAAAAAAAAAAAAAAAAAAAAAAAAAAAAAAAAAAAAAAAAAAAAAAAAAAAAAAAAAAAAAAAAAAAAAAAAAAAAAAAAAAAAAAAAAAAAAAAAAAAAAAAAAAAAAAAAAAAAAAAAAAAAAAAAAAAAAAAAAAAAAAAAAAAAAAAAAAAAAAAAAAAAAAAAAAAAAAAAAAAAAAAAAAAAAAAAAAAAAAAAAAAAAAAAAAAAAAAAAAAAAAAAAAAAAAAAAAAAAAAAAAAAAAAAAAAAAAAAAAAAAAAAAAAAAAAAAAAAAAAAAAAAAAAAAAAAAAAAAAAAAAAAAAAAAAAAAAAAAAAAAAAAAAAAAAAAAAAAAAAAAAAAAAAAAAAAAAAAAAAAAAAAAAAAAAAAAAAAAAAAAAAAAAAAAAAAAAAAAAAAAAAAAAAAAAAAAAAAAAAAAAAAAAAAAAAAAAAAAAAAAAAAAAAAAAAAAAAAAAAAAAAAAAAAAAAAAAAAAAAAAAAAAAAAAAAAAAAAAAAAAAAAAAAAAAAAAAAAAAAAAAAAAAAAAAAAAAAAAAAAAAAAAAAAAAAAAAAAAAAAAAAAAAAAAAAAAAAAAAAAAAAAAAAAAAAAAAAAAAAAAAAAAAAAAAAAAAAAAAAAAAAAAAAAAAAAAAAAAAAAAAAAAAAAAAAAAAAAAAAAAAAAAAAAAAAAAAAAAAAAAAAAAAAAAAAAAAAAAAAAAAAAAAAAAAAAAAAAAAAAAAAAAAAAAAAAAAAAAAAAAAAAAAAAAAAAAAAAAAAAAAAAAAAAAAAAAAAAAAAAAAAAAAAAAAAAAAAAAAAAAAAAAAAAAAAAAAAAAAAAAAAAAAAAAAAAAAAAAAAAAAAAAAAAAAAAAAAAAAAAAAAAAAAAAAAAAAAAAAAAAAAAAAAAAAAAAAAAAAAAAAAAAAAAAAAAAAAAAAAAAAAAAAAAAAAAAAAAAAAAAAAAAAAAAAAAAAAAAAAAAAAAAAAAAAAAAAAAAAAAAAAAAAAAAAAAAAAAAAAAAAAAAAAAAAAAAAAAAAAAAAAAAAAAAAAAAAAAAAAAAAAAAAAAAAAAAAAAAAAAAAAAAAAAAAAAAAAAAAAAAAAAAAAAAAAAAAAAAAAAAAAAAAAAAAAAAAAAAAAAAAAAAAAAAAAAAAAAAAAAAAAAAAAAAAAAAAAAAAAAAAAAAAAAAAAAAAAAAAAAAAAAAAAAAAAAAAAAAAAAAAAAAAAAAAAAAAAAAAAAAAAAAAAAAAAAAAAAAAAAAAAAAAAAAAAAAAAAAAAAAAAAAAAAAAAAAAAAAAAAAAAAAAAAAAAAAAAAAAAAAAAAAAAAAAAAAAAAAAAAAAAAAAAAAAAAAAAAAAAAAAAAAAAAAAAAAAAAAAAAAAAAAAAAAAAAAAAAAAAAAAAAAAAAAAAAAAAAAAAAAAAAAAAAAAAAAAAAAAAAAAAAAAAAAAAAAAAAAAAAAAAAAAAAAAAAAAAAAAAAAAAAAAAAAAAAAAAAAAAAAAAAAAAAAAAAAAAAAAAAAAAAAAAAAAAAAAAAAAAAAAAAAAAAAAAAAAAAAAAAAAAAAAAAAAAAAAAAAAAAAAAAAAAAAAAAAAAAAAAAAAAAAAAAAAAAAAAAAAAAAAAAAAAAAAAAAAAAAAAAAAAAAAAAAAAAAAAAAAAAAAAAAAAAAAAAAAAAAAAAAAAAAAAAAAAAAAAAAAAAAAAAAAAAAAAAAAAAAAAAAAAAAAAAAAAAAAAAAAAAAAAAAAAAAAAAAAAAAAAAAAAAAAAAAAAAAAAAAAAAAAAAAAAAAAAAAAAAAAAAAAAAAAAAAAAAAAAAAAAAAAAAAAAAAAAAAAAAAAAAAAAAAAAAAAAAAAAAAAAAAAAAAAAAAAAAAAAAAAAAAAAAAAAAAAAAAAAAAAAAAAAAAAAAAAAAAAAAAAAAAAAAAAAAAAAAAAAAAAAAAAAAAAAAAAAAAAAAAAAAAAAAAAAAAAAAAAAAAAAAAAAAAAAAAAAAAAAAAAAAAAAAAAAAAAAAAAAAAAAAAAAAAAAAAAAAAAAAAAAAAAAAAAAAAAAAAAAAAAAAAAAAAAAAAAAAAAAAAAAAAAAAAAAAAAAAAAAAAAAAAAAAAAAAAAAAAAAAAAAAAAAAAAAAAAAAAAAAAAAAAAAAAAAAAAAAAAAAAAAAAAAAAAAAAAAAAAAAAAAAAAAAAAAAAAAAAAAAAAAAAAAAAAAAAAAAAAAAAAAAAAAAAAAAAAAAAAAAAAAAAAAAAAAAAAAAAAAAAAAAAAAAAAAAAAAAAAAAAAAAAAAAAAAAAAAAAAAAAAAAAAAAAAAAAAAAAAAAAAAAAAAAAAAAAAAAAAAAAAAAAAAAAAAAAAAAAAAAAAAAAAAAAAAAAAAAAAAAAAAAAAAAAAAAAAAAAAAAAAAAAAAAAAAAAAAAAAAAAAAAAAAAAAAAAAAAAAAAAAAAAAAAAAAAAAAAAAAAAAAAAAAAAAAAAAAAAAAAAAAAAAAAAAAAAAAAAAAAAAAAAAAAAAAAAAAAAAAAAAAAAAAAAAAAAAAAAAAAAAAAAAAAAAAAAAAAAAAAAAAAAAAAAAAAAAAAAAAAAAAAAAAAAAAAAAAAAAAAAAAAAAAAAAAAAAAAAAAAAAAAAAAAAAAAAAAAAAAAAAAAAAAAAAAAAAAAAAAAAAAAAAAAAAAAAAAAAAAAAAAAAAAAAAAAAAAAAAAAAAAAAAAAAAAAAAAAAAAAAAAAAAAAAAAAAAAAAAAAAAAAAAAAAAAAAAAAAAAAAAAAAAAAAAAAAAAAAAAAAAAAAAAAAAAAAAAAAAAAAAAAAAAAAAAAAAAAAAAAAAAAAAAAAAAAAAAAAAAAAAAAAAAAAAAAAAAAAAAAAAAAAAAAAAAAAAAAAAAAAAAAAAAAAAAAAAAAAAAAAAAAAAAAAAAAAAAAAAAAAAAAAAAAAAAAAAAAAAAAAAAAAAAAAAAAAAAAAAAAAAAAAAAAAAAAAAAAAAAAAAAAAAAAAAAAAAAAAAAAAAAAAAAAAAAAAAAAAAAAAAAAAAAAAAAAAAAAAAAAAAAAAAAAAAAAAAAAAAAAAAAAAAAAAAAAAAAAAAAAAAAAAAAAAAAAAAAAAAAAAAAAAAAAAAAAAAAAAAAAAAAAAAAAAAAAAAAAAAAAAAAAAAAAAAAAAAAAAAAAAAAAAAAAAAAAAAAAAAAAAAAAAAAAAAAAAAAAAAAAAAAAAAAAAAAAPZZAQASl/9uTz1rPfCSbC0KgH1lI3B/6hZFL/A9sdN1mhfjIvC6I6f3sqRjaB6fqUvo0MOmIEb0aPiGtUd/orRl8R0/oCls1HhCXQGCNp32gpdeCohmOGDdvU2IHct7E0Rr04oY/ATi7cpeTVJ8sBTIFxxzccAEsDhzw8G67YsOkPA6dBtJWYQ3wR1b6XITBDEbLhJdA2k2zY9uF5nhfL0nEuwbWywj9NeEW2EVpbRdxrVuwDZ+y0XfbxbNxc41nnorBKPigUTL0E6QLSPOztkmDmFJ2T++DgP3EOTsyMNEihocUpL/8/JtHKgGaKO+Fom0UwSNIqSrqjiijddofYrMFxH+</c2pa:manifest></metadata><defs><linearGradient id="linear-gradient" x1="7.29" y1="25.13" x2="52.38" y2="45.9" gradientUnits="userSpaceOnUse"><stop offset="0" stop-color="#f67425"/><stop offset=".48" stop-color="#fbac2f"/><stop offset="1" stop-color="#f46e23"/></linearGradient><linearGradient id="linear-gradient-2" x1="31.53" y1="30.55" x2="42.78" y2="41.95" gradientUnits="userSpaceOnUse"><stop offset="0" stop-color="#fbb833"/><stop offset="1" stop-color="#f57426"/></linearGradient><linearGradient id="linear-gradient-3" x1="27" y1="36.02" x2="14.2" y2="37.04" gradientUnits="userSpaceOnUse"><stop offset="0" stop-color="#f7862a"/><stop offset="1" stop-color="#fbb432"/></linearGradient><linearGradient id="linear-gradient-4" x1="38.09" y1="65.06" x2="35.87" y2="77.35" gradientUnits="userSpaceOnUse"><stop offset="0" stop-color="#fba931"/><stop offset="1" stop-color="#f67828"/></linearGradient><linearGradient id="linear-gradient-5" x1="42.26" y1="56.19" x2="13.97" y2="84.78" gradientUnits="userSpaceOnUse"><stop offset="0" stop-color="#14c4b5"/><stop offset=".39" stop-color="#1ca3a0"/><stop offset=".44" stop-color="#1ca09e"/><stop offset="1" stop-color="#0b8891"/></linearGradient><linearGradient id="linear-gradient-6" x1="18.46" y1="64.48" x2="23.58" y2="77.53" gradientUnits="userSpaceOnUse"><stop offset="0" stop-color="#faa030"/><stop offset="1" stop-color="#f46d24"/></linearGradient></defs><g id="Layer_1"><path d="M57.42,41.54l.14,1.06-8.01.08c.02-.49-1.03-.11-1.28-.24-.18-.09-.6-3.06-.77-3.62-2.09-6.51-9.16-11.9-16.8-12.4-11.1-.72-19.78,6.32-21.22,15.93l-8.93.08c-.08-.5-.19-.8.32-1.06,1.55-.37,3.21-.43,4.74-.89l.14.08,1.41-4.27-4.37-3.41,2.41-3.78,5.65,1.71,3.51-2.97-1.91-4.96,4.28-2.48c.12-.02.21-.05.32-.08l3.55,3.98c1.46-.6,3.07-.76,4.6-1.14.01,0,.04.14.23.08.42-.18.86-4.41,1.23-4.84.27-.31.95.09,1.18-.28,1.31-.1,2.61-.14,3.92.04l1.05,5.08,4.37,1.06,3.83-3.98c.73.17,4.83,2.12,4.87,2.56s-2.18,4.56-2.09,4.88l3.23,2.97,5.46-1.79c.44.02,2.66,3.64,2.87,4.27l-4.46,3.25,1.09,4.06c.17.22,4.77.73,5.46,1.02Z" style="fill:url(#linear-gradient);"/><path d="M57.42,41.54c.65.27.32.67.32,1.3h-10.66c-.56-6.23-5.11-12.06-11.75-14.22-11.69-3.81-23.48,3.42-24.59,14.22H.08c-.14-.05-.07-1.2-.05-1.26.11-.26.64-.16.82-.2-.51.26-.4.55-.32,1.06l8.93-.08c1.44-9.61,10.12-16.65,21.22-15.93,7.64.5,14.71,5.88,16.8,12.4.18.56.6,3.52.77,3.62.24.13,1.29-.25,1.28.24l8.01-.08-.14-1.06Z" style="fill:#f06821;"/><path d="M30.23,30.16c5.45.36,10.66,3.68,12.8,8.17.26.55,1.61,4.29,1.05,4.51h-4.19c-.69-4.63-4.6-8.04-9.7-8.82l.05-3.86Z" style="fill:url(#linear-gradient-2);"/><path d="M13.61,42.51c-.09-.68.76-3.21,1.09-3.94,1.7-3.74,6.29-7.47,10.84-8.09.21-.03,1.86-.19,1.91-.12v2.44c-.08.17-2.18.55-2.6.69-3.04,1.03-5.9,3.34-7.15,6.06-.45.97-.58,2.08-1.05,2.97h-3.05Z" style="fill:url(#linear-gradient-3);"/><path d="M13.61,42.51h3.05c.47-.89.6-2,1.05-2.97,1.25-2.71,4.11-5.03,7.15-6.06.42-.14,2.52-.52,2.6-.69v-2.44c-.06-.07-1.71.09-1.91.12.31-.15,2.06-.45,2.19-.2v3.74c-5.06.7-9.08,4.13-9.7,8.74l-4.28.08c-.18-.1-.12-.19-.14-.33Z" style="fill:#f06821;"/><path d="M5.59,40.48l1.37-4.02-4.46-3.41,2.78-4.19,5.56,1.79,3.32-2.97-1.91-4.96c.08-.22,4.13-2.26,4.46-2.32l-4.28,2.48,1.91,4.96-3.51,2.97-5.65-1.71-2.41,3.78,4.37,3.41-1.41,4.27-.14-.08Z" style="fill:#f06821;"/><path d="M27.82,18.13c-.23.37-.92-.02-1.18.28-.37.43-.81,4.66-1.23,4.84-.19.06-.22-.08-.23-.08l1-4.84c.22-.31,1.25-.17,1.64-.2Z" style="fill:#f06821;"/></g><g id="Layer_3"><path d="M30.16,74.79c5.54-.46,10.46-4.84,10.74-9.83,1.04-.05,2.1.04,3.14,0,.57.22-.79,3.89-1.05,4.43-2.11,4.37-7.42,7.99-12.83,8.12.04-.9-.05-1.82,0-2.72Z" style="fill:url(#linear-gradient-4);"/><path d="M40.9,64.97c-.28,4.98-5.2,9.36-10.74,9.83.01-.22-.06-1.03.05-1.14,4.89-.57,9-4.16,9.51-8.57.14-.21.92-.11,1.18-.12Z" style="fill:#f06821;"/><path d="M48.18,65.62l8.74-.12-.05.69-4.69.77c-.84,1.21-.71,2.92-1.64,4.14l.14.2s.1-.11.14-.08c1.51,1.08,2.94,2.29,4.46,3.37l-2.82,4.26c.04-.21-.22-.2-.36-.24-.09-.02-.17-.06-.27-.08-.21-.06-.46-.17-.73-.24-.33-.11-.67-.21-1-.32-.09-.03-.18-.05-.27-.08-.34-.11-.65-.22-1-.32-.09-.03-.18-.05-.27-.08-.43-.13-.86-.39-1.32-.49-.08,0-.04.16-.05.16-.88.34-2.5,2.48-3.55,2.96l1.91,4.87c-.09.28-3.83,2.17-4.37,2.31-.27-.02-.39-.2-.55-.37-1.11-1.17-2.12-2.44-3.23-3.61-.29-.07-.21.16-.23.16-1.5.23-2.94,1-4.5,1.06l-1.14,5.08c-.11.12-2.12.19-2.46.2l-2.64-.28c-.1-.65-.74-4.74-1.05-4.91-.1-.02-.24.02-.32,0-1.51-.45-3.18-.63-4.69-1.14-.24.07-2.66,3.11-3.23,3.57-.2-.04-.23.17-.41.16-.45-.02-3.32-1.96-4.05-2.15l1.82-5.03-3.5-2.96c-.18-.13-.3,0-.32,0-1.12.1-3.47,1.19-4.82,1.46l-2.73-3.78,4.37-3.57c-.71-1.26-.91-2.76-1.73-3.94-1.47-.5-3.58-.38-5.1-.81l-.05-1.14,8.92.16c1.45,14.22,20.75,21.14,32.58,11.04,3.66-3.12,5.18-6.51,6.05-10.88Z" style="fill:url(#linear-gradient-5);"/><path d="M51.82,64.97c-1.35.07-2.19.44-3.59.32-.29.16-.04.31-.05.32-.87,4.37-2.39,7.76-6.05,10.88-11.83,10.1-31.12,3.18-32.58-11.04l-8.92-.16.05,1.14c-1-.28-.6-.56-.59-1.46h10.65c.92,10.72,12.86,17.94,24.39,14.21,6.4-2.07,11.45-7.98,11.78-14.09.11-.21,4.33-.12,4.91-.12Z" style="fill:#09888f;"/><path d="M5.86,78.53c-.21.04-.44.21-.68.16l-2.68-4.02,4.46-3.57-1.18-3.86c.82,1.18,1.02,2.67,1.73,3.94l-4.37,3.57,2.73,3.78Z" style="fill:#066471;"/><path d="M50.82,71.22s-.1.05-.14.08l-.14-.2c.93-1.22.8-2.93,1.64-4.14l4.69-.77.05-.69-8.74.12s-.24-.16.05-.32c1.4.12,2.24-.26,3.59-.32,1.99-.02,4.09-.07,6.01.04-.18.19-.05,1.25-.09,1.3-.21.28-4.91.77-5.6.93l-1.32,3.98Z" style="fill:#04b3ab;"/><path d="M17.15,87.06c-.11.09-.2.33-.41.32l-4.69-2.31,1.91-5.12-3.28-2.88s.13-.13.32,0l3.5,2.96-1.82,5.03c.72.2,3.6,2.13,4.05,2.15.18,0,.21-.21.41-.16Z" style="fill:#066471;"/><path d="M29.07,89.82c-.41.01-2.94.03-3.09-.12l-.91-5.08c.08.02.22-.02.32,0,.31.17.95,4.26,1.05,4.91l2.64.28Z" style="fill:#066471;"/><path d="M41.17,87.3c-.05.01-.24.23-.41.16l-3.59-3.98s-.07-.23.23-.16c1.11,1.17,2.12,2.44,3.23,3.61.16.16.27.35.55.37Z" style="fill:#077781;"/><path d="M48.54,77.47c-.36-.11-.98-.15-1.36-.32,0,0-.03-.15.05-.16.46.09.89.36,1.32.49Z" style="fill:#09888f;"/><path d="M49.81,77.88c-.31-.1-.69-.23-1-.32.35.1.66.21,1,.32Z" style="fill:#09888f;"/><path d="M51.09,78.29c-.36-.1-.7-.23-1-.32.33.11.67.21,1,.32Z" style="fill:#09888f;"/><path d="M51.82,78.53c-.43-.11-.43-.14-.73-.24.27.08.51.18.73.24Z" style="fill:#09888f;"/><path d="M52.45,78.85c-.26,0-.34-.24-.36-.24.14.04.41.04.36.24Z" style="fill:#09888f;"/><path d="M48.81,77.55c-.09-.03-.18-.05-.27-.08.09.03.18.05.27.08Z" style="fill:#09888f;"/><path d="M50.09,77.96c-.09-.03-.18-.05-.27-.08.09.03.18.05.27.08Z" style="fill:#09888f;"/><path d="M52.09,78.61c-.07-.02-.19-.06-.27-.08.1.03.18.06.27.08Z" style="fill:#09888f;"/><path d="M13.74,64.97h4.19c.85,4.59,4.6,8.04,9.78,8.73l-.05,3.86c-5.65-.28-11.03-3.86-13.06-8.57-.21-.5-1.32-3.84-.86-4.02Z" style="fill:url(#linear-gradient-6);"/><path d="M16.92,65.13c.21.03.72-.06.86.04.12.09.58,2.18.82,2.68,1.23,2.57,3.95,4.64,6.87,5.56,1.02.32,2.38-.05,1.91,1.3-5.37-.54-10.22-4.69-10.46-9.58Z" style="fill:#f06821;"/></g><g id="Layer_2"><rect x="17.65" width="249.4" height="106.81" style="fill:none;"/><path d="M19.84,59.94l2.95-.47c.65,3.42,1.8,5.29,5.87,5.29,2.92,0,5.25-1.12,5.25-4.5s-2.7-4.25-5.69-5.15c-3.53-1.04-7.42-2.16-7.42-7.49,0-4.43,3.13-7.16,8.21-7.16,4.54,0,7.42,1.8,7.95,7.31l-2.95.4c-.43-2.81-1.01-5-5-5s-5.04,1.8-5.04,4.18c0,3.2,2.74,4.07,5.72,5,3.56,1.08,7.45,2.3,7.45,7.45s-3.96,7.63-8.6,7.63c-5.08,0-8.03-1.94-8.71-7.49Z" style="fill:#0a0e34; stroke:#fff; stroke-miterlimit:10; stroke-width:.1px;"/><rect x="39.17" width="249.4" height="106.81" style="fill:none;"/><path d="M40.66,55.91c0-3.78,2.16-5.58,5.21-5.58s4.79,1.39,4.79,5.02c0,.27,0,.59-.04,1.03h-7.94c.06,2.14.92,3.59,3.67,3.59,1.57,0,2.39-.31,3.46-.88l.59,1.43c-.99.61-2.33,1.07-4.24,1.07-4.28,0-5.5-2.5-5.5-5.67ZM48.72,55.01c-.04-2.37-1.16-3.15-2.83-3.15-1.81,0-3.02.8-3.19,3.15h6.03Z" style="fill:#0a0e34; stroke:#fff; stroke-miterlimit:10; stroke-width:.1px;"/><path d="M54.6,61.33v-10.79h1.72v1.55l.15.04c.88-1.01,1.97-1.81,3.8-1.81,2.46,0,3.28,1.47,3.28,3.91v7.1h-1.91v-6.59c0-1.91-.34-2.77-1.95-2.77-1.43,0-2.6.92-3.17,1.47v7.89h-1.91Z" style="fill:#0a0e34; stroke:#fff; stroke-miterlimit:10; stroke-width:.1px;"/><path d="M68,61.33v-10.79h1.72v1.55l.15.04c.88-1.01,1.97-1.81,3.8-1.81,2.46,0,3.28,1.47,3.28,3.91v7.1h-1.91v-6.59c0-1.91-.34-2.77-1.95-2.77-1.43,0-2.6.92-3.17,1.47v7.89h-1.91Z" style="fill:#0a0e34; stroke:#fff; stroke-miterlimit:10; stroke-width:.1px;"/><path d="M80.83,58.71c0-2.1,1.3-3,3.99-3.21l3.04-.23v-1.2c0-1.53-.29-2.29-2.31-2.29-1.45,0-2.37.15-2.39,1.72l-1.81-.19c0-2.58,2.39-2.98,4.26-2.98,2.94,0,4.14.84,4.14,3.74v5.33c0,.52.13.67.78.67h1.01v1.26c-.42.08-1.01.15-1.51.15-.99,0-1.83-.46-1.95-1.64l-.17-.02c-1.01.97-2.33,1.76-3.95,1.76-2.79,0-3.13-1.81-3.13-2.88ZM87.86,58.56v-2.06l-2.58.21c-1.95.17-2.48.69-2.48,1.78s.61,1.6,1.74,1.6c1.24,0,2.62-.67,3.32-1.53Z" style="fill:#0a0e34; stroke:#fff; stroke-miterlimit:10; stroke-width:.1px;"/><path d="M116.55,61.33l-1.38-4.58h-5.17l-1.38,4.58h-1.95l4.72-15.2h2.41l4.87,15.2h-2.12ZM110.4,55.16h4.35l-2.16-7.16h-.02l-2.16,7.16Z" style="fill:#0a0e34; stroke:#fff; stroke-miterlimit:10; stroke-width:.1px;"/><path d="M130.53,50.54v10.79h-1.72v-1.55l-.15-.04c-.88,1.01-1.97,1.81-3.8,1.81-2.46,0-3.28-1.47-3.28-3.91v-7.1h1.91v6.59c0,1.91.34,2.79,1.95,2.79,1.43,0,2.6-.94,3.17-1.47v-7.92h1.91Z" style="fill:#0a0e34; stroke:#fff; stroke-miterlimit:10; stroke-width:.1px;"/><path d="M137.15,58.2v-6.19h-3.28v-1.18c3.32-.23,3.67-.71,3.97-3.36h1.22v3.07h4.68v1.47h-4.68v6.03c0,1.41.42,1.97,1.74,1.97.86,0,1.81-.38,2.58-1.01l.76,1.22c-.94.78-2.2,1.36-3.61,1.36-2.27,0-3.38-.99-3.38-3.38Z" style="fill:#0a0e34; stroke:#fff; stroke-miterlimit:10; stroke-width:.1px;"/><path d="M147.73,55.89c0-3.3,1.66-5.56,5.27-5.56s4.98,2.29,4.98,5.44c0,3.53-1.6,5.82-5.19,5.82s-5.06-2.35-5.06-5.69ZM156.01,55.89c0-2.75-.99-4.03-3.04-4.03s-3.25,1.28-3.25,4.05,1.07,4.18,3.15,4.18,3.15-1.32,3.15-4.2Z" style="fill:#0a0e34; stroke:#fff; stroke-miterlimit:10; stroke-width:.1px;"/><path d="M160.92,50.54h1.6v1.34l.17.04c.92-1.09,1.55-1.6,2.54-1.6.88,0,1.49.46,1.74,1.55l.1.02c.78-1.03,1.49-1.57,2.52-1.57,1.41,0,2.08.92,2.08,2.69v8.31h-1.76v-7.98c0-1.01-.34-1.39-.84-1.39-.63,0-1.16.21-1.91,1.13v8.23h-1.7v-7.81c0-1.03-.19-1.55-.84-1.55s-1.13.27-1.93,1.22v8.15h-1.76v-10.79Z" style="fill:#0a0e34; stroke:#fff; stroke-miterlimit:10; stroke-width:.1px;"/><path d="M174.61,58.71c0-2.1,1.3-3,3.99-3.21l3.04-.23v-1.2c0-1.53-.29-2.29-2.31-2.29-1.45,0-2.37.15-2.39,1.72l-1.81-.19c0-2.58,2.39-2.98,4.26-2.98,2.94,0,4.14.84,4.14,3.74v5.33c0,.52.13.67.78.67h1.01v1.26c-.42.08-1.01.15-1.51.15-.99,0-1.83-.46-1.95-1.64l-.17-.02c-1.01.97-2.33,1.76-3.95,1.76-2.79,0-3.13-1.81-3.13-2.88ZM181.65,58.56v-2.06l-2.58.21c-1.95.17-2.48.69-2.48,1.78s.61,1.6,1.74,1.6c1.24,0,2.62-.67,3.32-1.53Z" style="fill:#0a0e34; stroke:#fff; stroke-miterlimit:10; stroke-width:.1px;"/><path d="M190.74,58.2v-6.19h-3.28v-1.18c3.32-.23,3.67-.71,3.97-3.36h1.22v3.07h4.68v1.47h-4.68v6.03c0,1.41.42,1.97,1.74,1.97.86,0,1.81-.38,2.58-1.01l.76,1.22c-.94.78-2.2,1.36-3.61,1.36-2.27,0-3.38-.99-3.38-3.38Z" style="fill:#0a0e34; stroke:#fff; stroke-miterlimit:10; stroke-width:.1px;"/><path d="M211.44,59.92v1.41h-9.47v-1.41h4.16v-7.96h-4.16v-1.43h6.07v9.39h3.4ZM205.4,46.93c0-.84.5-1.32,1.34-1.32s1.39.48,1.37,1.32c0,.86-.5,1.34-1.37,1.34s-1.34-.48-1.34-1.34Z" style="fill:#0a0e34; stroke:#fff; stroke-miterlimit:10; stroke-width:.1px;"/><path d="M214.72,55.89c0-3.3,1.66-5.56,5.27-5.56s4.98,2.29,4.98,5.44c0,3.53-1.6,5.82-5.19,5.82s-5.06-2.35-5.06-5.69ZM222.99,55.89c0-2.75-.99-4.03-3.04-4.03s-3.25,1.28-3.25,4.05,1.07,4.18,3.15,4.18,3.15-1.32,3.15-4.2Z" style="fill:#0a0e34; stroke:#fff; stroke-miterlimit:10; stroke-width:.1px;"/><path d="M228.77,61.33v-10.79h1.72v1.55l.15.04c.88-1.01,1.97-1.81,3.8-1.81,2.46,0,3.28,1.47,3.28,3.91v7.1h-1.91v-6.59c0-1.91-.34-2.77-1.95-2.77-1.43,0-2.6.92-3.17,1.47v7.89h-1.91Z" style="fill:#0a0e34; stroke:#fff; stroke-miterlimit:10; stroke-width:.1px;"/></g></svg>